<?xml version="1.0" standalone="no"?>
<!DOCTYPE svg PUBLIC "-//W3C//DTD SVG 1.0//EN" "http://www.w3.org/TR/2001/REC-SVG-20010904/DTD/svg10.dtd">
<svg xmlns="http://www.w3.org/2000/svg" xmlns:xlink="http://www.w3.org/1999/xlink" id="body_1" width="60" height="60">

<g transform="matrix(1.5 0 0 1.5 0 0)">
	<g>
        <path d="M34 15.9333C 34 27.3333 20 40 20 40C 20 40 6 27.3333 6 15.9333C 6 12.238 7.475 8.69399 10.1005 6.08098C 12.726 3.46797 16.287 2 20 2C 23.713 2 27.274 3.46797 29.8995 6.08098C 32.525 8.69399 34 12.238 34 15.9333z" stroke="#FA627D" stroke-width="2" stroke-linecap="square" fill="#FFFFFF" fill-rule="nonzero" />
        <path d="M16.391 23.7374C 15.446 23.7374 14.676 22.9674 14.6585 22.0224C 14.6585 21.9874 14.5535 16.9824 10.8435 13.1849C 10.1785 12.5024 10.196 11.3999 10.8785 10.7349C 11.561 10.0699 12.646 10.0699 13.3285 10.7524C 18.0535 15.5649 18.141 21.7249 18.141 21.9874C 18.141 22.9499 17.371 23.7199 16.391 23.7374C 16.4085 23.7374 16.4085 23.7374 16.391 23.7374z" stroke="none" fill="#FFC658" fill-rule="nonzero" />
        <path d="M23.5869 23.7404C 22.6769 23.7404 21.9069 23.0229 21.8544 22.1129C 21.8369 21.8679 21.5919 16.2154 26.6319 10.8079C 27.2794 10.1079 28.3819 10.0729 29.0819 10.7204C 29.7819 11.3679 29.8169 12.4704 29.1694 13.1704C 25.1269 17.5104 25.3194 21.8854 25.3194 21.9379C 25.3719 22.8829 24.6369 23.7054 23.6919 23.7579C 23.6569 23.7404 23.6219 23.7404 23.5869 23.7404z" stroke="none" fill="#77C6E9" fill-rule="nonzero" />
        <path d="M23.6238 23.738C 22.6613 23.738 21.8913 22.968 21.8913 22.0055C 21.8913 20.133 20.7188 18.593 20.1238 18.593C 19.3363 18.593 18.0763 20.1505 18.0763 22.0055C 18.0763 22.968 17.3063 23.738 16.3438 23.738C 15.3813 23.738 14.6113 22.968 14.6113 22.0055C 14.6113 18.768 16.8688 15.1455 20.1063 15.1455C 23.1863 15.1455 25.3213 18.768 25.3213 22.023C 25.3563 22.9505 24.5863 23.738 23.6238 23.738z" stroke="none" fill="#FA627D" fill-rule="nonzero" />
        <path d="M18.0901 21.989C 18.0901 21.8665 18.0901 21.744 18.1076 21.604C 18.0726 20.799 17.8451 18.804 16.9526 16.459C 15.6051 17.7365 14.7476 19.714 14.6426 21.639C 14.6601 21.884 14.6601 22.024 14.6601 22.024C 14.6601 22.724 15.0976 23.3365 15.6926 23.599C 15.9026 23.6865 16.1126 23.739 16.3576 23.739C 17.3201 23.7215 18.0901 22.9515 18.0901 21.989z" stroke="none" fill="#F99964" fill-rule="nonzero" />
        <path d="M23.0397 16.3721C 22.0947 18.6996 21.9022 20.6246 21.8672 21.5346C 21.8847 21.6921 21.9022 21.8496 21.9022 22.0071C 21.9022 22.9521 22.6722 23.7396 23.6172 23.7396L23.6172 23.7396L23.6347 23.7396C 23.6697 23.7396 23.7222 23.7221 23.7572 23.7221C 24.6672 23.6346 25.3672 22.8471 25.3147 21.9196C 25.3147 21.9196 25.3147 21.7446 25.3322 21.4296C 25.1922 19.5221 24.3522 17.5796 23.0397 16.3721z" stroke="none" fill="#777CEA" fill-rule="nonzero" />
	</g>
</g>
</svg>