<svg width="16" height="22" viewBox="0 0 16 22" fill="none" xmlns="http://www.w3.org/2000/svg">
<path d="M13.6067 0H2.14454C0.961345 0 0 0.961345 0 2.16303V19.837C0 21.0202 0.961344 22 2.16303 22H13.6252C14.8084 22 15.7882 21.0387 15.7882 19.837V2.16303C15.7697 0.961345 14.8084 0 13.6067 0ZM15.0303 19.837C15.0303 20.6134 14.3832 21.2605 13.6067 21.2605H2.14454C1.36807 21.2605 0.721008 20.6134 0.721008 19.837V2.16303C0.739496 1.38655 1.38655 0.739496 2.16303 0.739496H13.6252C14.4017 0.739496 15.0487 1.38655 15.0487 2.16303V19.837H15.0303Z" fill="#494949"/>
<path d="M12.4245 5.54626H6.26819C6.06482 5.54626 5.89844 5.71265 5.89844 5.91601C5.89844 6.11937 6.06482 6.28576 6.26819 6.28576H12.443C12.6463 6.28576 12.8127 6.11937 12.8127 5.91601C12.8127 5.71265 12.6463 5.54626 12.4245 5.54626Z" fill="#494949"/>
<path d="M4.86228 4.91769L3.95639 5.82357L3.60513 5.47231C3.45723 5.32441 3.23539 5.32441 3.08749 5.47231C2.93959 5.62021 2.93959 5.84206 3.08749 5.98996L3.69757 6.60004C3.77152 6.67399 3.86396 6.71096 3.95639 6.71096C4.04883 6.71096 4.14127 6.67399 4.21522 6.60004L5.37992 5.43533C5.52782 5.28743 5.52782 5.06559 5.37992 4.91769C5.23202 4.76979 5.01018 4.76979 4.86228 4.91769Z" fill="#494949"/>
<path d="M12.4245 9.04028H6.26819C6.06482 9.04028 5.89844 9.20667 5.89844 9.41003C5.89844 9.61339 6.06482 9.77978 6.26819 9.77978H12.443C12.6463 9.77978 12.8127 9.61339 12.8127 9.41003C12.8127 9.20667 12.6463 9.04028 12.4245 9.04028Z" fill="#494949"/>
<path d="M4.86228 8.41171L3.95639 9.31759L3.60513 8.96633C3.45723 8.81843 3.23539 8.81843 3.08749 8.96633C2.93959 9.11423 2.93959 9.33608 3.08749 9.48397L3.69757 10.0941C3.77152 10.168 3.86396 10.205 3.95639 10.205C4.04883 10.205 4.14127 10.168 4.21522 10.0941L5.37992 8.92935C5.52782 8.78145 5.52782 8.5596 5.37992 8.41171C5.23202 8.26381 5.01018 8.26381 4.86228 8.41171Z" fill="#494949"/>
<path d="M12.4245 12.5344H6.26819C6.06482 12.5344 5.89844 12.7008 5.89844 12.9042C5.89844 13.1075 6.06482 13.2739 6.26819 13.2739H12.443C12.6463 13.2739 12.8127 13.1075 12.8127 12.9042C12.8127 12.7008 12.6463 12.5344 12.4245 12.5344Z" fill="#494949"/>
<path d="M4.86228 11.9058L3.95639 12.8117L3.60513 12.4605C3.45723 12.3126 3.23539 12.3126 3.08749 12.4605C2.93959 12.6084 2.93959 12.8302 3.08749 12.9781L3.69757 13.5882C3.77152 13.6621 3.86396 13.6991 3.95639 13.6991C4.04883 13.6991 4.14127 13.6621 4.21522 13.5882L5.37992 12.4235C5.52782 12.2756 5.52782 12.0537 5.37992 11.9058C5.23202 11.7579 5.01018 11.7579 4.86228 11.9058Z" fill="#494949"/>
<path d="M12.4245 16.0286H6.26819C6.06482 16.0286 5.89844 16.195 5.89844 16.3983C5.89844 16.6017 6.06482 16.7681 6.26819 16.7681H12.443C12.6463 16.7681 12.8127 16.6017 12.8127 16.3983C12.8127 16.195 12.6463 16.0286 12.4245 16.0286Z" fill="#494949"/>
<path d="M4.86228 15.3816L3.95639 16.2875L3.60513 15.9362C3.45723 15.7883 3.23539 15.7883 3.08749 15.9362C2.93959 16.0841 2.93959 16.3059 3.08749 16.4538L3.69757 17.0639C3.77152 17.1379 3.86396 17.1749 3.95639 17.1749C4.04883 17.1749 4.14127 17.1379 4.21522 17.0639L5.37992 15.8992C5.52782 15.7513 5.52782 15.5295 5.37992 15.3816C5.23202 15.2337 5.01018 15.2522 4.86228 15.3816Z" fill="#494949"/>
</svg>
