<svg width="42" height="42" viewBox="0 0 42 42" fill="none" xmlns="http://www.w3.org/2000/svg">
<path d="M41.1795 4.42969H4.42968C3.97663 4.42969 3.60938 4.79694 3.60938 5.25V9.35048C3.60938 9.80353 3.97663 10.1708 4.42968 10.1708C4.88274 10.1708 5.24999 9.80353 5.24999 9.35048V6.07031H10.2539V8.77733C10.2539 9.23038 10.6211 9.59764 11.0742 9.59764C11.5272 9.59764 11.8945 9.23038 11.8945 8.77733V6.07031H15.2578V8.77733C15.2578 9.23038 15.625 9.59764 16.0781 9.59764C16.5311 9.59764 16.8984 9.23038 16.8984 8.77733V6.07031H20.2617V33.2438C20.2617 33.6968 20.6289 34.0641 21.082 34.0641C21.535 34.0641 21.9023 33.6968 21.9023 33.2438V6.07031H25.2655V29.756C25.2655 30.2091 25.6328 30.5763 26.0858 30.5763C26.5389 30.5763 26.9062 30.2091 26.9062 29.756V6.07031H30.2694V33.2438C30.2694 33.6968 30.6367 34.0641 31.0897 34.0641C31.5428 34.0641 31.91 33.6968 31.91 33.2438V6.07031H35.3553V29.756C35.3553 30.2091 35.7226 30.5763 36.1757 30.5763C36.6287 30.5763 36.996 30.2091 36.996 29.756V6.07031H40.3592V35.9296H16.8984V33.2013C16.8984 32.7482 16.5311 32.381 16.0781 32.381C15.625 32.381 15.2578 32.7482 15.2578 33.2013V35.9296H11.8945V33.2013C11.8945 32.7482 11.5272 32.381 11.0742 32.381C10.6211 32.381 10.2539 32.7482 10.2539 33.2013V35.9296H5.24999V32.6473C5.24999 32.1943 4.88274 31.827 4.42968 31.827C3.97663 31.827 3.60938 32.1943 3.60938 32.6473V36.7499C3.60938 37.2029 3.97663 37.5702 4.42968 37.5702H41.1795C41.6326 37.5702 41.9998 37.2029 41.9998 36.7499V5.25C41.9998 4.79694 41.6326 4.42969 41.1795 4.42969Z" fill="#53B2E8"/>
<path d="M18.0048 20.4198L16.3556 18.7705C16.0352 18.4502 15.5158 18.4502 15.1955 18.7705C14.8752 19.0909 14.8751 19.6103 15.1955 19.9306L15.4445 20.1797H15.1571C15.1532 20.1797 15.1494 20.1797 15.1455 20.1797C14.3071 20.1797 13.4705 20.3807 12.7256 20.7612C11.678 21.2965 10.4269 21.2965 9.37925 20.7612C7.86414 19.9873 6.0552 19.9873 4.54008 20.7612C3.49247 21.2964 2.24141 21.2964 1.19372 20.7612C0.790123 20.5551 0.296133 20.7151 0.0899891 21.1186C-0.116155 21.522 0.0438877 22.0162 0.447316 22.2223C1.96243 22.9963 3.77137 22.9962 5.28648 22.2223C6.3341 21.6871 7.58524 21.6871 8.63293 22.2223C9.39049 22.6092 10.2215 22.8027 11.0525 22.8027C11.8835 22.8027 12.7145 22.6092 13.4721 22.2223C13.9894 21.9581 14.5703 21.8205 15.1554 21.8204H15.4444L15.1956 22.0692C14.8752 22.3894 14.8752 22.9088 15.1955 23.2291C15.3557 23.3894 15.5656 23.4694 15.7755 23.4694C15.9854 23.4694 16.1954 23.3894 16.3556 23.2291L18.0048 21.5799C18.3251 21.2596 18.3251 20.7402 18.0048 20.4198Z" fill="#53B2E8"/>
<path d="M18.0048 27.0064L16.348 25.3497C16.0277 25.0292 15.5083 25.0293 15.1879 25.3497C14.8676 25.67 14.8675 26.1894 15.1879 26.5097L15.4445 26.7663H15.1571C15.1532 26.7663 15.1494 26.7663 15.1455 26.7663C14.3071 26.7663 13.4705 26.9673 12.7256 27.3478C11.678 27.8831 10.4269 27.883 9.37925 27.3478C7.86414 26.5739 6.0552 26.5739 4.54009 27.3478C3.49247 27.883 2.24141 27.883 1.19372 27.3478C0.790123 27.1416 0.296133 27.3017 0.0899891 27.7052C-0.116155 28.1086 0.0438877 28.6027 0.447316 28.8089C1.96243 29.5829 3.77137 29.5828 5.28648 28.8089C6.33394 28.2735 7.58507 28.2735 8.63277 28.8087C9.39033 29.1957 10.2213 29.3892 11.0524 29.3892C11.8833 29.3892 12.7144 29.1957 13.4719 28.8087C13.9892 28.5445 14.5701 28.408 15.1552 28.4069H15.4442L15.1879 28.6631C14.8676 28.9835 14.8676 29.5029 15.1879 29.8233C15.3482 29.9835 15.5581 30.0636 15.768 30.0636C15.9779 30.0636 16.1879 29.9835 16.348 29.8233L18.0048 28.1665C18.3251 27.8462 18.3251 27.3268 18.0048 27.0064Z" fill="#53B2E8"/>
<path d="M18.0049 13.7979L16.3964 12.1895C16.0761 11.8691 15.5567 11.8691 15.2363 12.1895C14.9159 12.5098 14.9159 13.0292 15.2363 13.3496L15.4446 13.5579H15.1571C15.1533 13.5579 15.1494 13.5579 15.1456 13.5579C14.3071 13.5579 13.4706 13.7589 12.7256 14.1393C11.6779 14.6746 10.4269 14.6745 9.37927 14.1393C7.86424 13.3654 6.05521 13.3654 4.5401 14.1393C3.4924 14.6745 2.24151 14.6746 1.19373 14.1393C0.790138 13.9332 0.296148 14.0932 0.0900043 14.4967C-0.116139 14.9002 0.0438209 15.3941 0.447331 15.6002C1.96236 16.3742 3.77131 16.3743 5.2865 15.6002C6.3342 15.0651 7.58525 15.0651 8.63295 15.6002C9.39059 15.9872 10.2214 16.1808 11.0525 16.1808C11.8834 16.1807 12.7146 15.9872 13.4721 15.6002C13.9869 15.3372 14.5653 15.1984 15.1473 15.1984C15.15 15.1984 15.1527 15.1984 15.1554 15.1984H15.4444L15.2364 15.4064C14.916 15.7267 14.916 16.2461 15.2364 16.5665C15.3966 16.7267 15.6065 16.8067 15.8164 16.8067C16.0263 16.8067 16.2363 16.7266 16.3964 16.5665L18.0049 14.958C18.3252 14.6377 18.3252 14.1183 18.0049 13.7979Z" fill="#53B2E8"/>
<path d="M36.7557 32.6632C36.6032 32.5106 36.3915 32.4229 36.1758 32.4229C35.96 32.4229 35.7484 32.5106 35.5958 32.6632C35.4432 32.8158 35.3555 33.0274 35.3555 33.2432C35.3555 33.4589 35.4432 33.6705 35.5958 33.8231C35.7484 33.9757 35.96 34.0635 36.1758 34.0635C36.3915 34.0635 36.6032 33.9757 36.7557 33.8231C36.9083 33.6705 36.9961 33.4589 36.9961 33.2432C36.9961 33.0274 36.9083 32.8158 36.7557 32.6632Z" fill="#53B2E8"/>
<path d="M26.6659 32.6632C26.5133 32.5106 26.3017 32.4229 26.0859 32.4229C25.8702 32.4229 25.6586 32.5106 25.506 32.6632C25.3534 32.8158 25.2656 33.0274 25.2656 33.2432C25.2656 33.4589 25.3534 33.6705 25.506 33.8231C25.6586 33.9757 25.8702 34.0635 26.0859 34.0635C26.3017 34.0635 26.5133 33.9757 26.6659 33.8231C26.8185 33.6705 26.9062 33.4589 26.9062 33.2432C26.9062 33.0274 26.8185 32.8158 26.6659 32.6632Z" fill="#53B2E8"/>
</svg>
