<svg width="15" height="8" viewBox="0 0 15 8" fill="none" xmlns="http://www.w3.org/2000/svg">
<path d="M7.99875 0.998748C8.2324 0.998291 8.45884 1.07967 8.63875 1.22875L14.6387 6.22875C14.843 6.39849 14.9714 6.6424 14.9958 6.90682C15.0201 7.17125 14.9385 7.43453 14.7687 7.63875C14.599 7.84296 14.3551 7.97139 14.0907 7.99577C13.8262 8.02015 13.563 7.93849 13.3587 7.76875L7.99875 3.28875L2.63875 7.60875C2.53646 7.69181 2.41876 7.75385 2.29242 7.79128C2.16609 7.82871 2.03359 7.8408 1.90257 7.82686C1.77154 7.81292 1.64456 7.77323 1.52892 7.71005C1.41328 7.64688 1.31127 7.56147 1.22875 7.45875C1.13717 7.35593 1.06781 7.2353 1.02502 7.10443C0.982224 6.97355 0.966921 6.83525 0.980063 6.69819C0.993206 6.56113 1.03451 6.42825 1.1014 6.3079C1.16828 6.18754 1.2593 6.08229 1.36875 5.99875L7.36875 1.16875C7.55383 1.04323 7.77565 0.983377 7.99875 0.998748Z" fill="#494949"/>
</svg>
