<svg width="17" height="17" viewBox="0 0 17 17" fill="none" xmlns="http://www.w3.org/2000/svg">
<path d="M6.75113 5.84375H4.25C3.40462 5.84375 2.59387 6.17957 1.9961 6.77735C1.39832 7.37512 1.0625 8.18587 1.0625 9.03125C1.0625 9.87663 1.39832 10.6874 1.9961 11.2852C2.59387 11.8829 3.40462 12.2187 4.25 12.2187H7.4375C7.94758 12.219 8.45027 12.0969 8.90336 11.8626C9.35644 11.6283 9.74667 11.2886 10.0413 10.8722C10.3359 10.4558 10.5262 9.97481 10.5964 9.46958C10.6665 8.96435 10.6144 8.44966 10.4444 7.96875H9.5625C9.47112 7.96875 9.38188 7.97937 9.29688 8.00169C9.47606 8.32522 9.56771 8.68993 9.56275 9.05974C9.55779 9.42955 9.4564 9.79167 9.2686 10.1103C9.0808 10.4289 8.8131 10.693 8.49195 10.8764C8.17081 11.0599 7.80735 11.1563 7.4375 11.1562H4.25C3.68641 11.1562 3.14591 10.9324 2.7474 10.5339C2.34888 10.1353 2.125 9.59483 2.125 9.03125C2.125 8.46766 2.34888 7.92716 2.7474 7.52865C3.14591 7.13013 3.68641 6.90625 4.25 6.90625H5.88094C6.11256 6.50675 6.40688 6.14762 6.75219 5.84375H6.75113Z" fill="#53B2E8"/>
<path d="M9.56417 5.84375C9.05409 5.84348 8.5514 5.96563 8.09832 6.19994C7.64524 6.43424 7.255 6.77386 6.9604 7.19026C6.6658 7.60666 6.47543 8.08769 6.40528 8.59292C6.33514 9.09815 6.38727 9.61284 6.5573 10.0938H7.72392C7.53742 9.77071 7.43923 9.40427 7.43923 9.03126C7.43922 8.65825 7.53741 8.29181 7.72391 7.96877C7.91041 7.64573 8.17866 7.37748 8.50169 7.19097C8.82472 7.00445 9.19116 6.90626 9.56417 6.90625H12.7517C13.3153 6.90625 13.8558 7.13013 14.2543 7.52865C14.6528 7.92716 14.8767 8.46767 14.8767 9.03125C14.8767 9.59484 14.6528 10.1353 14.2543 10.5339C13.8558 10.9324 13.3153 11.1563 12.7517 11.1563H11.1207C10.8896 11.5551 10.5953 11.9139 10.2495 12.2188H12.7517C13.1703 12.2188 13.5848 12.1363 13.9715 11.9761C14.3582 11.8159 14.7096 11.5811 15.0056 11.2852C15.3016 10.9892 15.5364 10.6378 15.6965 10.2511C15.8567 9.86433 15.9392 9.44984 15.9392 9.03125C15.9392 8.61266 15.8567 8.19817 15.6965 7.81145C15.5364 7.42472 15.3016 7.07333 15.0056 6.77735C14.7096 6.48136 14.3582 6.24657 13.9715 6.08638C13.5848 5.9262 13.1703 5.84375 12.7517 5.84375H9.56417Z" fill="#53B2E8"/>
</svg>
