<svg width="24" height="21" viewBox="0 0 24 21" fill="none" xmlns="http://www.w3.org/2000/svg">
<path d="M20.2459 7.33431H19.7437V3.75405C19.7437 2.23122 18.5125 1 16.9897 1H3.75405C2.23122 1 1 2.23122 1 3.75405V9.65096C1 11.1738 2.23122 12.405 3.75405 12.405H4.46686V15.2077C4.46686 15.3535 4.56406 15.4831 4.69367 15.5155C4.72607 15.5317 4.75847 15.5317 4.79087 15.5317C4.90427 15.5317 5.00147 15.4831 5.06627 15.3859L7.04271 12.405H7.48012V14.3814C7.48012 15.9043 8.71134 17.1355 10.2342 17.1355H16.9573L18.9337 20.1163C18.9985 20.2135 19.0957 20.2621 19.2091 20.2621C19.2415 20.2621 19.2739 20.2621 19.3063 20.2459C19.4359 20.1973 19.5331 20.0839 19.5331 19.9381V17.1355H20.2459C21.7688 17.1355 23 15.9043 23 14.3814V10.0884C22.9838 8.56554 21.7526 7.33431 20.2459 7.33431ZM6.86451 11.7408C6.7511 11.7408 6.6539 11.7894 6.5891 11.8866L5.11487 14.1222V12.0648C5.11487 11.8866 4.96907 11.7408 4.79087 11.7408H3.75405C2.60383 11.7408 1.64801 10.8012 1.64801 9.63476V3.75405C1.64801 2.60383 2.58763 1.64801 3.75405 1.64801H17.0059C18.1561 1.64801 19.1119 2.58763 19.1119 3.75405V9.65096C19.1119 10.8012 18.1723 11.757 17.0059 11.757H6.86451V11.7408ZM22.3358 14.3652C22.3358 15.5155 21.3962 16.4713 20.2297 16.4713H19.1929C19.0147 16.4713 18.8689 16.6171 18.8689 16.7953V18.8527L17.3947 16.6171C17.3299 16.5199 17.2327 16.4713 17.1193 16.4713H10.2342C9.08395 16.4713 8.12813 15.5317 8.12813 14.3652V12.3888H16.9897C18.5125 12.3888 19.7437 11.1576 19.7437 9.63476V7.98233H20.2459C21.3962 7.98233 22.352 8.92194 22.352 10.0884V14.3652H22.3358Z" stroke="white" stroke-width="0.648012" stroke-miterlimit="10"/>
<path d="M16.5826 4.02832H4.62674C4.44854 4.02832 4.30273 4.17412 4.30273 4.35233C4.30273 4.53053 4.44854 4.67633 4.62674 4.67633H16.5988C16.777 4.67633 16.9228 4.53053 16.9228 4.35233C16.9228 4.17412 16.7608 4.02832 16.5826 4.02832Z" stroke="white" stroke-width="0.648012" stroke-miterlimit="10"/>
<path d="M16.5826 6.2168H4.62674C4.44854 6.2168 4.30273 6.3626 4.30273 6.5408C4.30273 6.71901 4.44854 6.86481 4.62674 6.86481H16.5988C16.777 6.86481 16.9228 6.71901 16.9228 6.5408C16.9228 6.3626 16.7608 6.2168 16.5826 6.2168Z" stroke="white" stroke-width="0.648012" stroke-miterlimit="10"/>
<path d="M16.5826 8.4043H4.62674C4.44854 8.4043 4.30273 8.5501 4.30273 8.7283C4.30273 8.90651 4.44854 9.05231 4.62674 9.05231H16.5988C16.777 9.05231 16.9228 8.90651 16.9228 8.7283C16.9228 8.5501 16.7608 8.4043 16.5826 8.4043Z" stroke="white" stroke-width="0.648012" stroke-miterlimit="10"/>
</svg>
