<?xml version="1.0" encoding="utf-8"?>
<!-- Generator: Adobe Illustrator 22.0.1, SVG Export Plug-In . SVG Version: 6.00 Build 0)  -->
<svg version="1.1" id="Layer_1" xmlns="http://www.w3.org/2000/svg" xmlns:xlink="http://www.w3.org/1999/xlink" x="0px" y="0px"
	 viewBox="0 0 24 24" style="enable-background:new 0 0 24 24;" xml:space="preserve">
<style type="text/css">
	.st0{fill:#008000;}
</style>
<path class="st0" d="M12,0C9.6,0,7.3,0.7,5.3,2c-2,1.3-3.5,3.2-4.4,5.4C0,9.6-0.2,12,0.2,14.3s1.6,4.5,3.3,6.1s3.8,2.8,6.1,3.3
	c2.3,0.5,4.7,0.2,6.9-0.7c2.2-0.9,4.1-2.4,5.4-4.4c1.3-2,2-4.3,2-6.7c0-3.2-1.3-6.2-3.5-8.5C18.2,1.3,15.2,0,12,0L12,0z M10,17.4
	L4.6,12L6,10.6l4,4l8-8L19.4,8L10,17.4z"/>
</svg>
