<svg width="51" height="72" viewBox="0 0 51 72" fill="none" xmlns="http://www.w3.org/2000/svg">
<path d="M48.4896 38.7682L39.0693 23.8527V17.8744H42.7529C43.4172 17.8744 43.9606 17.3309 43.9606 16.6667C43.9606 9.96376 38.5258 4.58936 31.8833 4.58936H18.1152H12.6804C12.0161 4.58936 11.4727 5.13283 11.4727 5.79709V11.2319C11.4727 11.8961 12.0161 12.4396 12.6804 12.4396H16.9074V24.6377C16.9074 25.302 17.4509 25.8454 18.1152 25.8454C21.5572 25.8454 24.335 23.0676 24.335 19.6256V17.9348H26.5089V23.9131L17.0886 38.7682C17.0282 38.8889 15.4582 41.3044 15.4582 44.7464V64.5532C15.4582 68.5387 18.719 71.7996 22.7046 71.7996H42.8133C46.7988 71.7996 50.0597 68.5387 50.0597 64.5532V44.7464C50.1201 41.3648 48.6104 38.9493 48.4896 38.7682ZM13.8881 10.0241V7.00482H16.9074V10.0241H13.8881ZM23.1273 15.4589C22.463 15.4589 21.9195 16.0024 21.9195 16.6667V19.5652C21.9195 21.2561 20.8326 22.7053 19.3229 23.1884V11.2319V7.00482H31.8833C36.835 7.00482 40.8809 10.6884 41.4848 15.4589H37.8616H27.7166H23.1273ZM36.6539 17.8744V23.0073H28.9244V17.8744H36.6539ZM47.7046 64.5532C47.7046 67.2102 45.5307 69.3842 42.8737 69.3842H22.7046C20.0475 69.3842 17.8736 67.2102 17.8736 64.5532V44.7464C17.8736 42.029 19.0814 40.0967 19.1418 40.0363L28.3809 25.4227H37.1973L46.4365 40.0363C46.4365 40.0363 47.7046 42.029 47.7046 44.7464V64.5532Z" fill="#C4C4C4"/>
<path d="M39.0106 45.2897H36.7763V43.0554C36.7763 42.3911 36.2329 41.8477 35.5686 41.8477H30.013C29.3488 41.8477 28.8053 42.3911 28.8053 43.0554V45.2897H26.571C25.9068 45.2897 25.3633 45.8332 25.3633 46.4974V52.053C25.3633 52.7172 25.9068 53.2607 26.571 53.2607H28.8053V55.5554C28.8053 56.2197 29.3488 56.7631 30.013 56.7631H35.5686C36.2329 56.7631 36.7763 56.2197 36.7763 55.5554V53.3211H39.0106C39.6749 53.3211 40.2184 52.7776 40.2184 52.1134V46.4974C40.2184 45.8332 39.6749 45.2897 39.0106 45.2897ZM37.8029 50.8453H35.5686C34.9044 50.8453 34.3609 51.3887 34.3609 52.053V54.3477H31.2208V52.1134C31.2208 51.4491 30.6773 50.9056 30.013 50.9056H27.7787V47.7052H30.013C30.6773 47.7052 31.2208 47.1617 31.2208 46.4974V44.2631H34.3609V46.4974C34.3609 47.1617 34.9044 47.7052 35.5686 47.7052H37.8029V50.8453Z" fill="#C4C4C4"/>
<path d="M7.91064 7.30664H1.20773C0.543479 7.30664 0 7.85012 0 8.51437C0 9.17862 0.543479 9.7221 1.20773 9.7221H7.91064C8.57489 9.7221 9.11837 9.17862 9.11837 8.51437C9.11837 7.85012 8.57489 7.30664 7.91064 7.30664Z" fill="#C4C4C4"/>
<path d="M1.02714 2.23416L6.82425 5.55542C7.00541 5.67619 7.24696 5.73658 7.42812 5.73658C7.85082 5.73658 8.27353 5.49504 8.45469 5.13272C8.81701 4.52885 8.57546 3.80421 8.03198 3.50228L2.23487 0.181019C1.69139 -0.181301 0.966755 -0.00014107 0.604436 0.603724C0.302503 1.20759 0.483663 1.93223 1.02714 2.23416Z" fill="#C4C4C4"/>
<path d="M6.82368 11.413L1.02658 14.7343C0.42271 15.0966 0.241551 15.8212 0.60387 16.3647C0.845416 16.727 1.20774 16.9686 1.63044 16.9686C1.8116 16.9686 2.05315 16.9082 2.23431 16.7874L8.03142 13.4661C8.63528 13.1038 8.81644 12.3792 8.45412 11.8357C8.15219 11.2922 7.42755 11.0507 6.82368 11.413Z" fill="#C4C4C4"/>
</svg>
