<svg width="71" height="43" viewBox="0 0 71 43" fill="none" xmlns="http://www.w3.org/2000/svg">
<path d="M70.8 18.2104C70.8 10.8922 66.8856 4.87869 61.8933 4.14119C61.6663 2.60946 61.0423 1.47485 60.0212 0.794079C58.2058 -0.510729 55.8231 0.11331 55.199 0.283502C47.3135 1.19119 35.5135 1.30466 35.4 1.30466C35.2865 1.30466 23.4298 1.13446 15.601 0.283502C14.9769 0.11331 12.5942 -0.510729 10.7788 0.794079C9.75769 1.53158 9.13365 2.66619 8.90673 4.14119C3.91442 4.87869 0 10.9489 0 18.2104C0 25.5287 3.85769 31.5422 8.85 32.2797C9.02019 33.5845 9.81442 36.1941 12.8779 37.3287C16.2817 38.5768 31.599 42.0373 35.4 42.0373C39.201 42.0373 54.5183 38.6335 57.9221 37.3287C60.9856 36.1941 61.7798 33.5845 61.95 32.2797C66.8856 31.5422 70.8 25.5287 70.8 18.2104ZM2.26923 18.2104C2.26923 12.3104 5.10577 7.37485 8.79327 6.52389V30.0104C5.10577 29.1027 2.26923 24.1672 2.26923 18.2104ZM59.7375 31.5989C59.7375 31.7123 59.6808 34.2652 57.1279 35.2297C53.6673 36.5345 38.5769 39.7681 35.4 39.7681C32.2231 39.7681 17.1327 36.4777 13.6721 35.2297C11.1192 34.2652 11.0625 31.7123 11.0625 31.5989V5.55946C11.0625 4.08446 11.4029 3.12004 12.0837 2.66619C12.4808 2.38254 13.0481 2.26908 13.5587 2.26908C14.1827 2.26908 14.75 2.38254 14.9769 2.496C15.0337 2.55273 15.1471 2.55273 15.2038 2.55273C23.2029 3.46043 35.2298 3.57389 35.4 3.63062C35.5135 3.63062 47.5971 3.46043 55.5394 2.55273C55.6529 2.55273 55.7096 2.496 55.7663 2.496C55.7663 2.496 57.5817 1.87196 58.6596 2.66619C59.3404 3.12004 59.6808 4.14119 59.6808 5.55946V31.5989H59.7375ZM62.0067 29.9537V6.52389C65.6942 7.37485 68.5308 12.3104 68.5308 18.2672C68.5308 24.2239 65.6942 29.1027 62.0067 29.9537Z" fill="#C4C4C4"/>
<path d="M16.5097 11.2891C17.0203 11.3458 28.9337 12.991 35.401 12.991C41.8683 12.991 53.7818 11.3458 54.2924 11.2891C54.9164 11.1756 55.3703 10.6083 55.2568 9.9843C55.1433 9.36027 54.576 8.90642 53.952 9.01988C53.8385 9.01988 41.6982 10.6651 35.3443 10.6651C28.9905 10.6651 16.9068 9.07661 16.7933 9.01988C16.1693 8.90642 15.602 9.36027 15.4885 9.9843C15.3751 10.6083 15.8857 11.1756 16.5097 11.2891Z" fill="#C4C4C4"/>
<path d="M53.8937 25.302C53.7235 25.3587 41.81 28.3654 35.3994 28.3654C28.9888 28.3654 17.0754 25.302 16.9052 25.302C16.2812 25.1318 15.6571 25.5289 15.5437 26.0962C15.3735 26.7202 15.7706 27.3443 16.3379 27.4577C16.8485 27.5712 28.7052 30.5779 35.3427 30.5779C42.0369 30.5779 53.8937 27.5712 54.4042 27.4577C55.0283 27.2875 55.3687 26.6635 55.1985 26.0962C55.085 25.5289 54.461 25.1318 53.8937 25.302Z" fill="#C4C4C4"/>
<path d="M54.0082 17.1327C53.8381 17.1327 39.1448 18.8346 35.4006 18.8346C31.6563 18.8346 16.9063 17.1327 16.7929 17.1327C16.1688 17.0759 15.6015 17.5298 15.5448 18.1538C15.4313 18.7211 15.8852 19.2884 16.5092 19.3452C17.1332 19.4019 31.4861 21.0471 35.4006 21.0471C39.315 21.0471 53.6679 19.4019 54.2919 19.3452C54.9159 19.2884 55.3698 18.7211 55.3131 18.0971C55.1996 17.4731 54.6323 17.0192 54.0082 17.1327Z" fill="#C4C4C4"/>
</svg>
