<?xml version="1.0" encoding="utf-8"?>
<!-- Generator: Adobe Illustrator 24.3.0, SVG Export Plug-In . SVG Version: 6.00 Build 0)  -->
<svg version="1.1" id="Capa_3" xmlns="http://www.w3.org/2000/svg" xmlns:xlink="http://www.w3.org/1999/xlink" x="0px" y="0px"
	 viewBox="0 0 16 16" style="enable-background:new 0 0 16 16;" xml:space="preserve">
<style type="text/css">
	.st0{fill:#777CEA;}
	.st1{fill:#FFC658;}
	.st2{fill:#77C6E9;}
	.st3{fill:#FA627D;}
	.st4{fill:#F99964;}
</style>
<circle class="st0" cx="13.66" cy="3.5" r="0.93"/>
<g>
	<g>
		<path class="st1" d="M5.33,12.28c-0.54,0-0.98-0.44-0.99-0.98c0-0.02-0.06-2.88-2.18-5.05c-0.38-0.39-0.38-1.01,0.01-1.4
			c0.39-0.38,1.01-0.38,1.4,0.01c2.7,2.75,2.75,6.27,2.75,6.42C6.32,11.83,5.88,12.27,5.33,12.28C5.34,12.28,5.33,12.28,5.33,12.28z
			"/>
	</g>
</g>
<g>
	<g>
		<path class="st2" d="M9.44,12.28c-0.52,0-0.96-0.41-0.99-0.93c-0.01-0.14-0.15-3.37,2.73-6.46c0.37-0.4,1-0.42,1.4-0.05
			c0.4,0.37,0.42,1,0.05,1.4c-2.31,2.48-2.2,4.98-2.2,5.01c0.03,0.54-0.39,1.01-0.93,1.04C9.48,12.28,9.46,12.28,9.44,12.28z"/>
	</g>
</g>
<g>
	<g>
		<path class="st3" d="M9.46,12.28c-0.55,0-0.99-0.44-0.99-0.99c0-1.07-0.67-1.95-1.01-1.95c-0.45,0-1.17,0.89-1.17,1.95
			c0,0.55-0.44,0.99-0.99,0.99s-0.99-0.44-0.99-0.99c0-1.85,1.29-3.92,3.14-3.92c1.76,0,2.98,2.07,2.98,3.93
			C10.45,11.83,10.01,12.28,9.46,12.28z"/>
	</g>
</g>
<path class="st4" d="M6.3,11.28c0-0.07,0-0.14,0.01-0.22C6.28,10.6,6.16,9.46,5.65,8.12c-0.77,0.72-1.26,1.86-1.32,2.95
	c0.01,0.14,0.01,0.22,0.01,0.22c0,0.4,0.25,0.75,0.59,0.9c0.12,0.05,0.24,0.08,0.38,0.08C5.86,12.27,6.3,11.83,6.3,11.28z"/>
<path class="st0" d="M9.13,8.07C8.59,9.4,8.48,10.5,8.46,11.02c0.01,0.09,0.02,0.18,0.02,0.27c0,0.54,0.44,0.99,0.98,0.99
	c0,0,0.01,0,0.01,0c0.02,0,0.05-0.01,0.07-0.01c0.52-0.05,0.92-0.5,0.89-1.03c0,0,0-0.1,0.01-0.28C10.35,9.87,9.87,8.76,9.13,8.07z"
	/>
</svg>
