<svg width="16" height="17" viewBox="0 0 16 17" fill="none" xmlns="http://www.w3.org/2000/svg">
<path d="M8 0.5C3.58933 0.5 0 4.08933 0 8.5C0 12.9107 3.58933 16.5 8 16.5C12.4107 16.5 16 12.9107 16 8.5C16 4.08933 12.4107 0.5 8 0.5ZM8 1.83333C11.69 1.83333 14.6667 4.81 14.6667 8.5C14.6683 10.096 14.096 11.6393 13.0542 12.8484C12.0125 14.0575 10.5707 14.8517 8.992 15.086V10.444H10.8907L11.1887 8.51533H8.992V7.462C8.992 6.662 9.25533 5.95067 10.004 5.95067H11.2073V4.268C10.996 4.23933 10.5487 4.17733 9.70333 4.17733C7.938 4.17733 6.90333 5.10933 6.90333 7.23333V8.51533H5.08867V10.444H6.90333V15.0693C5.3465 14.8131 3.93149 14.0117 2.91113 12.8082C1.89076 11.6048 1.33153 10.0778 1.33333 8.5C1.33333 4.81 4.31 1.83333 8 1.83333Z" fill="#494949"/>
</svg>
