<svg width="26" height="17" viewBox="0 0 26 17" fill="none" xmlns="http://www.w3.org/2000/svg">
<path d="M22.4863 7.50955C23.2477 6.97453 23.7519 6.08454 23.7519 5.08138C23.7519 3.4403 22.4246 2.11304 20.7835 2.11304C19.1425 2.11304 17.8152 3.4403 17.8152 5.08138C17.8152 6.08454 18.3142 6.97453 19.0807 7.50955C18.4274 7.73591 17.8306 8.08573 17.3265 8.53844C16.632 7.94683 15.814 7.49412 14.9189 7.22661C16.0044 6.56812 16.7349 5.36947 16.7349 4.00619C16.7349 1.92784 15.0526 0.245605 12.9743 0.245605C10.8959 0.245605 9.21369 1.93298 9.21369 4.00619C9.21369 5.36947 9.93906 6.56812 11.0297 7.22661C10.1448 7.49412 9.33716 7.94169 8.6478 8.52301C8.14365 8.08059 7.55718 7.73591 6.91413 7.5147C7.6755 6.97968 8.17966 6.08969 8.17966 5.08652C8.17966 3.44545 6.85239 2.11818 5.21132 2.11818C3.57024 2.11818 2.24298 3.44545 2.24298 5.08652C2.24298 6.08969 2.74199 6.97968 3.50851 7.5147C1.46617 8.21949 0 10.1589 0 12.4379V12.7775C0 12.7877 0.0102889 12.798 0.0205778 12.798H6.31223C6.27622 13.081 6.25564 13.3742 6.25564 13.6674V14.0173C6.25564 15.5297 7.48002 16.7541 8.99248 16.7541H16.9664C18.4788 16.7541 19.7032 15.5297 19.7032 14.0173V13.6674C19.7032 13.3742 19.6826 13.081 19.6466 12.798H25.9794C25.9897 12.798 26 12.7877 26 12.7775V12.4379C25.9897 10.1538 24.5287 8.21434 22.4863 7.50955ZM18.6383 5.07623C18.6383 3.89301 19.6003 2.931 20.7835 2.931C21.9668 2.931 22.9288 3.89301 22.9288 5.07623C22.9288 6.24402 21.9873 7.19574 20.8247 7.22147C20.8093 7.22147 20.799 7.22147 20.7835 7.22147C20.7681 7.22147 20.7578 7.22147 20.7424 7.22147C19.5746 7.20089 18.6383 6.24917 18.6383 5.07623ZM10.0265 4.00619C10.0265 2.38569 11.3435 1.06872 12.964 1.06872C14.5845 1.06872 15.9015 2.38569 15.9015 4.00619C15.9015 5.5701 14.6719 6.85107 13.1338 6.93852C13.0772 6.93852 13.0206 6.93852 12.964 6.93852C12.9074 6.93852 12.8508 6.93852 12.7942 6.93852C11.256 6.85107 10.0265 5.5701 10.0265 4.00619ZM3.05065 5.07623C3.05065 3.89301 4.01266 2.931 5.19588 2.931C6.37911 2.931 7.34112 3.89301 7.34112 5.07623C7.34112 6.24402 6.39968 7.19574 5.23704 7.22147C5.22161 7.22147 5.21132 7.22147 5.19588 7.22147C5.18045 7.22147 5.17016 7.22147 5.15473 7.22147C3.99209 7.20089 3.05065 6.24917 3.05065 5.07623ZM6.45627 11.9698H0.833399C1.0649 9.77825 2.9169 8.06001 5.16502 8.04458C5.17531 8.04458 5.1856 8.04458 5.19588 8.04458C5.20617 8.04458 5.21646 8.04458 5.22675 8.04458C6.29679 8.04972 7.27424 8.44584 8.03047 9.0889C7.28967 9.89143 6.73922 10.8792 6.45627 11.9698ZM18.8698 14.0173C18.8698 15.0719 18.0107 15.931 16.9561 15.931H8.98219C7.92758 15.931 7.06846 15.0719 7.06846 14.0173V13.6674C7.06846 10.4728 9.6201 7.85938 12.7942 7.76678C12.8508 7.77192 12.9125 7.77192 12.9691 7.77192C13.0257 7.77192 13.0875 7.77192 13.144 7.76678C16.3182 7.85938 18.8698 10.4728 18.8698 13.6674V14.0173ZM19.482 11.9698C19.1991 10.8843 18.6589 9.91201 17.9232 9.10947C18.6846 8.45099 19.6723 8.05487 20.7527 8.04458C20.763 8.04458 20.7732 8.04458 20.7835 8.04458C20.7938 8.04458 20.8041 8.04458 20.8144 8.04458C23.0625 8.06001 24.9145 9.77825 25.146 11.9698H19.482Z" fill="#494949"/>
</svg>
