<svg width="23" height="23" viewBox="0 0 23 23" fill="none" xmlns="http://www.w3.org/2000/svg">
<path d="M20.205 22.379H2.79962C2.55232 22.379 2.31516 22.2808 2.14029 22.1059C1.96543 21.9311 1.86719 21.6939 1.86719 21.4466V9.32497C1.86719 9.24254 1.89993 9.16348 1.95822 9.10519C2.01651 9.04691 2.09557 9.01416 2.178 9.01416C2.26043 9.01416 2.33949 9.04691 2.39777 9.10519C2.45606 9.16348 2.48881 9.24254 2.48881 9.32497V21.4466C2.48881 21.529 2.52156 21.6081 2.57984 21.6664C2.63813 21.7247 2.71719 21.7574 2.79962 21.7574H20.205C20.2875 21.7574 20.3665 21.7247 20.4248 21.6664C20.4831 21.6081 20.5158 21.529 20.5158 21.4466V9.32497C20.5158 9.24254 20.5486 9.16348 20.6069 9.10519C20.6652 9.04691 20.7442 9.01416 20.8266 9.01416C20.9091 9.01416 20.9881 9.04691 21.0464 9.10519C21.1047 9.16348 21.1375 9.24254 21.1375 9.32497V21.4466C21.1375 21.6939 21.0392 21.9311 20.8644 22.1059C20.6895 22.2808 20.4523 22.379 20.205 22.379Z" fill="#494949"/>
<path d="M21.7601 9.63455H16.2619C16.1795 9.63455 16.1004 9.60181 16.0421 9.54352C15.9838 9.48523 15.9511 9.40618 15.9511 9.32374C15.9511 9.24131 15.9838 9.16226 16.0421 9.10397C16.1004 9.04568 16.1795 9.01293 16.2619 9.01293H21.7601V5.90482H1.24662V9.01293H6.74487C6.8273 9.01293 6.90635 9.04568 6.96464 9.10397C7.02293 9.16226 7.05568 9.24131 7.05568 9.32374C7.05568 9.40618 7.02293 9.48523 6.96464 9.54352C6.90635 9.60181 6.8273 9.63455 6.74487 9.63455H1.24662C1.08176 9.63455 0.923645 9.56906 0.807069 9.45249C0.690492 9.33591 0.625 9.1778 0.625 9.01293V5.90482C0.625 5.73996 0.690492 5.58185 0.807069 5.46527C0.923645 5.3487 1.08176 5.2832 1.24662 5.2832H21.7601C21.925 5.2832 22.0831 5.3487 22.1997 5.46527C22.3163 5.58185 22.3818 5.73996 22.3818 5.90482V9.01293C22.3818 9.1778 22.3163 9.33591 22.1997 9.45249C22.0831 9.56906 21.925 9.63455 21.7601 9.63455Z" fill="#494949"/>
<path d="M11.502 5.90496C11.4472 5.90492 11.3933 5.89038 11.346 5.86283C11.2986 5.83527 11.2593 5.79567 11.2322 5.74805C11.205 5.70043 11.191 5.64647 11.1914 5.59166C11.1919 5.53685 11.2068 5.48313 11.2347 5.43595C11.9163 4.28222 13.6024 1.539 14.5339 0.983272C14.8215 0.800601 15.1428 0.677439 15.4788 0.621068C15.8148 0.564697 16.1587 0.576261 16.4901 0.655076C16.8215 0.733891 17.1338 0.878357 17.4085 1.07993C17.6831 1.28151 17.9146 1.53611 18.0891 1.82867C18.2637 2.12124 18.3778 2.44583 18.4248 2.78326C18.4718 3.1207 18.4506 3.46412 18.3626 3.79323C18.2745 4.12235 18.1214 4.43047 17.9122 4.69938C17.703 4.9683 17.4421 5.19254 17.1448 5.35887C16.7649 5.58576 15.9948 5.76883 14.8544 5.90279C14.8134 5.9084 14.7718 5.90579 14.7319 5.89511C14.6919 5.88444 14.6546 5.86591 14.6219 5.84061C14.5892 5.81531 14.5619 5.78374 14.5416 5.74777C14.5212 5.71179 14.5083 5.67212 14.5035 5.63107C14.4987 5.59003 14.5021 5.54844 14.5135 5.50873C14.525 5.46902 14.5442 5.432 14.5702 5.39982C14.5961 5.36764 14.6282 5.34096 14.6646 5.32134C14.7009 5.30171 14.7408 5.28953 14.782 5.28552C16.1617 5.12327 16.6546 4.92777 16.8259 4.82552C17.0445 4.69562 17.2352 4.52358 17.3868 4.31939C17.5385 4.1152 17.648 3.88292 17.7092 3.63604C17.8016 3.26676 17.7825 2.87837 17.6542 2.51995C17.526 2.16153 17.2944 1.84918 16.9886 1.62238C16.6829 1.39558 16.3168 1.26452 15.9366 1.24575C15.5563 1.22698 15.1791 1.32135 14.8525 1.51693C14.1917 1.91135 12.827 3.96333 11.7699 5.75204C11.7424 5.79865 11.7032 5.83727 11.6563 5.86409C11.6093 5.89091 11.5561 5.905 11.502 5.90496Z" fill="#494949"/>
<path d="M11.5009 5.90496C11.4468 5.90503 11.3937 5.89099 11.3467 5.86422C11.2997 5.83746 11.2605 5.7989 11.233 5.75235C10.1762 3.96333 8.81116 1.91135 8.15068 1.51725C7.93323 1.37725 7.68981 1.28246 7.43495 1.23852C7.18009 1.19458 6.91898 1.20239 6.6672 1.26149C6.41542 1.32059 6.17811 1.42977 5.96942 1.58252C5.76072 1.73527 5.58491 1.92846 5.45245 2.15059C5.32 2.37272 5.23361 2.61924 5.19844 2.87546C5.16327 3.13169 5.18003 3.39237 5.24773 3.64197C5.31543 3.89158 5.43268 4.125 5.5925 4.32834C5.75231 4.53167 5.95142 4.70076 6.17797 4.82552C6.34891 4.92777 6.84186 5.12327 8.22186 5.28552C8.26299 5.28953 8.3029 5.30171 8.33927 5.32134C8.37564 5.34096 8.40773 5.36764 8.43366 5.39982C8.45959 5.432 8.47885 5.46902 8.4903 5.50873C8.50175 5.54844 8.50517 5.59003 8.50035 5.63107C8.49554 5.67212 8.48258 5.71179 8.46225 5.74777C8.44192 5.78374 8.41462 5.81531 8.38194 5.84061C8.34927 5.86591 8.31188 5.88444 8.27196 5.89511C8.23203 5.90579 8.19038 5.9084 8.14944 5.90279C7.0097 5.76883 6.23889 5.58576 5.85907 5.35887C5.56175 5.19254 5.30079 4.9683 5.09161 4.69938C4.88244 4.43047 4.72931 4.12235 4.64127 3.79323C4.55322 3.46412 4.53206 3.1207 4.57902 2.78326C4.62598 2.44583 4.74012 2.12124 4.91468 1.82867C5.08925 1.53611 5.3207 1.28151 5.59535 1.07993C5.87001 0.878357 6.18228 0.733891 6.51373 0.655076C6.84517 0.576261 7.18905 0.564697 7.52504 0.621068C7.86103 0.677439 8.18231 0.800601 8.46989 0.983272C9.40232 1.539 11.0869 4.28222 11.7688 5.43595C11.7968 5.48317 11.8117 5.53695 11.8121 5.59182C11.8125 5.64668 11.7984 5.70068 11.7712 5.74832C11.744 5.79596 11.7046 5.83555 11.6572 5.86306C11.6097 5.89057 11.5558 5.90503 11.5009 5.90496Z" fill="#494949"/>
<path d="M13.0517 22.3781H9.94362C9.86119 22.3781 9.78214 22.3454 9.72385 22.2871C9.66556 22.2288 9.63281 22.1497 9.63281 22.0673V9.05056C9.63281 8.96812 9.66556 8.88907 9.72385 8.83078C9.78214 8.77249 9.86119 8.73975 9.94362 8.73975C10.0261 8.73975 10.1051 8.77249 10.1634 8.83078C10.2217 8.88907 10.2544 8.96812 10.2544 9.05056V21.7565H12.7409V9.05056C12.7409 8.96812 12.7737 8.88907 12.832 8.83078C12.8902 8.77249 12.9693 8.73975 13.0517 8.73975C13.1342 8.73975 13.2132 8.77249 13.2715 8.83078C13.3298 8.88907 13.3625 8.96812 13.3625 9.05056V22.0673C13.3625 22.1497 13.3298 22.2288 13.2715 22.2871C13.2132 22.3454 13.1342 22.3781 13.0517 22.3781Z" fill="#494949"/>
<path d="M13.034 9.32475H9.96316C9.88072 9.32475 9.80167 9.292 9.74338 9.23371C9.68509 9.17542 9.65234 9.09637 9.65234 9.01394C9.65234 8.9315 9.68509 8.85245 9.74338 8.79416C9.80167 8.73587 9.88072 8.70312 9.96316 8.70312H13.034C13.1164 8.70312 13.1955 8.73587 13.2537 8.79416C13.312 8.85245 13.3448 8.9315 13.3448 9.01394C13.3448 9.09637 13.312 9.17542 13.2537 9.23371C13.1955 9.292 13.1164 9.32475 13.034 9.32475Z" fill="#494949"/>
<path d="M14.5169 12.6066C14.457 12.6066 14.3984 12.5893 14.3481 12.5568C14.2978 12.5242 14.258 12.4779 14.2335 12.4232L11.2211 5.72123C11.1885 5.64625 11.1867 5.56144 11.2163 5.48519C11.2458 5.40894 11.3041 5.34738 11.3787 5.31386C11.4533 5.28033 11.538 5.27754 11.6146 5.30609C11.6913 5.33464 11.7535 5.39222 11.788 5.46637L14.465 11.4221L14.866 10.1434C14.8791 10.1015 14.901 10.0628 14.9301 10.03C14.9593 9.99709 14.9951 9.97078 15.0352 9.95278C15.0753 9.93477 15.1188 9.92548 15.1627 9.9255C15.2067 9.92552 15.2501 9.93487 15.2902 9.95292L16.462 10.4813L14.2356 5.72589C14.2183 5.68891 14.2085 5.64889 14.2066 5.6081C14.2048 5.56731 14.211 5.52656 14.2249 5.48818C14.2388 5.44979 14.2602 5.41452 14.2877 5.38438C14.3152 5.35424 14.3485 5.32982 14.3854 5.31251C14.4224 5.29521 14.4624 5.28536 14.5032 5.28352C14.544 5.28168 14.5848 5.2879 14.6232 5.30181C14.6615 5.31572 14.6968 5.33705 14.7269 5.3646C14.7571 5.39214 14.7815 5.42535 14.7988 5.46233L17.3807 10.977C17.4075 11.0345 17.4161 11.0988 17.4053 11.1613C17.3946 11.2238 17.3649 11.2815 17.3204 11.3267C17.2759 11.3718 17.2186 11.4023 17.1563 11.414C17.094 11.4256 17.0295 11.418 16.9717 11.392L15.3555 10.6634L14.8147 12.3884C14.7959 12.4486 14.7592 12.5017 14.7095 12.5406C14.6598 12.5794 14.5995 12.6022 14.5365 12.606L14.5169 12.6066Z" fill="#494949"/>
<path d="M8.48578 12.6069H8.46713C8.40416 12.6032 8.34383 12.5804 8.29414 12.5415C8.24445 12.5026 8.20777 12.4496 8.18895 12.3894L7.64814 10.6644L6.03193 11.3929C5.97408 11.4189 5.90967 11.4266 5.84734 11.4149C5.785 11.4032 5.72773 11.3727 5.68321 11.3276C5.6387 11.2824 5.60906 11.2247 5.59827 11.1622C5.58749 11.0997 5.59609 11.0354 5.6229 10.978L8.20356 5.46233C8.23851 5.38764 8.3017 5.3299 8.37922 5.30181C8.45675 5.27371 8.54226 5.27756 8.61694 5.31251C8.69162 5.34747 8.74936 5.41065 8.77746 5.48818C8.80555 5.5657 8.8017 5.65121 8.76675 5.72589L6.54041 10.4813L7.71217 9.95292C7.75224 9.93487 7.79569 9.92553 7.83964 9.9255C7.88359 9.92548 7.92705 9.93477 7.96714 9.95278C8.00724 9.97079 8.04306 9.99709 8.07224 10.03C8.10142 10.0628 8.1233 10.1015 8.13643 10.1434L8.53737 11.4221L11.2147 5.46668C11.2492 5.39253 11.3114 5.33495 11.388 5.3064C11.4647 5.27785 11.5494 5.28064 11.624 5.31417C11.6986 5.34769 11.7569 5.40925 11.7864 5.4855C11.8159 5.56175 11.8142 5.64656 11.7816 5.72154L8.76924 12.4236C8.74468 12.4782 8.70486 12.5246 8.65458 12.5571C8.60429 12.5896 8.54567 12.6069 8.48578 12.6069Z" fill="#494949"/>
</svg>
