<svg width="21" height="21" viewBox="0 0 21 21" fill="none" xmlns="http://www.w3.org/2000/svg">
<path d="M4.92188 10.5C4.92188 9.45953 5.20853 8.48487 5.70654 7.65033V4.11035H2.16657C0.761578 5.93505 0 8.15888 0 10.5C0 12.8411 0.761578 15.0649 2.16657 16.8896H5.70654V13.3496C5.20853 12.5151 4.92188 11.5404 4.92188 10.5Z" fill="#FBBD00"/>
<path d="M10.5 16.0781L8.03906 18.5391L10.5 21C12.8411 21 15.0649 20.2384 16.8896 18.8334V15.2972H13.3534C12.5116 15.7971 11.5328 16.0781 10.5 16.0781Z" fill="#0F9D58"/>
<path d="M5.70599 13.3496L2.16602 16.8896C2.44418 17.2509 2.74708 17.5968 3.07484 17.9246C5.05803 19.9078 7.6948 21 10.4994 21V16.0781C8.46409 16.0781 6.6802 14.9822 5.70599 13.3496Z" fill="#31AA52"/>
<path d="M21 10.5C21 9.8612 20.9422 9.22119 20.8281 8.59783L20.7357 8.09338H10.5V13.0153H15.4814C14.9977 13.9775 14.2539 14.7626 13.3534 15.2973L16.8896 18.8335C17.2508 18.5553 17.5968 18.2524 17.9246 17.9247C19.9078 15.9414 21 13.3047 21 10.5Z" fill="#3C79E6"/>
<path d="M14.4443 6.55565L14.8794 6.99066L18.3597 3.5104L17.9246 3.07539C15.9415 1.09221 13.3047 0 10.5 0L8.03906 2.46094L10.5 4.92188C11.9899 4.92188 13.3907 5.50208 14.4443 6.55565Z" fill="#CF2D48"/>
<path d="M10.4995 4.92188V0C7.69484 0 5.05807 1.09221 3.07484 3.07535C2.74708 3.40311 2.44418 3.74907 2.16602 4.11038L5.70599 7.65036C6.68024 6.01781 8.46413 4.92188 10.4995 4.92188Z" fill="#EB4132"/>
</svg>
