<svg width="18" height="16" viewBox="0 0 18 16" fill="none" xmlns="http://www.w3.org/2000/svg">
<path d="M6.1875 7.4375C8.05146 7.4375 9.5625 5.92646 9.5625 4.0625C9.5625 2.19854 8.05146 0.6875 6.1875 0.6875C4.32354 0.6875 2.8125 2.19854 2.8125 4.0625C2.8125 5.92646 4.32354 7.4375 6.1875 7.4375Z" stroke="#53B2E8" stroke-linecap="round" stroke-linejoin="round"/>
<path d="M14.0625 6.3125C15.3051 6.3125 16.3125 5.30514 16.3125 4.0625C16.3125 2.81986 15.3051 1.8125 14.0625 1.8125C12.8199 1.8125 11.8125 2.81986 11.8125 4.0625C11.8125 5.30514 12.8199 6.3125 14.0625 6.3125Z" stroke="#53B2E8" stroke-linecap="round" stroke-linejoin="round"/>
<path d="M6.1875 9.6875C4.69566 9.6875 3.26492 10.2801 2.21002 11.335C1.15513 12.3899 0.5625 13.8207 0.5625 15.3125H11.8125C11.8125 13.8207 11.2199 12.3899 10.165 11.335C9.11008 10.2801 7.67934 9.6875 6.1875 9.6875V9.6875Z" stroke="#53B2E8" stroke-linecap="round" stroke-linejoin="round"/>
<path d="M12.1953 9.125C12.7482 8.75716 13.3976 8.56141 14.0617 8.5625C14.9568 8.5625 15.8152 8.91808 16.4482 9.55102C17.0811 10.184 17.4367 11.0424 17.4367 11.9375V13.0625H14.0617" stroke="#53B2E8" stroke-linecap="round" stroke-linejoin="round"/>
</svg>
