<svg width="47" height="36" viewBox="0 0 47 36" fill="none" xmlns="http://www.w3.org/2000/svg">
<path d="M3.03967 0C1.36096 0 0 1.40826 0 3.14531V32.5042C0 34.2417 1.36096 35.65 3.03967 35.65H43.5727C45.2514 35.65 46.6123 34.2417 46.6123 32.5042V3.14531C46.6123 1.40826 45.2514 0 43.5727 0H3.03967ZM43.5727 33.553H3.03967C2.48026 33.553 2.0266 33.0835 2.0266 32.5042V10.4852H44.5857V32.5042C44.5857 33.0835 44.1321 33.553 43.5727 33.553ZM44.5857 3.14531V8.38812H2.0266V3.14531C2.0266 2.56645 2.48026 2.09703 3.03967 2.09703H43.5727C44.1321 2.09703 44.5857 2.56645 44.5857 3.14531Z" fill="#53B2E8"/>
<path d="M6.08129 5.24504C6.08129 5.8239 5.62764 6.29332 5.06776 6.29332C4.50834 6.29332 4.05469 5.8239 4.05469 5.24504C4.05469 4.66571 4.50834 4.19629 5.06776 4.19629C5.62764 4.19629 6.08129 4.66571 6.08129 5.24504Z" fill="#53B2E8"/>
<path d="M10.134 5.24504C10.134 5.8239 9.68037 6.29332 9.12096 6.29332C8.56108 6.29332 8.10742 5.8239 8.10742 5.24504C8.10742 4.66571 8.56108 4.19629 9.12096 4.19629C9.68037 4.19629 10.134 4.66571 10.134 5.24504Z" fill="#53B2E8"/>
<path d="M14.1868 5.24504C14.1868 5.8239 13.7331 6.29332 13.1737 6.29332C12.6138 6.29332 12.1602 5.8239 12.1602 5.24504C12.1602 4.66571 12.6138 4.19629 13.1737 4.19629C13.7331 4.19629 14.1868 4.66571 14.1868 5.24504Z" fill="#53B2E8"/>
<path d="M28.1867 20.0075L20.3678 15.9632C19.6952 15.6137 18.896 15.6502 18.2559 16.0592C17.6157 16.4681 17.2261 17.1914 17.2266 17.97V26.0605C17.2247 26.8395 17.6144 27.5638 18.2549 27.9727C18.8955 28.3822 19.6952 28.4177 20.3678 28.0673L28.1876 24.023C28.9223 23.6428 29.3867 22.8658 29.3867 22.0152C29.3867 21.1647 28.9223 20.3876 28.1876 20.0075H28.1867ZM27.2807 22.1472L19.4559 26.1915C19.4132 26.2189 19.3594 26.2189 19.3167 26.1915C19.2731 26.1661 19.2471 26.1176 19.249 26.0658V17.97C19.2471 17.9181 19.2731 17.8696 19.3167 17.8442C19.3408 17.8288 19.3682 17.8212 19.396 17.8212C19.4183 17.8212 19.4406 17.8274 19.4601 17.8389L27.2807 21.8832C27.329 21.9082 27.3596 21.9595 27.3596 22.0152C27.3596 22.0714 27.329 22.1223 27.2807 22.1472Z" fill="#53B2E8"/>
<path d="M39.432 27.7911L41.2489 25.911C41.4864 25.6653 41.5908 25.313 41.5273 24.9717C41.4637 24.63 41.2406 24.3434 40.9317 24.2061L33.8383 21.0603C33.4844 20.9034 33.0753 20.9677 32.7821 21.2259C32.489 21.4846 32.3628 21.8926 32.456 22.279L34.4826 30.6671C34.5708 31.0329 34.8417 31.3213 35.1923 31.4231C35.2814 31.4485 35.3732 31.461 35.4655 31.461C35.7346 31.461 35.992 31.3506 36.1822 31.1538L37.9991 29.2738L39.8161 31.1538C40.2136 31.5513 40.8454 31.5455 41.2364 31.1409C41.6275 30.7367 41.6326 30.0825 41.2489 29.6712L39.432 27.7911ZM36.0148 28.3613L34.9177 23.8202L38.758 25.5232L36.0148 28.3613Z" fill="#53B2E8"/>
</svg>
