<svg width="10" height="11" viewBox="0 0 10 11" fill="none" xmlns="http://www.w3.org/2000/svg">
<path d="M5 0C2.24292 0 0 2.2869 0 5.09804C0 7.90918 2.24292 10.1961 5 10.1961C7.75708 10.1961 10 7.90918 10 5.09804C10 2.2869 7.75708 0 5 0ZM6.1075 7.76771C5.83208 7.87817 4.8775 8.34294 4.3275 7.84886C4.16333 7.70186 4.08167 7.51536 4.08167 7.28892C4.08167 6.86493 4.21833 6.49533 4.46458 5.60784C4.50792 5.44003 4.56083 5.22252 4.56083 5.05003C4.56083 4.75222 4.45 4.6732 4.14958 4.6732C4.00292 4.6732 3.84042 4.72631 3.69333 4.78239L3.77458 4.44294C4.1025 4.30699 4.51417 4.14131 4.86667 4.14131C5.39542 4.14131 5.78458 4.41023 5.78458 4.92173C5.78458 5.06915 5.75958 5.32745 5.70708 5.50588L5.40292 6.60281C5.34 6.82458 5.22625 7.31356 5.4025 7.45843C5.57583 7.6016 5.98625 7.52556 6.18875 7.42827L6.1075 7.76771ZM5.605 3.39869C5.26 3.39869 4.98 3.1132 4.98 2.76144C4.98 2.40967 5.26 2.12418 5.605 2.12418C5.95 2.12418 6.23 2.40967 6.23 2.76144C6.23 3.1132 5.95 3.39869 5.605 3.39869Z" fill="#53B2E8"/>
</svg>
