<svg width="14" height="15" viewBox="0 0 14 15" fill="none" xmlns="http://www.w3.org/2000/svg">
<path d="M7 0C3.14008 0 0 3.20165 0 7.13725C0 11.0729 3.14008 14.2745 7 14.2745C10.8599 14.2745 14 11.0729 14 7.13725C14 3.20165 10.8599 0 7 0ZM8.5505 10.8748C8.16492 11.0294 6.8285 11.6801 6.0585 10.9884C5.82867 10.7826 5.71433 10.5215 5.71433 10.2045C5.71433 9.61091 5.90567 9.09346 6.25042 7.85098C6.31108 7.61604 6.38517 7.31152 6.38517 7.07005C6.38517 6.65311 6.23 6.54248 5.80942 6.54248C5.60408 6.54248 5.37658 6.61683 5.17067 6.69534L5.28442 6.22012C5.7435 6.02979 6.31983 5.79783 6.81333 5.79783C7.55358 5.79783 8.09842 6.17432 8.09842 6.89042C8.09842 7.09681 8.06342 7.45843 7.98992 7.70823L7.56408 9.24393C7.476 9.5544 7.31675 10.239 7.5635 10.4418C7.80617 10.6422 8.38075 10.5358 8.66425 10.3996L8.5505 10.8748ZM7.847 4.75817C7.364 4.75817 6.972 4.35848 6.972 3.86601C6.972 3.37354 7.364 2.97386 7.847 2.97386C8.33 2.97386 8.722 3.37354 8.722 3.86601C8.722 4.35848 8.33 4.75817 7.847 4.75817Z" fill="#53B2E8"/>
</svg>
