<svg width="19" height="22" viewBox="0 0 19 22" fill="none" xmlns="http://www.w3.org/2000/svg">
<path d="M10.8696 4.99159C10.4628 4.76974 10.0006 4.65881 9.483 4.65881C8.92838 4.65881 8.44771 4.76974 8.0225 5.01007C7.59729 5.25041 7.283 5.5647 7.04267 5.97142C6.80233 6.37814 6.69141 6.85881 6.69141 7.39495C6.69141 7.52436 6.72838 7.63528 6.82082 7.70923C6.91326 7.78318 7.02418 7.83865 7.15359 7.83865C7.283 7.83865 7.39393 7.80167 7.46788 7.70923C7.54183 7.6168 7.59729 7.52436 7.59729 7.39495C7.59729 7.0252 7.67124 6.71091 7.81914 6.41512C7.96704 6.13781 8.18888 5.91596 8.4662 5.74957C8.74351 5.58318 9.07628 5.50923 9.46452 5.50923C9.81578 5.50923 10.1301 5.58318 10.4074 5.73108C10.6847 5.87898 10.888 6.08234 11.0359 6.34117C11.1838 6.59999 11.2578 6.8773 11.2578 7.1731C11.2578 7.56133 11.1838 7.89411 11.0544 8.15293C10.925 8.41175 10.7401 8.65209 10.5183 8.85545C10.2964 9.05881 10.0746 9.28066 9.83426 9.50251C9.55695 9.76134 9.35359 10.0756 9.1872 10.4269C9.02082 10.7781 8.96536 11.1294 8.96536 11.4252C8.96536 11.5731 9.00233 11.684 9.09477 11.758C9.1872 11.8504 9.29813 11.8874 9.42754 11.8874C9.55695 11.8874 9.66788 11.8504 9.76031 11.758C9.85275 11.6655 9.88972 11.5546 9.88972 11.4252C9.88972 11.2218 9.9267 10.9815 10.0006 10.7042C10.0746 10.4269 10.241 10.1865 10.4813 9.9647C10.7771 9.68739 11.0729 9.41007 11.3133 9.16974C11.5721 8.91091 11.7754 8.6336 11.9233 8.33781C12.0712 8.04201 12.1637 7.65377 12.1637 7.22856C12.1637 6.7294 12.0528 6.2857 11.8124 5.89747C11.5906 5.52772 11.2763 5.21344 10.8696 4.99159Z" fill="#494949"/>
<path d="M9.43013 12.6268C9.24525 12.6268 9.07887 12.7008 8.94946 12.8302C8.82004 12.9596 8.74609 13.126 8.74609 13.3294C8.74609 13.5142 8.80156 13.6806 8.93097 13.81C9.06038 13.9394 9.22677 14.0134 9.41164 14.0134C9.59651 14.0134 9.7629 13.9394 9.89231 13.81C10.0217 13.6806 10.0957 13.5142 10.0957 13.3294C10.0957 13.126 10.0217 12.9781 9.89231 12.8302C9.78139 12.7008 9.615 12.6268 9.43013 12.6268Z" fill="#494949"/>
<path d="M9.44706 0C4.23361 0 0 4.23361 0 9.44706C0 14.0319 3.23529 17.9143 7.72773 18.7277L9.0958 21.7782C9.15126 21.9076 9.28067 22 9.42857 22C9.57647 22 9.70588 21.9076 9.76134 21.7782L11.1294 18.7277C15.6218 17.9143 18.8571 14.0319 18.8571 9.44706C18.8756 4.23361 14.642 0 9.44706 0ZM10.8336 18.0252C10.7042 18.0437 10.6118 18.1176 10.5563 18.2471L9.44706 20.7244L8.33782 18.2471C8.28235 18.1361 8.18992 18.0622 8.0605 18.0252C3.8084 17.3412 0.739496 13.7361 0.739496 9.44706C0.739496 4.64034 4.64034 0.739496 9.44706 0.739496C14.2538 0.739496 18.1546 4.64034 18.1546 9.44706C18.1361 13.7361 15.0672 17.3412 10.8336 18.0252Z" fill="#494949"/>
</svg>
