<svg width="33" height="27" viewBox="0 0 33 27" fill="none" xmlns="http://www.w3.org/2000/svg">
<path d="M25.7763 25.2765H31.1708V19.4464C31.1707 19.1769 31.0898 18.9136 30.9386 18.6905C30.7874 18.4675 30.5728 18.2948 30.3225 18.1948L25.276 16.1719C25.0262 16.0721 24.8119 15.8998 24.6607 15.6773C24.5096 15.4548 24.4284 15.1921 24.4277 14.9231V13.739C25.2456 13.2696 25.9256 12.5931 26.399 11.7775C26.8725 10.9619 27.1229 10.036 27.125 9.09296V6.39571C27.1252 5.44868 26.8761 4.51827 26.4027 3.69804C25.9293 2.8778 25.2483 2.19664 24.4282 1.72303C23.6081 1.24942 22.6778 1.00005 21.7308 1C20.7837 0.999947 19.8534 1.24921 19.0332 1.72273" stroke="#494949" stroke-width="2" stroke-miterlimit="10" stroke-linecap="square"/>
<path d="M19.5325 19.5432L14.4859 17.5203C14.2361 17.4205 14.0218 17.2482 13.8706 17.0257C13.7195 16.8032 13.6383 16.5405 13.6376 16.2715V15.6632C18.0476 15.0739 19.0321 13.1386 19.0321 13.1386C19.0321 13.1386 16.3349 10.4414 16.3349 7.74411C16.3349 6.3134 15.7665 4.94129 14.7549 3.92962C13.7432 2.91796 12.3711 2.34961 10.9404 2.34961C9.50966 2.34961 8.13755 2.91796 7.12588 3.92962C6.11422 4.94129 5.54587 6.3134 5.54587 7.74411C5.54587 10.4414 2.84862 13.1386 2.84862 13.1386C2.84862 13.1386 3.83312 15.0739 8.24312 15.6632V16.2715C8.24295 16.5409 8.16205 16.8042 8.01085 17.0273C7.85965 17.2503 7.64509 17.423 7.39484 17.523L2.34828 19.5459C2.09846 19.6457 1.88419 19.818 1.73303 20.0405C1.58186 20.2631 1.50071 20.5257 1.5 20.7947V25.2762H20.3807V20.7947C20.3806 20.5253 20.2997 20.262 20.1485 20.0389C19.9973 19.8159 19.7827 19.6432 19.5325 19.5432Z" stroke="#494949" stroke-width="2" stroke-miterlimit="10" stroke-linecap="square"/>
</svg>
