<svg width="18" height="22" viewBox="0 0 18 22" fill="none" xmlns="http://www.w3.org/2000/svg">
<path d="M4.00674 8.86682H0.370995C0.166948 8.86682 0 9.03377 0 9.23782V21.629C0 21.8331 0.166948 22 0.370995 22H4.00674C4.21079 22 4.37774 21.8331 4.37774 21.629V9.23782C4.37774 9.03377 4.21079 8.86682 4.00674 8.86682ZM3.63575 21.2581H0.74199V9.60881H3.63575V21.2581Z" fill="#494949"/>
<path d="M17.1044 6.8634H13.4687C13.2646 6.8634 13.0977 7.03035 13.0977 7.2344V21.629C13.0977 21.833 13.2646 22 13.4687 22H17.1044C17.3084 22 17.4754 21.833 17.4754 21.629V7.2344C17.4754 7.0118 17.3084 6.8634 17.1044 6.8634ZM16.7334 21.258H13.8396V7.60539H16.7334V21.258Z" fill="#494949"/>
<path d="M10.5536 11.2041H6.91787C6.71382 11.2041 6.54688 11.371 6.54688 11.5751V21.6105C6.54688 21.8146 6.71382 21.9815 6.91787 21.9815H10.5536C10.7577 21.9815 10.9246 21.8146 10.9246 21.6105V11.5751C10.9246 11.371 10.7577 11.2041 10.5536 11.2041ZM10.1826 21.2581H7.28886V11.9461H10.1826V21.2581Z" fill="#494949"/>
<path d="M2.18991 6.10287C2.8948 6.10287 3.50694 5.73187 3.84084 5.15683L6.8459 6.23272C6.82735 6.32546 6.82735 6.41821 6.82735 6.51096C6.82735 7.5683 7.68064 8.44014 8.75652 8.44014C9.81386 8.44014 10.6857 7.58685 10.6857 6.51096C10.6857 6.23272 10.63 5.97302 10.5187 5.73187L13.9875 3.28331C14.34 3.6172 14.8037 3.82125 15.3046 3.82125C16.3619 3.82125 17.2338 2.96796 17.2338 1.89207C17.1967 0.853288 16.3434 0 15.286 0C14.2101 0 13.3569 0.853288 13.3569 1.92917C13.3569 2.20742 13.4125 2.46712 13.5238 2.70826L10.055 5.13828C9.70256 4.80438 9.23881 4.60034 8.73797 4.60034C8.03308 4.60034 7.42094 4.97133 7.08704 5.54637L4.08198 4.47049C4.10053 4.37774 4.10053 4.28499 4.10053 4.19224C4.10053 3.13491 3.24725 2.26307 2.17136 2.26307C1.11403 2.26307 0.242188 3.11636 0.242188 4.19224C0.279287 5.24958 1.13258 6.10287 2.18991 6.10287ZM15.286 0.74199C15.9353 0.74199 16.4732 1.26138 16.4732 1.92917C16.4732 2.59696 15.9538 3.11636 15.286 3.11636C14.6182 3.11636 14.0988 2.57841 14.0988 1.92917C14.0988 1.27993 14.6368 0.74199 15.286 0.74199ZM8.73797 5.36088C9.38721 5.36088 9.92515 5.88027 9.92515 6.54806C9.92515 7.21585 9.40576 7.73524 8.73797 7.73524C8.07018 7.73524 7.55079 7.21585 7.55079 6.54806C7.55079 5.88027 8.08873 5.36088 8.73797 5.36088ZM2.18991 3.00506C2.83915 3.00506 3.37709 3.52445 3.37709 4.19224C3.37709 4.86003 2.8577 5.37943 2.18991 5.37943C1.52212 5.37943 1.00273 4.86003 1.00273 4.19224C1.00273 3.52445 1.54067 3.00506 2.18991 3.00506Z" fill="#494949"/>
</svg>
