<svg width="13" height="13" viewBox="0 0 13 13" fill="none" xmlns="http://www.w3.org/2000/svg">
<path d="M11.0742 3.69531V5.2611L12.0686 4.5224L11.0742 3.69531Z" fill="#53B2E8"/>
<path d="M6.87561 0.219406C6.5252 -0.0710224 6.01695 -0.0741792 5.66654 0.21625L5.26562 0.557188H7.28284L6.87561 0.219406Z" fill="#53B2E8"/>
<path d="M7.21577 8.91656C6.94428 9.1186 6.61597 9.22909 6.27819 9.22593C5.94041 9.22593 5.60894 9.1186 5.33745 8.91656L0.308611 5.16309V11.5999C0.305455 12.1208 0.725314 12.5469 1.24619 12.5501H11.3007C11.8216 12.5469 12.2415 12.1208 12.2383 11.5999V5.16309L7.21577 8.91656Z" fill="#53B2E8"/>
<path d="M0.480469 4.52134L1.4433 5.23794V3.72266L0.480469 4.52134Z" fill="#53B2E8"/>
<path d="M2.08203 1.18848V5.70907L5.71239 8.41132C6.05017 8.65755 6.51423 8.65755 6.85201 8.41132L10.4476 5.73116V1.18848H2.08203ZM4.32338 3.71395H6.02808C6.2017 3.71395 6.34376 3.856 6.34376 4.02963C6.34376 4.20326 6.2017 4.34531 6.02808 4.34531H4.32338C4.14976 4.34531 4.0077 4.20326 4.0077 4.02963C4.0077 3.856 4.14976 3.71395 4.32338 3.71395ZM8.23786 5.92373H4.32338C4.14976 5.92373 4.0077 5.78167 4.0077 5.60805C4.0077 5.43442 4.14976 5.29236 4.32338 5.29236H8.23786C8.41149 5.29236 8.55355 5.43442 8.55355 5.60805C8.55355 5.78167 8.41149 5.92373 8.23786 5.92373Z" fill="#53B2E8"/>
</svg>
