<svg width="30" height="30" viewBox="0 0 30 30" fill="none" xmlns="http://www.w3.org/2000/svg">
<path d="M29.1149 10.6906L25.4272 7.6129V3.24651C25.4272 2.86951 25.0981 2.58162 24.7143 2.58162H19.3471L17.1948 0.785711C15.9267 -0.263043 14.0897 -0.263043 12.8216 0.792566L10.6692 2.58162H5.2335C4.8565 2.58162 4.52063 2.86266 4.52063 3.24651V7.68144L0.901394 10.6906C0.750593 10.8209 0.661483 11.0196 0.668338 11.2184H0.682047V26.5659C0.682047 28.4577 2.20377 30 4.08879 30H25.9207C27.8126 30 29.3274 28.4509 29.3274 26.5659V11.2184H29.3411C29.3549 11.0128 29.2726 10.8209 29.1149 10.6906ZM25.4272 9.39509L27.5864 11.191L25.4272 12.795V9.39509ZM13.6989 1.84132C14.4598 1.2107 15.5634 1.21755 16.3243 1.84817L17.1948 2.58162H12.8147L13.6989 1.84132ZM5.89155 3.95254H24.0562V13.8163L16.2489 19.629C15.5086 20.1705 14.5078 20.1705 13.7743 19.629L5.89155 13.7615V3.95254ZM4.52063 9.45679V12.7401L2.42997 11.1841L4.52063 9.45679ZM27.9634 26.559C27.9702 27.6969 27.0586 28.6223 25.9276 28.6291H4.08879C2.95778 28.6223 2.04611 27.6969 2.05297 26.5659V12.5825L12.9655 20.7326C14.1788 21.6306 15.8376 21.6306 17.0508 20.7326L27.9634 12.5825V26.559Z" fill="#53B2E8"/>
</svg>
