<svg width="56" height="56" viewBox="0 0 56 56" fill="none" xmlns="http://www.w3.org/2000/svg">
<path d="M47.7057 48.2799C46.8945 48.2791 46.1167 47.9563 45.5434 47.3823C44.9702 46.8083 44.6482 46.0301 44.6484 45.2189V34.7552C44.6484 34.5545 44.7282 34.362 44.8701 34.2201C45.012 34.0782 45.2045 33.9984 45.4052 33.9984C45.6059 33.9984 45.7984 34.0782 45.9403 34.2201C46.0822 34.362 46.162 34.5545 46.162 34.7552V45.2189C46.1574 45.4244 46.194 45.6288 46.2695 45.8201C46.345 46.0113 46.458 46.1855 46.6017 46.3325C46.7455 46.4795 46.9172 46.5963 47.1067 46.676C47.2962 46.7558 47.4998 46.7968 47.7054 46.7968C47.911 46.7968 48.1145 46.7558 48.304 46.676C48.4935 46.5963 48.6652 46.4795 48.809 46.3325C48.9528 46.1855 49.0657 46.0113 49.1412 45.8201C49.2168 45.6288 49.2533 45.4244 49.2488 45.2189V27.0068C49.2488 26.8061 49.3285 26.6136 49.4704 26.4716C49.6123 26.3297 49.8048 26.25 50.0055 26.25C50.2062 26.25 50.3987 26.3297 50.5406 26.4716C50.6826 26.6136 50.7623 26.8061 50.7623 27.0068V45.2189C50.7625 46.03 50.4407 46.808 49.8675 47.382C49.2944 47.956 48.5169 48.2789 47.7057 48.2799Z" fill="#53B2E8"/>
<path d="M51.868 35.3704C51.1737 35.3698 50.508 35.0938 50.0169 34.6029C49.5259 34.112 49.2497 33.4464 49.2489 32.7521V27.0083C49.2489 26.8076 49.3286 26.6151 49.4705 26.4732C49.6124 26.3313 49.8049 26.2515 50.0056 26.2515C50.2063 26.2515 50.3988 26.3313 50.5407 26.4732C50.6827 26.6151 50.7624 26.8076 50.7624 27.0083V32.7521C50.7699 33.0402 50.8897 33.314 51.0961 33.5151C51.3026 33.7162 51.5794 33.8288 51.8676 33.8288C52.1558 33.8288 52.4327 33.7162 52.6391 33.5151C52.8456 33.314 52.9653 33.0402 52.9729 32.7521V23.4856C52.9719 22.6873 52.6543 21.922 52.0898 21.3575C51.5253 20.793 50.76 20.4755 49.9617 20.4745H40.8489C40.0506 20.4755 39.2853 20.793 38.7208 21.3575C38.1563 21.922 37.8387 22.6873 37.8377 23.4856V32.7521C37.8453 33.0402 37.965 33.314 38.1715 33.5151C38.3779 33.7162 38.6548 33.8288 38.943 33.8288C39.2312 33.8288 39.508 33.7162 39.7145 33.5151C39.9209 33.314 40.0407 33.0402 40.0482 32.7521V27.0083C40.0482 26.8076 40.1279 26.6151 40.2699 26.4732C40.4118 26.3313 40.6043 26.2515 40.805 26.2515C41.0057 26.2515 41.1982 26.3313 41.3401 26.4732C41.482 26.6151 41.5617 26.8076 41.5617 27.0083V32.7521C41.5501 33.4389 41.269 34.0936 40.7792 34.5752C40.2893 35.0568 39.6299 35.3267 38.943 35.3267C38.256 35.3267 37.5966 35.0568 37.1068 34.5752C36.6169 34.0936 36.3359 33.4389 36.3242 32.7521V23.4856C36.3256 22.286 36.8028 21.136 37.651 20.2877C38.4992 19.4395 39.6493 18.9623 40.8489 18.9609H49.9617C51.1613 18.9623 52.3114 19.4395 53.1596 20.2877C54.0078 21.136 54.485 22.286 54.4864 23.4856V32.7521C54.4856 33.4463 54.2095 34.1118 53.7186 34.6027C53.2277 35.0935 52.5622 35.3696 51.868 35.3704Z" fill="#53B2E8"/>
<path d="M43.1054 48.2799C42.2949 48.2789 41.5179 47.9565 40.9449 47.3833C40.3719 46.8102 40.0496 46.0331 40.0488 45.2226V27.0068C40.0488 26.8061 40.1286 26.6136 40.2705 26.4716C40.4124 26.3297 40.6049 26.25 40.8056 26.25C41.0063 26.25 41.1988 26.3297 41.3407 26.4716C41.4826 26.6136 41.5623 26.8061 41.5623 27.0068V45.2189C41.5578 45.4244 41.5943 45.6288 41.6699 45.8201C41.7454 46.0113 41.8583 46.1855 42.0021 46.3325C42.1459 46.4795 42.3176 46.5963 42.5071 46.676C42.6966 46.7558 42.9001 46.7968 43.1057 46.7968C43.3114 46.7968 43.5149 46.7558 43.7044 46.676C43.8939 46.5963 44.0656 46.4795 44.2094 46.3325C44.3531 46.1855 44.4661 46.0113 44.5416 45.8201C44.6171 45.6288 44.6537 45.4244 44.6491 45.2189V34.7552C44.6491 34.5545 44.7289 34.362 44.8708 34.2201C45.0127 34.0782 45.2052 33.9984 45.4059 33.9984C45.6066 33.9984 45.7991 34.0782 45.941 34.2201C46.0829 34.362 46.1627 34.5545 46.1627 34.7552V45.2189C46.1629 46.0301 45.8409 46.8083 45.2677 47.3823C44.6944 47.9563 43.9166 48.2791 43.1054 48.2799Z" fill="#53B2E8"/>
<path d="M45.4043 17.2539C44.4614 17.2539 43.5396 16.9743 42.7556 16.4504C41.9715 15.9265 41.3605 15.1819 40.9996 14.3108C40.6388 13.4396 40.5444 12.481 40.7283 11.5562C40.9123 10.6314 41.3664 9.7819 42.0331 9.11514C42.6999 8.44838 43.5494 7.99432 44.4742 7.81036C45.399 7.6264 46.3576 7.72082 47.2288 8.08166C48.0999 8.44251 48.8445 9.05358 49.3684 9.8376C49.8923 10.6216 50.1719 11.5434 50.1719 12.4863C50.1707 13.7504 49.668 14.9623 48.7741 15.8562C47.8803 16.75 46.6684 17.2527 45.4043 17.2539ZM45.4043 9.23227C44.7607 9.23227 44.1316 9.42311 43.5964 9.78067C43.0613 10.1382 42.6442 10.6464 42.3979 11.241C42.1516 11.8356 42.0872 12.4899 42.2128 13.1212C42.3383 13.7524 42.6482 14.3322 43.1033 14.7873C43.5584 15.2424 44.1382 15.5523 44.7695 15.6778C45.4007 15.8034 46.055 15.739 46.6496 15.4927C47.2442 15.2464 47.7524 14.8293 48.1099 14.2942C48.4675 13.759 48.6584 13.1299 48.6584 12.4863C48.6573 11.6239 48.3141 10.7972 47.7039 10.1878C47.0938 9.57837 46.2667 9.23605 45.4043 9.23605V9.23227Z" fill="#53B2E8"/>
<path d="M8.29287 48.2799C7.4824 48.2789 6.70542 47.9565 6.13241 47.3833C5.55939 46.8102 5.23713 46.0331 5.23633 45.2226V27.0068C5.23633 26.8061 5.31606 26.6136 5.45798 26.4716C5.5999 26.3297 5.79238 26.25 5.99308 26.25C6.19379 26.25 6.38627 26.3297 6.52819 26.4716C6.67011 26.6136 6.74984 26.8061 6.74984 27.0068V45.2189C6.74529 45.4244 6.78185 45.6288 6.85736 45.8201C6.93288 46.0113 7.04584 46.1855 7.18961 46.3325C7.33338 46.4795 7.50506 46.5963 7.69458 46.676C7.8841 46.7558 8.08764 46.7968 8.29325 46.7968C8.49886 46.7968 8.70239 46.7558 8.89191 46.676C9.08143 46.5963 9.25312 46.4795 9.39688 46.3325C9.54065 46.1855 9.65361 46.0113 9.72913 45.8201C9.80465 45.6288 9.8412 45.4244 9.83665 45.2189V34.7552C9.83665 34.5545 9.91638 34.362 10.0583 34.2201C10.2002 34.0782 10.3927 33.9984 10.5934 33.9984C10.7941 33.9984 10.9866 34.0782 11.1285 34.2201C11.2704 34.362 11.3502 34.5545 11.3502 34.7552V45.2189C11.3504 46.0301 11.0284 46.8083 10.4552 47.3823C9.88187 47.9563 9.10412 48.2791 8.29287 48.2799Z" fill="#53B2E8"/>
<path d="M17.0575 35.3704C16.3631 35.3698 15.6974 35.0938 15.2064 34.6029C14.7153 34.112 14.4391 33.4464 14.4383 32.7521V27.0083C14.4383 26.8076 14.5181 26.6151 14.66 26.4732C14.8019 26.3313 14.9944 26.2515 15.1951 26.2515C15.3958 26.2515 15.5883 26.3313 15.7302 26.4732C15.8721 26.6151 15.9518 26.8076 15.9518 27.0083V32.7521C15.9594 33.0402 16.0791 33.314 16.2856 33.5151C16.492 33.7162 16.7689 33.8288 17.0571 33.8288C17.3453 33.8288 17.6221 33.7162 17.8286 33.5151C18.035 33.314 18.1548 33.0402 18.1623 32.7521V23.4856C18.1613 22.6873 17.8438 21.922 17.2793 21.3575C16.7148 20.793 15.9495 20.4755 15.1512 20.4745H6.03832C5.24003 20.4755 4.47471 20.793 3.91023 21.3575C3.34575 21.922 3.02819 22.6873 3.02719 23.4856V32.7521C3.03473 33.0402 3.15448 33.314 3.36093 33.5151C3.56738 33.7162 3.84421 33.8288 4.13243 33.8288C4.42065 33.8288 4.69748 33.7162 4.90393 33.5151C5.11038 33.314 5.23013 33.0402 5.23767 32.7521V27.0083C5.23767 26.8076 5.3174 26.6151 5.45932 26.4732C5.60124 26.3313 5.79372 26.2515 5.99443 26.2515C6.19513 26.2515 6.38762 26.3313 6.52954 26.4732C6.67146 26.6151 6.75119 26.8076 6.75119 27.0083V32.7521C6.73951 33.4389 6.45847 34.0936 5.96863 34.5752C5.47879 35.0568 4.81936 35.3267 4.13243 35.3267C3.4455 35.3267 2.78607 35.0568 2.29623 34.5752C1.80639 34.0936 1.52535 33.4389 1.51367 32.7521V23.4856C1.51507 22.286 1.99223 21.136 2.84046 20.2877C3.68869 19.4395 4.83874 18.9623 6.03832 18.9609H15.1512C16.3508 18.9623 17.5008 19.4395 18.349 20.2877C19.1973 21.136 19.6744 22.286 19.6758 23.4856V32.7521C19.675 33.4463 19.3989 34.1118 18.908 34.6027C18.4172 35.0935 17.7516 35.3696 17.0575 35.3704Z" fill="#53B2E8"/>
<path d="M12.8952 48.2799C12.0839 48.2791 11.3062 47.9563 10.7329 47.3823C10.1596 46.8083 9.83769 46.0301 9.83789 45.2189V34.7552C9.83789 34.5545 9.91762 34.362 10.0595 34.2201C10.2015 34.0782 10.3939 33.9984 10.5946 33.9984C10.7954 33.9984 10.9878 34.0782 11.1298 34.2201C11.2717 34.362 11.3514 34.5545 11.3514 34.7552V45.2189C11.3469 45.4244 11.3834 45.6288 11.4589 45.8201C11.5344 46.0113 11.6474 46.1855 11.7912 46.3325C11.9349 46.4795 12.1066 46.5963 12.2961 46.676C12.4857 46.7558 12.6892 46.7968 12.8948 46.7968C13.1004 46.7968 13.304 46.7558 13.4935 46.676C13.683 46.5963 13.8547 46.4795 13.9984 46.3325C14.1422 46.1855 14.2552 46.0113 14.3307 45.8201C14.4062 45.6288 14.4428 45.4244 14.4382 45.2189V27.0068C14.4382 26.8061 14.5179 26.6136 14.6599 26.4716C14.8018 26.3297 14.9943 26.25 15.195 26.25C15.3957 26.25 15.5882 26.3297 15.7301 26.4716C15.872 26.6136 15.9517 26.8061 15.9517 27.0068V45.2189C15.9519 46.03 15.6301 46.808 15.057 47.382C14.4839 47.956 13.7063 48.2789 12.8952 48.2799Z" fill="#53B2E8"/>
<path d="M10.5957 17.2539C9.65276 17.2539 8.731 16.9743 7.94698 16.4504C7.16295 15.9265 6.55188 15.1819 6.19104 14.3108C5.83019 13.4396 5.73578 12.481 5.91973 11.5562C6.10369 10.6314 6.55776 9.7819 7.22452 9.11514C7.89127 8.44838 8.74077 7.99432 9.66559 7.81036C10.5904 7.6264 11.549 7.72082 12.4202 8.08166C13.2913 8.44251 14.0359 9.05358 14.5598 9.8376C15.0836 10.6216 15.3633 11.5434 15.3633 12.4863C15.3621 13.7504 14.8594 14.9623 13.9655 15.8562C13.0717 16.75 11.8598 17.2527 10.5957 17.2539ZM10.5957 9.23227C9.9521 9.23227 9.32297 9.42311 8.78784 9.78067C8.25271 10.1382 7.83563 10.6464 7.58934 11.241C7.34305 11.8356 7.27861 12.4899 7.40417 13.1212C7.52972 13.7524 7.83964 14.3322 8.29473 14.7873C8.74982 15.2424 9.32964 15.5523 9.96086 15.6778C10.5921 15.8034 11.2464 15.739 11.841 15.4927C12.4356 15.2464 12.9438 14.8293 13.3013 14.2942C13.6589 13.759 13.8497 13.1299 13.8497 12.4863C13.8487 11.6239 13.5055 10.7972 12.8953 10.1878C12.2852 9.57837 11.4581 9.23605 10.5957 9.23605V9.23227Z" fill="#53B2E8"/>
<path d="M36.7032 11.3514H19.2978C19.0971 11.3514 18.9046 11.2717 18.7627 11.1298C18.6207 10.9878 18.541 10.7954 18.541 10.5946C18.541 10.3939 18.6207 10.2015 18.7627 10.0595C18.9046 9.91762 19.0971 9.83789 19.2978 9.83789H36.7032C36.9039 9.83789 37.0964 9.91762 37.2383 10.0595C37.3802 10.2015 37.4599 10.3939 37.4599 10.5946C37.4599 10.7954 37.3802 10.9878 37.2383 11.1298C37.0964 11.2717 36.9039 11.3514 36.7032 11.3514Z" fill="#53B2E8"/>
<path d="M34.9296 13.4341C34.7852 13.4335 34.6439 13.3917 34.5225 13.3134C34.4012 13.2352 34.3047 13.1239 34.2446 12.9926C34.1844 12.8613 34.1631 12.7155 34.1831 12.5725C34.2031 12.4295 34.2636 12.2952 34.3575 12.1855L35.709 10.5963L34.3575 9.00708C34.227 8.85434 34.1626 8.65604 34.1783 8.45579C34.1941 8.25554 34.2887 8.06975 34.4415 7.93929C34.5942 7.80883 34.7925 7.74439 34.9927 7.76015C35.193 7.7759 35.3788 7.87056 35.5092 8.02329L37.2831 10.1044C37.4003 10.2414 37.4647 10.4159 37.4647 10.5963C37.4647 10.7766 37.4003 10.9511 37.2831 11.0882L35.5055 13.1692C35.4345 13.2526 35.3462 13.3195 35.2468 13.3653C35.1473 13.411 35.039 13.4345 34.9296 13.4341Z" fill="#53B2E8"/>
<path d="M21.0705 13.4317C20.9609 13.4319 20.8525 13.4082 20.7531 13.3622C20.6536 13.3162 20.5654 13.249 20.4946 13.1653L18.7207 11.0842C18.6035 10.9472 18.5391 10.7727 18.5391 10.5924C18.5391 10.412 18.6035 10.2375 18.7207 10.1005L20.4946 8.01938C20.5592 7.94376 20.638 7.88159 20.7266 7.83644C20.8153 7.79129 20.9119 7.76404 21.0111 7.75624C21.1102 7.74844 21.2099 7.76024 21.3045 7.79098C21.3991 7.82172 21.4867 7.87079 21.5624 7.93538C21.638 7.99998 21.7001 8.07884 21.7453 8.16746C21.7904 8.25608 21.8177 8.35273 21.8255 8.45188C21.8333 8.55103 21.8215 8.65075 21.7908 8.74534C21.76 8.83993 21.711 8.92754 21.6464 9.00317L20.291 10.5939L21.6464 12.1831C21.74 12.2931 21.8001 12.4276 21.8197 12.5707C21.8393 12.7138 21.8176 12.8596 21.757 12.9907C21.6965 13.1218 21.5996 13.2329 21.478 13.3108C21.3563 13.3887 21.2149 13.4301 21.0705 13.4302V13.4317Z" fill="#53B2E8"/>
</svg>
