<svg width="71" height="62" viewBox="0 0 71 62" fill="none" xmlns="http://www.w3.org/2000/svg">
<path d="M12.8952 8.44171C15.2257 8.44171 17.1419 6.52549 17.1419 4.19496C17.0901 1.91622 15.1739 0 12.8952 0C10.6164 0 8.64844 1.91622 8.64844 4.24675C8.64844 6.52549 10.5647 8.44171 12.8952 8.44171ZM12.8952 2.07158C14.0346 2.07158 15.0186 3.05559 15.0186 4.24675C15.0186 5.43791 14.0346 6.42191 12.8434 6.42191C11.6522 6.42191 10.6682 5.43791 10.6682 4.24675C10.72 3.05559 11.704 2.07158 12.8952 2.07158Z" fill="#C4C4C4"/>
<path d="M5.85318 18.0744H19.8882C20.4578 18.0744 20.924 17.6083 20.924 17.0386C20.924 12.5847 17.2987 9.01123 12.8966 9.01123C8.49445 9.01123 4.86917 12.6365 4.86917 17.0386C4.81738 17.6083 5.28349 18.0744 5.85318 18.0744ZM12.8966 11.0828C15.8486 11.0828 18.2827 13.2062 18.8006 16.0028H6.99255C7.45865 13.2062 9.94455 11.0828 12.8966 11.0828Z" fill="#C4C4C4"/>
<path d="M35.4245 8.44174C37.755 8.44174 39.6712 6.52553 39.6712 4.19499C39.6712 1.86446 37.755 -0.0517578 35.4245 -0.0517578C33.094 -0.0517578 31.1777 1.86446 31.1777 4.19499C31.2295 6.52553 33.094 8.44174 35.4245 8.44174ZM35.4245 2.07162C36.6156 2.07162 37.5996 3.05562 37.5996 4.24678C37.5996 5.43794 36.6156 6.42195 35.4245 6.42195C34.2333 6.42195 33.2493 5.43794 33.2493 4.24678C33.3011 3.05562 34.2851 2.07162 35.4245 2.07162Z" fill="#C4C4C4"/>
<path d="M28.4333 18.0744H42.4682C43.0379 18.0744 43.504 17.6083 43.504 17.0386C43.504 12.5847 39.8788 9.01123 35.4766 9.01123C31.0745 9.01123 27.4493 12.6365 27.4493 17.0386C27.3975 17.6083 27.8636 18.0744 28.4333 18.0744ZM35.4249 11.0828C38.3769 11.0828 40.811 13.2062 41.3289 16.0028H29.5726C30.0387 13.2062 32.5246 11.0828 35.4249 11.0828Z" fill="#C4C4C4"/>
<path d="M58.0046 8.44174C60.3351 8.44174 62.2513 6.52553 62.2513 4.19499C62.2513 1.86446 60.3351 -0.0517578 58.0046 -0.0517578C55.674 -0.0517578 53.7578 1.86446 53.7578 4.19499C53.8096 6.52553 55.674 8.44174 58.0046 8.44174ZM58.0046 2.07162C59.1957 2.07162 60.1797 3.05562 60.1797 4.24678C60.1797 5.43794 59.1957 6.42195 58.0046 6.42195C56.8134 6.42195 55.8294 5.43794 55.8294 4.24678C55.8812 3.05562 56.8134 2.07162 58.0046 2.07162Z" fill="#C4C4C4"/>
<path d="M51.0133 18.0744H65.0483C65.618 18.0744 66.0841 17.6083 66.0841 17.0386C66.0841 12.5847 62.4588 9.01123 58.0567 9.01123C53.6546 9.01123 50.0293 12.6365 50.0293 17.0386C49.9775 17.6083 50.4436 18.0744 51.0133 18.0744ZM58.0049 11.0828C60.9569 11.0828 63.3911 13.2062 63.9089 16.0028H52.1527C52.6188 13.2062 55.1047 11.0828 58.0049 11.0828Z" fill="#C4C4C4"/>
<path d="M69.8642 20.5088H1.03579C0.466107 20.5088 0 20.9749 0 21.5446V34.3884C0 34.9581 0.466107 35.4242 1.03579 35.4242C1.60548 35.4242 2.07158 34.9581 2.07158 34.3884V22.5804H68.8284V34.3884C68.8284 34.9581 69.2945 35.4242 69.8642 35.4242C70.4339 35.4242 70.9 34.9581 70.9 34.3884V21.5446C70.9 20.9749 70.4339 20.5088 69.8642 20.5088Z" fill="#C4C4C4"/>
<path d="M17.0912 29.6755C17.0912 27.3449 15.1749 25.4287 12.8444 25.4287C10.5139 25.4287 8.59766 27.3449 8.59766 29.6755C8.59766 32.006 10.5139 33.9222 12.8444 33.9222C15.1749 33.9222 17.0912 32.006 17.0912 29.6755ZM10.721 29.6755C10.721 28.4843 11.705 27.5003 12.8962 27.5003C14.0874 27.5003 15.0714 28.4843 15.0714 29.6755C15.0714 30.8666 14.0874 31.8506 12.8962 31.8506C11.705 31.8506 10.721 30.8666 10.721 29.6755Z" fill="#C4C4C4"/>
<path d="M4.81641 43.2442C4.81641 43.8139 5.28251 44.28 5.8522 44.28H19.8872C20.4569 44.28 20.923 43.8139 20.923 43.2442C20.923 38.7903 17.2977 35.2168 12.8956 35.2168C8.49347 35.2168 4.81641 38.8421 4.81641 43.2442ZM12.8956 37.2884C15.8476 37.2884 18.2817 39.4118 18.7996 42.2084H6.99157C7.45768 39.4118 9.94358 37.2884 12.8956 37.2884Z" fill="#C4C4C4"/>
<path d="M39.6712 29.6755C39.6712 27.3449 37.755 25.4287 35.4245 25.4287C33.094 25.4287 31.1777 27.3449 31.1777 29.6755C31.1777 32.006 33.094 33.9222 35.4245 33.9222C37.755 33.9222 39.6712 32.006 39.6712 29.6755ZM33.3011 29.6755C33.3011 28.4843 34.2851 27.5003 35.4763 27.5003C36.6674 27.5003 37.6514 28.4843 37.6514 29.6755C37.6514 30.8666 36.6674 31.8506 35.4763 31.8506C34.2851 31.8506 33.3011 30.8666 33.3011 29.6755Z" fill="#C4C4C4"/>
<path d="M27.3965 43.2442C27.3965 43.8139 27.8626 44.28 28.4323 44.28H42.4673C43.037 44.28 43.5031 43.8139 43.5031 43.2442C43.5031 38.8421 39.8778 35.2168 35.4239 35.2168C30.97 35.2168 27.3965 38.8421 27.3965 43.2442ZM35.4239 37.2884C38.3759 37.2884 40.81 39.4118 41.3279 42.2084H29.5716C30.0378 39.4118 32.5237 37.2884 35.4239 37.2884Z" fill="#C4C4C4"/>
<path d="M62.2513 29.6755C62.2513 27.3449 60.3351 25.4287 58.0046 25.4287C55.674 25.4287 53.7578 27.3449 53.7578 29.6755C53.7578 32.006 55.674 33.9222 58.0046 33.9222C60.3351 33.9222 62.2513 32.006 62.2513 29.6755ZM55.8812 29.6755C55.8812 28.4843 56.8652 27.5003 58.0563 27.5003C59.2475 27.5003 60.2315 28.4843 60.2315 29.6755C60.2315 30.8666 59.2475 31.8506 58.0563 31.8506C56.8134 31.8506 55.8812 30.8666 55.8812 29.6755Z" fill="#C4C4C4"/>
<path d="M49.9766 43.2442C49.9766 43.8139 50.4427 44.28 51.0124 44.28H65.0473C65.617 44.28 66.0831 43.8139 66.0831 43.2442C66.0831 38.7903 62.4579 35.2168 58.0557 35.2168C53.6536 35.2168 49.9766 38.8421 49.9766 43.2442ZM58.004 37.2884C60.956 37.2884 63.3901 39.4118 63.908 42.2084H52.1517C52.6178 39.4118 55.1037 37.2884 58.004 37.2884Z" fill="#C4C4C4"/>
<path d="M69.8642 46.6621H1.03579C0.466107 46.6621 0 47.1282 0 47.6979V60.5935C0 61.1632 0.466107 61.6293 1.03579 61.6293C1.60548 61.6293 2.07158 61.1632 2.07158 60.5935V48.7337H68.8284V60.5935C68.8284 61.1632 69.2945 61.6293 69.8642 61.6293C70.4339 61.6293 70.9 61.1632 70.9 60.5935V47.6979C70.9 47.1282 70.4339 46.6621 69.8642 46.6621Z" fill="#C4C4C4"/>
</svg>
