<svg width="16" height="16" viewBox="0 0 16 16" fill="none" xmlns="http://www.w3.org/2000/svg">
<path d="M14.714 0H1.286C0.576 0 0 0.576 0 1.286V14.714C0 15.424 0.576 16 1.286 16H14.714C15.424 16 16 15.424 16 14.714V1.286C16 0.576 15.424 0 14.714 0ZM14.714 14.72C5.758 14.718 1.28 14.716 1.28 14.714C1.282 5.758 1.284 1.28 1.286 1.28C10.242 1.282 14.72 1.284 14.72 1.286C14.718 10.242 14.716 14.72 14.714 14.72ZM2.372 5.998H4.746V13.634H2.372V5.998ZM3.56 4.954C4.318 4.954 4.936 4.338 4.936 3.578C4.936 3.3973 4.90041 3.21837 4.83126 3.05143C4.76211 2.88448 4.66075 2.73279 4.53298 2.60502C4.40521 2.47725 4.25352 2.37589 4.08657 2.30674C3.91963 2.23759 3.7407 2.202 3.56 2.202C3.3793 2.202 3.20037 2.23759 3.03343 2.30674C2.86648 2.37589 2.71479 2.47725 2.58702 2.60502C2.45925 2.73279 2.35789 2.88448 2.28874 3.05143C2.21959 3.21837 2.184 3.3973 2.184 3.578C2.182 4.338 2.798 4.954 3.56 4.954ZM8.606 9.856C8.606 8.86 8.796 7.896 10.03 7.896C11.246 7.896 11.264 9.034 11.264 9.92V13.634H13.636V9.446C13.636 7.39 13.192 5.808 10.79 5.808C9.636 5.808 8.862 6.442 8.544 7.042H8.512V5.998H6.234V13.634H8.606V9.856Z" fill="#494949"/>
</svg>
