<svg width="40" height="40" viewBox="0 0 40 40" fill="none" xmlns="http://www.w3.org/2000/svg">
<g clip-path="url(#clip0_8270_15177)">
<path d="M34 15.9333C34 27.3333 20 40 20 40C20 40 6 27.3333 6 15.9333C6 12.238 7.475 8.69399 10.1005 6.08098C12.726 3.46797 16.287 2 20 2C23.713 2 27.274 3.46797 29.8995 6.08098C32.525 8.69399 34 12.238 34 15.9333V15.9333Z" fill="white" stroke="#FA627D" stroke-width="2" stroke-linecap="round" stroke-linejoin="round"/>
<path d="M16.391 23.7374C15.446 23.7374 14.676 22.9674 14.6585 22.0224C14.6585 21.9874 14.5535 16.9824 10.8435 13.1849C10.1785 12.5024 10.196 11.3999 10.8785 10.7349C11.561 10.0699 12.646 10.0699 13.3285 10.7524C18.0535 15.5649 18.141 21.7249 18.141 21.9874C18.141 22.9499 17.371 23.7199 16.391 23.7374C16.4085 23.7374 16.4085 23.7374 16.391 23.7374Z" fill="#FFC658"/>
<path d="M23.5869 23.7404C22.6769 23.7404 21.9069 23.0229 21.8544 22.1129C21.8369 21.8679 21.5919 16.2154 26.6319 10.8079C27.2794 10.1079 28.3819 10.0729 29.0819 10.7204C29.7819 11.3679 29.8169 12.4704 29.1694 13.1704C25.1269 17.5104 25.3194 21.8854 25.3194 21.9379C25.3719 22.8829 24.6369 23.7054 23.6919 23.7579C23.6569 23.7404 23.6219 23.7404 23.5869 23.7404Z" fill="#77C6E9"/>
<path d="M23.6238 23.738C22.6613 23.738 21.8913 22.968 21.8913 22.0055C21.8913 20.133 20.7188 18.593 20.1238 18.593C19.3363 18.593 18.0763 20.1505 18.0763 22.0055C18.0763 22.968 17.3063 23.738 16.3438 23.738C15.3813 23.738 14.6113 22.968 14.6113 22.0055C14.6113 18.768 16.8688 15.1455 20.1063 15.1455C23.1863 15.1455 25.3213 18.768 25.3213 22.023C25.3563 22.9505 24.5863 23.738 23.6238 23.738Z" fill="#FA627D"/>
<path d="M18.0901 21.989C18.0901 21.8665 18.0901 21.744 18.1076 21.604C18.0726 20.799 17.8451 18.804 16.9526 16.459C15.6051 17.7365 14.7476 19.714 14.6426 21.639C14.6601 21.884 14.6601 22.024 14.6601 22.024C14.6601 22.724 15.0976 23.3365 15.6926 23.599C15.9026 23.6865 16.1126 23.739 16.3576 23.739C17.3201 23.7215 18.0901 22.9515 18.0901 21.989Z" fill="#F99964"/>
<path d="M23.0397 16.3721C22.0947 18.6996 21.9022 20.6246 21.8672 21.5346C21.8847 21.6921 21.9022 21.8496 21.9022 22.0071C21.9022 22.9521 22.6722 23.7396 23.6172 23.7396H23.6347C23.6697 23.7396 23.7222 23.7221 23.7572 23.7221C24.6672 23.6346 25.3672 22.8471 25.3147 21.9196C25.3147 21.9196 25.3147 21.7446 25.3322 21.4296C25.1922 19.5221 24.3522 17.5796 23.0397 16.3721Z" fill="#777CEA"/>
</g>
<defs>
<clipPath id="clip0_8270_15177">
<rect width="40" height="40" fill="white"/>
</clipPath>
</defs>
</svg>
