<svg width="9" height="12" viewBox="0 0 9 12" fill="none" xmlns="http://www.w3.org/2000/svg">
<path d="M8 4.5C8 7.36364 4.5 10.5455 4.5 10.5455C4.5 10.5455 1 7.36364 1 4.5C1 3.57174 1.36875 2.6815 2.02513 2.02513C2.6815 1.36875 3.57174 1 4.5 1C5.42826 1 6.3185 1.36875 6.97487 2.02513C7.63125 2.6815 8 3.57174 8 4.5V4.5Z" stroke="#828282" stroke-linecap="round" stroke-linejoin="round"/>
<path d="M4.49911 6.091C5.37775 6.091 6.09002 5.37872 6.09002 4.50009C6.09002 3.62145 5.37775 2.90918 4.49911 2.90918C3.62048 2.90918 2.9082 3.62145 2.9082 4.50009C2.9082 5.37872 3.62048 6.091 4.49911 6.091Z" stroke="#828282" stroke-linecap="round" stroke-linejoin="round"/>
</svg>
