<svg width="20" height="20" viewBox="0 0 20 20" fill="none" xmlns="http://www.w3.org/2000/svg">
<g clip-path="url(#clip0_8270_15093)">
<path d="M17 7.96667C17 13.6667 10 20 10 20C10 20 3 13.6667 3 7.96667C3 6.11899 3.7375 4.34699 5.05025 3.04049C6.36301 1.73399 8.14348 1 10 1C11.8565 1 13.637 1.73399 14.9497 3.04049C16.2625 4.34699 17 6.11899 17 7.96667Z" fill="white" stroke="#FA627D" stroke-linecap="round" stroke-linejoin="round"/>
<path d="M8.19353 11.8687C7.72103 11.8687 7.33603 11.4837 7.32728 11.0112C7.32728 10.9937 7.27478 8.49118 5.41978 6.59243C5.08728 6.25118 5.09603 5.69993 5.43728 5.36743C5.77853 5.03493 6.32103 5.03493 6.66228 5.37618C9.02478 7.78243 9.06853 10.8624 9.06853 10.9937C9.06853 11.4749 8.68353 11.8599 8.19353 11.8687C8.20228 11.8687 8.20228 11.8687 8.19353 11.8687Z" fill="#FFC658"/>
<path d="M11.7934 11.8702C11.3384 11.8702 10.9534 11.5115 10.9272 11.0565C10.9184 10.934 10.7959 8.10771 13.3159 5.40396C13.6397 5.05396 14.1909 5.03646 14.5409 5.36021C14.8909 5.68396 14.9084 6.23521 14.5847 6.58521C12.5634 8.75521 12.6597 10.9427 12.6597 10.969C12.6859 11.4415 12.3184 11.8527 11.8459 11.879C11.8284 11.8702 11.8109 11.8702 11.7934 11.8702Z" fill="#77C6E9"/>
<path d="M11.8109 11.869C11.3297 11.869 10.9447 11.484 10.9447 11.0028C10.9447 10.0665 10.3584 9.2965 10.0609 9.2965C9.66719 9.2965 9.03719 10.0753 9.03719 11.0028C9.03719 11.484 8.65219 11.869 8.17094 11.869C7.68969 11.869 7.30469 11.484 7.30469 11.0028C7.30469 9.384 8.43344 7.57275 10.0522 7.57275C11.5922 7.57275 12.6597 9.384 12.6597 11.0115C12.6772 11.4753 12.2922 11.869 11.8109 11.869Z" fill="#FA627D"/>
<path d="M9.04406 10.9945C9.04406 10.9332 9.04406 10.872 9.05281 10.802C9.03531 10.3995 8.92156 9.40199 8.47531 8.22949C7.80156 8.86824 7.37281 9.85699 7.32031 10.8195C7.32906 10.942 7.32906 11.012 7.32906 11.012C7.32906 11.362 7.54781 11.6682 7.84531 11.7995C7.95031 11.8432 8.05531 11.8695 8.17781 11.8695C8.65906 11.8607 9.04406 11.4757 9.04406 10.9945Z" fill="#F99964"/>
<path d="M11.5198 8.18604C11.0473 9.34979 10.9511 10.3123 10.9336 10.7673C10.9423 10.846 10.9511 10.9248 10.9511 11.0035C10.9511 11.476 11.3361 11.8698 11.8086 11.8698H11.8173C11.8348 11.8698 11.8611 11.861 11.8786 11.861C12.3336 11.8173 12.6836 11.4235 12.6573 10.9598C12.6573 10.9598 12.6573 10.8723 12.6661 10.7148C12.5961 9.76103 12.1761 8.78979 11.5198 8.18604Z" fill="#777CEA"/>
</g>
<defs>
<clipPath id="clip0_8270_15093">
<rect width="20" height="20" fill="white"/>
</clipPath>
</defs>
</svg>
