<svg width="16" height="16" viewBox="0 0 16 16" fill="none" xmlns="http://www.w3.org/2000/svg">
<g clip-path="url(#clip0_6624:13464)">
<path d="M5.3324 15.625H5.33235C5.27247 15.6252 5.21408 15.6064 5.16554 15.5713L5.16396 15.5702L0.497298 12.2368L0.497207 12.2368C0.459446 12.2098 0.42866 12.1743 0.407405 12.133C0.386172 12.0918 0.375063 12.0461 0.375 11.9998V0.666667C0.375 0.589312 0.405729 0.515125 0.460427 0.460427C0.513586 0.407268 0.585152 0.376749 0.660144 0.375073C0.660458 0.375784 0.686387 0.380412 0.744828 0.407098C0.810566 0.437116 0.887852 0.481141 0.968536 0.532385C1.09611 0.613412 1.20573 0.694817 1.27556 0.746673C1.29562 0.761573 1.3124 0.774034 1.32538 0.783345L1.32583 0.783672L5.50308 3.77161C5.54091 3.79869 5.57172 3.83442 5.59293 3.87582L5.92668 3.70485L5.59293 3.87582C5.61413 3.91722 5.62513 3.96309 5.625 4.00961V4.01067V15.3333V15.3337C5.62506 15.3873 5.61033 15.4399 5.58244 15.4857C5.55477 15.5312 5.5152 15.5682 5.46802 15.5927C5.42592 15.6138 5.3795 15.6249 5.3324 15.625Z" fill="#53B2E8" stroke="#53B2E8" stroke-width="0.75"/>
<path d="M9.33203 12.292H7.70703V9.04199H9.6237V12.0003C9.6237 12.0777 9.59297 12.1519 9.53827 12.2066C9.48357 12.2613 9.40939 12.292 9.33203 12.292Z" fill="#53B2E8" stroke="#53B2E8" stroke-width="0.75"/>
<path d="M7.70897 4.01067V4.01034C7.70864 3.63337 7.61891 3.26185 7.44714 2.92629C7.27537 2.59073 7.02646 2.30069 6.72085 2.07999L6.71945 2.07898L4.33693 0.375H9.33397C9.41132 0.375 9.48551 0.405729 9.54021 0.460427C9.59491 0.515126 9.62564 0.589313 9.62564 0.666667V4.29167H7.70897V4.01067Z" fill="#53B2E8" stroke="#53B2E8" stroke-width="0.75"/>
<path d="M15.7221 6.89681C15.8661 6.77687 15.8661 6.55581 15.7221 6.43587L12.4908 3.74305C12.2954 3.58022 11.9987 3.71917 11.9987 3.97352V5.69967C11.9987 5.86536 11.8644 5.99967 11.6987 5.99967H7.63203C7.46635 5.99967 7.33203 6.13399 7.33203 6.29967V7.03301C7.33203 7.19869 7.46635 7.33301 7.63203 7.33301H11.6987C11.8644 7.33301 11.9987 7.46732 11.9987 7.63301V9.35916C11.9987 9.61351 12.2954 9.75246 12.4908 9.58963L15.7221 6.89681Z" fill="#53B2E8"/>
</g>
<defs>
<clipPath id="clip0_6624:13464">
<rect width="16" height="16" fill="white"/>
</clipPath>
</defs>
</svg>
