<svg width="20" height="22" viewBox="0 0 20 22" fill="none" xmlns="http://www.w3.org/2000/svg">
<path d="M17.2897 14.6482H16.9018V9.56843C16.9018 6.40974 14.8514 3.73132 12.0067 2.77078V2.27204C12.0067 1.01595 10.9908 0 9.73468 0C8.47859 0 7.44416 1.01595 7.44416 2.29051V2.77078C4.5995 3.73132 2.54912 6.40974 2.54912 9.56843V14.6297H2.16121C0.960537 14.6482 0 15.6087 0 16.8094V18.5088C0 18.712 0.166247 18.8783 0.369437 18.8783H6.66835C6.66835 18.8967 6.66835 18.9152 6.66835 18.9337C6.66835 20.6331 8.03526 22 9.73468 22C11.4341 22 12.801 20.6331 12.801 18.9337C12.801 18.9152 12.801 18.8967 12.801 18.8783H19.0999C19.3031 18.8783 19.4694 18.712 19.4694 18.5088V16.8094C19.4509 15.6087 18.4903 14.6482 17.2897 14.6482ZM8.18304 2.29051C8.18304 1.44081 8.88497 0.738875 9.73468 0.738875C10.5844 0.738875 11.2678 1.44081 11.2678 2.29051V2.58606C10.7691 2.47523 10.2519 2.41982 9.7162 2.41982C9.18052 2.41982 8.66331 2.47523 8.16457 2.58606V2.29051H8.18304ZM12.0621 18.9152C12.0621 20.1898 11.0092 21.2427 9.73468 21.2427C8.46012 21.2427 7.40722 20.1898 7.40722 18.9152C7.40722 18.8967 7.40722 18.8783 7.40722 18.8598H12.0621C12.0621 18.8783 12.0621 18.8967 12.0621 18.9152ZM18.712 18.1209H0.738875V16.8094C0.738875 16.0336 1.38539 15.3871 2.16121 15.3871H2.91856C3.12175 15.3871 3.28799 15.2208 3.28799 15.0176V9.56843C3.28799 6.02183 6.18808 3.14022 9.73468 3.14022C13.2813 3.14022 16.1629 6.02183 16.1629 9.56843V14.9992C16.1629 15.2024 16.3291 15.3686 16.5323 15.3686H17.2897C18.0655 15.3686 18.712 16.0151 18.712 16.7909V18.1209Z" fill="#494949"/>
</svg>
