<svg width="75" height="63" viewBox="0 0 75 63" fill="none" xmlns="http://www.w3.org/2000/svg">
<path d="M22.4434 17.7437H6.02012C2.69321 17.7437 0 20.4369 0 23.7638V40.2927C0 42.6691 1.9539 44.6229 4.33026 44.6229C4.91115 44.6229 5.43923 44.5173 5.9145 44.3061V58.3002C5.9145 60.8878 8.02682 62.9473 10.5616 62.9473C12.0402 62.9473 13.3076 62.2608 14.1526 61.2047C14.9975 62.2608 16.3177 62.9473 17.7435 62.9473C20.3311 62.9473 22.3906 60.835 22.3906 58.3002V44.3589C22.8659 44.5701 23.394 44.6758 23.9749 44.6758C26.3512 44.6758 28.3051 42.7219 28.3051 40.3455V23.7638C28.4635 20.4369 25.7703 17.7437 22.4434 17.7437ZM26.3512 40.2927C26.3512 41.5073 25.3479 42.5106 24.1333 42.5106C23.4996 42.5106 22.9715 42.2466 22.549 41.8241V30.2064C22.549 29.6255 22.0738 29.1502 21.4929 29.1502C20.912 29.1502 20.4367 29.6255 20.4367 30.2064V58.353C20.4367 59.7789 19.2749 60.8878 17.9019 60.8878C16.4761 60.8878 15.3671 59.7261 15.3671 58.353V43.1443C15.3671 42.5634 14.8919 42.0882 14.311 42.0882C13.7301 42.0882 13.2548 42.5634 13.2548 43.1443V58.3002C13.2548 59.7261 12.093 60.835 10.72 60.835C9.34702 60.835 8.18525 59.6732 8.18525 58.3002V30.2064C8.18525 29.6255 7.70997 29.1502 7.12909 29.1502C6.5482 29.1502 6.07293 29.6255 6.07293 30.2064V41.8769C5.65046 42.2994 5.12238 42.5634 4.48868 42.5634C3.2741 42.5634 2.27075 41.5601 2.27075 40.3455V23.7638C2.27075 21.5986 4.01341 19.856 6.17854 19.856H22.6018C24.767 19.856 26.5096 21.5986 26.5096 23.7638V40.2927H26.3512Z" fill="#C4C4C4"/>
<path d="M14.2059 15.2087C18.3778 15.2087 21.8103 11.7762 21.8103 7.60436C21.8103 3.43252 18.4306 0 14.2059 0C9.98128 0 6.60156 3.43252 6.60156 7.60436C6.60156 11.7762 10.0341 15.2087 14.2059 15.2087ZM14.2059 2.11232C17.216 2.11232 19.698 4.5943 19.698 7.60436C19.698 10.6144 17.216 13.0964 14.2059 13.0964C11.1959 13.0964 8.71388 10.6144 8.71388 7.60436C8.71388 4.5943 11.1959 2.11232 14.2059 2.11232Z" fill="#C4C4C4"/>
<path d="M69.0743 17.7437H52.651C49.3241 17.7437 46.6309 20.4369 46.6309 23.7638V40.2927C46.6309 42.6691 48.5848 44.6229 50.9611 44.6229C51.542 44.6229 52.0701 44.5173 52.5454 44.3061V58.3002C52.5454 60.8878 54.6577 62.9473 57.1925 62.9473C58.6711 62.9473 59.9385 62.2608 60.7834 61.2047C61.6283 62.2608 62.9485 62.9473 64.3744 62.9473C66.962 62.9473 69.0215 60.835 69.0215 58.3002V44.3589C69.4967 44.5701 70.0248 44.6758 70.6057 44.6758C72.9821 44.6758 74.936 42.7219 74.936 40.3455V23.7638C75.0944 20.4369 72.4012 17.7437 69.0743 17.7437ZM72.9821 40.2927C72.9821 41.5073 71.9787 42.5106 70.7641 42.5106C70.1304 42.5106 69.6024 42.2466 69.1799 41.8241V30.2064C69.1799 29.6255 68.7046 29.1502 68.1237 29.1502C67.5428 29.1502 67.0676 29.6255 67.0676 30.2064V58.353C67.0676 59.7789 65.9058 60.8878 64.5328 60.8878C63.1598 60.8878 61.998 59.7261 61.998 58.353V43.1443C61.998 42.5634 61.5227 42.0882 60.9418 42.0882C60.361 42.0882 59.8857 42.5634 59.8857 43.1443V58.3002C59.8857 59.7261 58.7239 60.835 57.3509 60.835C55.9779 60.835 54.8161 59.6732 54.8161 58.3002V30.2064C54.8161 29.6255 54.3408 29.1502 53.7599 29.1502C53.1791 29.1502 52.7038 29.6255 52.7038 30.2064V41.8769C52.2813 42.2994 51.7532 42.5634 51.1195 42.5634C49.905 42.5634 48.9016 41.5601 48.9016 40.3455V23.7638C48.9016 21.5986 50.6443 19.856 52.8094 19.856H69.2327C71.3978 19.856 73.1405 21.5986 73.1405 23.7638V40.2927H72.9821Z" fill="#C4C4C4"/>
<path d="M60.8876 15.2087C65.0594 15.2087 68.4919 11.7762 68.4919 7.60436C68.4919 3.43252 65.0594 0 60.8876 0C56.7157 0 53.2832 3.43252 53.2832 7.60436C53.2832 11.7762 56.6629 15.2087 60.8876 15.2087ZM60.8876 2.11232C63.8976 2.11232 66.3796 4.5943 66.3796 7.60436C66.3796 10.6144 63.8976 13.0964 60.8876 13.0964C57.8775 13.0964 55.3955 10.6144 55.3955 7.60436C55.3955 4.5943 57.8247 2.11232 60.8876 2.11232Z" fill="#C4C4C4"/>
<path d="M49.8506 7.60441C49.8506 7.34037 49.745 7.07633 49.5337 6.86509L46.1012 3.43257C45.6788 3.01011 45.0451 3.01011 44.6226 3.43257C44.2001 3.85504 44.2001 4.48873 44.6226 4.9112L46.2596 6.54825H28.833L30.47 4.9112C30.8925 4.48873 30.8925 3.85504 30.47 3.43257C30.0476 3.01011 29.4139 3.01011 28.9914 3.43257L25.5589 6.86509C25.5061 6.9179 25.4533 6.97071 25.4533 7.02352V7.07633C25.4005 7.12913 25.4005 7.18194 25.4005 7.23475V7.28756C25.4005 7.34037 25.3477 7.39317 25.3477 7.44598C25.3477 7.49879 25.3477 7.60441 25.3477 7.65721C25.3477 7.71002 25.3477 7.81564 25.3477 7.86845C25.3477 7.92126 25.3477 7.97406 25.4005 7.97406V8.02687C25.4005 8.07968 25.4533 8.13249 25.4533 8.13249C25.4533 8.13249 25.4533 8.1853 25.5061 8.1853C25.5589 8.2381 25.6117 8.29091 25.6117 8.34372L29.0442 11.7762C29.2555 11.9875 29.5195 12.0931 29.7835 12.0931C30.0476 12.0931 30.3116 11.9875 30.5228 11.7762C30.9453 11.3538 30.9453 10.7201 30.5228 10.2976L28.8858 8.66057H46.3124L44.6754 10.2976C44.2529 10.7201 44.2529 11.3538 44.6754 11.7762C44.8866 11.9875 45.1507 12.0931 45.4147 12.0931C45.6788 12.0931 45.9428 11.9875 46.154 11.7762L49.5865 8.34372C49.745 8.13249 49.8506 7.86845 49.8506 7.60441Z" fill="#C4C4C4"/>
</svg>
