<svg width="16" height="16" viewBox="0 0 16 16" fill="none" xmlns="http://www.w3.org/2000/svg">
<path d="M13 2.125H11.375V1.5C11.375 1.40054 11.3355 1.30516 11.2652 1.23483C11.1948 1.16451 11.0995 1.125 11 1.125C10.9005 1.125 10.8052 1.16451 10.7348 1.23483C10.6645 1.30516 10.625 1.40054 10.625 1.5V2.125H5.375V1.5C5.375 1.40054 5.33549 1.30516 5.26516 1.23483C5.19484 1.16451 5.09946 1.125 5 1.125C4.90054 1.125 4.80516 1.16451 4.73484 1.23483C4.66451 1.30516 4.625 1.40054 4.625 1.5V2.125H3C2.76794 2.125 2.54538 2.21719 2.38128 2.38128C2.21719 2.54538 2.125 2.76794 2.125 3V13C2.125 13.2321 2.21719 13.4546 2.38128 13.6187C2.54538 13.7828 2.76794 13.875 3 13.875H13C13.2321 13.875 13.4546 13.7828 13.6187 13.6187C13.7828 13.4546 13.875 13.2321 13.875 13V3C13.875 2.76794 13.7828 2.54538 13.6187 2.38128C13.4546 2.21719 13.2321 2.125 13 2.125ZM13.125 13C13.125 13.0332 13.1118 13.0649 13.0884 13.0884C13.0649 13.1118 13.0332 13.125 13 13.125H3C2.96685 13.125 2.93505 13.1118 2.91161 13.0884C2.88817 13.0649 2.875 13.0332 2.875 13V5.875H13.125V13ZM13.125 5.125H2.875V3C2.875 2.96685 2.88817 2.93505 2.91161 2.91161C2.93505 2.88817 2.96685 2.875 3 2.875H4.625V3.5C4.625 3.59946 4.66451 3.69484 4.73484 3.76517C4.80516 3.83549 4.90054 3.875 5 3.875C5.09946 3.875 5.19484 3.83549 5.26516 3.76517C5.33549 3.69484 5.375 3.59946 5.375 3.5V2.875H10.625V3.5C10.625 3.59946 10.6645 3.69484 10.7348 3.76517C10.8052 3.83549 10.9005 3.875 11 3.875C11.0995 3.875 11.1948 3.83549 11.2652 3.76517C11.3355 3.69484 11.375 3.59946 11.375 3.5V2.875H13C13.0332 2.875 13.0649 2.88817 13.0884 2.91161C13.1118 2.93505 13.125 2.96685 13.125 3V5.125ZM5.875 9.5C5.875 9.40054 5.91451 9.30516 5.98484 9.23483C6.05516 9.16451 6.15054 9.125 6.25 9.125H7.625V7.75C7.625 7.65054 7.66451 7.55516 7.73484 7.48484C7.80516 7.41451 7.90054 7.375 8 7.375C8.09946 7.375 8.19484 7.41451 8.26517 7.48484C8.33549 7.55516 8.375 7.65054 8.375 7.75V9.125H9.75C9.84946 9.125 9.94484 9.16451 10.0152 9.23483C10.0855 9.30516 10.125 9.40054 10.125 9.5C10.125 9.59946 10.0855 9.69484 10.0152 9.76517C9.94484 9.83549 9.84946 9.875 9.75 9.875H8.375V11.25C8.375 11.3495 8.33549 11.4448 8.26517 11.5152C8.19484 11.5855 8.09946 11.625 8 11.625C7.90054 11.625 7.80516 11.5855 7.73484 11.5152C7.66451 11.4448 7.625 11.3495 7.625 11.25V9.875H6.25C6.15054 9.875 6.05516 9.83549 5.98484 9.76517C5.91451 9.69484 5.875 9.59946 5.875 9.5Z" fill="white"/>
</svg>
