<svg width="14" height="17" viewBox="0 0 14 17" fill="none" xmlns="http://www.w3.org/2000/svg">
<path d="M7.66758 12.2502C6.6394 12.1707 6.20737 11.6609 5.40103 11.1714C4.95785 13.4966 4.41624 15.7256 2.81203 16.89C2.31624 13.3756 3.53886 10.7359 4.10665 7.93409C3.13884 6.30491 4.22302 3.02569 6.26435 3.83374C8.77673 4.82725 4.08919 9.89154 7.23604 10.5241C10.5213 11.1845 11.8625 4.82361 9.82504 2.75465C6.88135 -0.232432 1.25655 2.68676 1.94822 6.96289C2.11672 8.00828 3.19702 8.32563 2.37976 9.76814C0.495776 9.3509 -0.0661957 7.865 0.0060509 5.88404C0.122664 2.64143 2.91967 0.370995 5.72517 0.0567957C9.27325 -0.340318 12.6034 1.35966 13.063 4.69706C13.5802 8.46382 11.4613 12.5431 7.66758 12.2502Z" fill="#494949"/>
</svg>
