<svg width="18" height="18" viewBox="0 0 18 18" fill="none" xmlns="http://www.w3.org/2000/svg">
<g clip-path="url(#clip0)">
<path d="M9.00314 5.63281C7.76115 5.63281 6.74609 6.47473 6.74609 7.50769C6.74609 8.54066 7.76115 9.38258 9.00314 9.38258V8.60632C8.18513 8.60632 7.52235 8.11075 7.52235 7.50764C7.52235 6.90458 8.18513 6.40895 9.00314 6.40895C9.82115 6.40895 10.4839 6.90453 10.4839 7.50764H11.2602C11.2602 6.47473 10.2451 5.63281 9.00314 5.63281Z" fill="#53B2E8"/>
<path d="M9.00314 8.60547V9.38172C9.82115 9.38172 10.4839 9.8773 10.4839 10.4804C10.4839 11.0835 9.82115 11.5791 9.00314 11.5791C8.18513 11.5791 7.52235 11.0835 7.52235 10.4804H6.74609C6.74609 11.5134 7.76115 12.3553 9.00314 12.3553C10.2451 12.3553 11.2602 11.5134 11.2602 10.4804C11.2602 9.44738 10.2451 8.60547 9.00314 8.60547Z" fill="#53B2E8"/>
<path d="M9.39149 4.87402H8.61523V6.02046H9.39149V4.87402Z" fill="#53B2E8"/>
<path d="M9.39149 11.9678H8.61523V13.1142H9.39149V11.9678Z" fill="#53B2E8"/>
<path d="M17.5714 9.56147C17.2788 9.23903 17.2788 8.76137 17.5714 8.44487C17.9296 8.05677 18.0729 7.51938 17.9595 7.00583C17.8401 6.48635 17.4698 6.06243 16.9743 5.86539C16.5623 5.69818 16.3473 5.26826 16.4727 4.85626C16.616 4.37261 16.5264 3.85313 16.2219 3.44712C15.9114 3.02913 15.4337 2.79033 14.9143 2.79033C14.8724 2.79033 14.8366 2.79632 14.8008 2.79632C14.353 2.82022 13.9649 2.5157 13.8932 2.09172C13.7618 1.30953 13.0811 0.736315 12.2751 0.736315C12.0004 0.736315 11.7197 0.807967 11.475 0.945282C11.3436 1.02292 11.1943 1.05875 11.045 1.05875C10.7644 1.05875 10.5017 0.921435 10.3404 0.694499C10.0299 0.258595 9.54034 0.0078125 8.99696 0.0078125C8.45358 0.0078125 7.96993 0.252606 7.65348 0.688509C7.49825 0.915389 7.22956 1.04677 6.94888 1.04677C6.79959 1.04677 6.65628 1.01094 6.52496 0.939292C6.28016 0.801977 5.99949 0.730325 5.72486 0.730325C4.91278 0.730325 4.23208 1.29755 4.10669 2.08573C4.04103 2.49179 3.68277 2.79033 3.25884 2.79033C3.24093 2.79033 3.21703 2.79033 3.19912 2.79033C3.16329 2.78434 3.12746 2.78434 3.09164 2.78434C2.57216 2.78434 2.07658 3.03512 1.77206 3.44712C1.46754 3.85912 1.37797 4.37261 1.52727 4.86225C1.65266 5.26826 1.4377 5.70417 1.0257 5.86539C0.524135 6.06243 0.159884 6.48635 0.0404825 7.00583C-0.0789193 7.51339 0.0703189 8.05078 0.42858 8.43888C0.721179 8.76131 0.721179 9.23898 0.42858 9.55548C0.0703189 9.94357 -0.0729856 10.481 0.0404825 10.9945C0.159884 11.514 0.530125 11.9379 1.0257 12.135C1.4377 12.3022 1.65266 12.7321 1.52727 13.1441C1.38396 13.6337 1.47353 14.1472 1.77805 14.5592C2.0945 14.9772 2.57221 15.216 3.09763 15.216C3.13345 15.216 3.16329 15.21 3.19912 15.21C3.64694 15.1861 4.03504 15.4906 4.10669 15.9146C4.23807 16.7028 4.91877 17.27 5.72486 17.27C5.99954 17.27 6.28016 17.1984 6.52496 17.0611C6.65634 16.9834 6.80558 16.9476 6.95487 16.9476C7.23549 16.9476 7.49825 17.079 7.65947 17.3058C7.96998 17.7358 8.47155 17.9925 9.00295 17.9925C9.54034 17.9925 10.0419 17.7358 10.3404 17.3058C10.4957 17.079 10.7584 16.9476 11.045 16.9476C11.1943 16.9476 11.3376 16.9834 11.469 17.0551C11.7138 17.1924 11.9944 17.264 12.2691 17.264C13.0811 17.264 13.7618 16.6968 13.8872 15.9086C13.9529 15.5026 14.3112 15.204 14.7351 15.204C14.753 15.204 14.7769 15.204 14.7949 15.204C14.8307 15.21 14.8665 15.21 14.9023 15.21C15.4278 15.21 15.9115 14.9712 16.2219 14.5532C16.5264 14.1412 16.622 13.6277 16.4727 13.1381C16.3473 12.7321 16.5623 12.2962 16.9743 12.135C17.4758 11.9379 17.8401 11.514 17.9595 10.9945C18.0789 10.487 17.9296 9.94962 17.5714 9.56147ZM16.9862 10.075C17.1772 10.2721 17.2489 10.5408 17.1892 10.8094C17.1295 11.0781 16.9444 11.2931 16.6757 11.4006C15.8876 11.717 15.4756 12.5589 15.7203 13.3531C15.792 13.6039 15.7443 13.8726 15.589 14.0815C15.4278 14.3025 15.177 14.4279 14.8963 14.4279C14.8784 14.4279 14.8605 14.4279 14.8426 14.4279C13.9947 14.3682 13.2543 14.9593 13.123 15.7774C13.0513 16.2371 12.6393 16.482 12.2751 16.482C12.1258 16.482 11.9825 16.4461 11.8511 16.3745C11.6063 16.2372 11.3316 16.1655 11.051 16.1655C10.5196 16.1655 10.0181 16.4223 9.71354 16.8522C9.55232 17.0791 9.29555 17.2105 9.00894 17.2105C8.71634 17.2105 8.45962 17.0791 8.29841 16.8522C7.99388 16.4223 7.49232 16.1655 6.96092 16.1655C6.6803 16.1655 6.40561 16.2372 6.15483 16.3626C6.02345 16.4402 5.88014 16.476 5.7309 16.476C5.36665 16.476 4.96064 16.2372 4.883 15.7714C4.75162 14.9832 4.07092 14.416 3.2589 14.416C3.22906 14.416 3.19917 14.416 3.16335 14.416C2.86481 14.4339 2.58414 14.3026 2.411 14.0697C2.24978 13.8607 2.20796 13.598 2.27962 13.3472C2.52441 12.5471 2.1184 11.7052 1.32423 11.3887C1.06153 11.2812 0.870417 11.0662 0.810744 10.7975C0.751015 10.5288 0.822668 10.2601 1.01378 10.0571C1.587 9.44206 1.587 8.51058 1.01378 7.88962C0.822724 7.69257 0.751071 7.42388 0.810744 7.15518C0.870473 6.88649 1.05554 6.67153 1.32423 6.56405C2.11241 6.24761 2.52441 5.41162 2.27962 4.61153C2.20197 4.36074 2.24978 4.09804 2.40501 3.88901C2.56622 3.66807 2.81701 3.54268 3.09763 3.54268C3.11554 3.54268 3.13345 3.54268 3.15137 3.54268C3.99927 3.60241 4.73964 3.01127 4.87102 2.19321C4.94267 1.73346 5.35467 1.48861 5.71892 1.48861C5.86822 1.48861 6.01152 1.52443 6.14285 1.59609C6.38764 1.7334 6.66233 1.80505 6.94295 1.80505C7.47435 1.80505 7.97591 1.54828 8.28044 1.12436C8.44764 0.897476 8.70436 0.766095 8.99097 0.766095C9.27758 0.766095 9.53435 0.90341 9.7015 1.13035C10.006 1.56026 10.5076 1.81703 11.039 1.81703C11.3137 1.81703 11.5943 1.74538 11.8391 1.60807C11.9705 1.53042 12.1138 1.4946 12.263 1.4946C12.6273 1.4946 13.0333 1.73346 13.1109 2.1992C13.2423 2.98737 13.923 3.5546 14.735 3.5546C14.7708 3.5546 14.8007 3.5546 14.8365 3.5546C15.141 3.5307 15.4157 3.66208 15.5889 3.89495C15.7501 4.10391 15.7919 4.36668 15.7202 4.61746C15.4754 5.41756 15.8815 6.25947 16.6756 6.57597C16.9383 6.68345 17.1294 6.89841 17.1891 7.16711C17.2488 7.4358 17.1772 7.7045 16.9861 7.90753C16.413 8.52251 16.413 9.45399 16.9862 10.075Z" fill="#53B2E8"/>
<path d="M9.00205 2.61719C5.4851 2.61719 2.625 5.47729 2.625 8.99424C2.625 12.5112 5.4851 15.3713 9.00205 15.3713C12.519 15.3713 15.3791 12.5112 15.3791 8.99424C15.3791 5.47729 12.519 2.61719 9.00205 2.61719ZM9.00205 14.595C5.91501 14.595 3.40125 12.0812 3.40125 8.99424C3.40125 5.90726 5.91501 3.39344 9.00205 3.39344C12.0891 3.39344 14.6029 5.90726 14.6029 8.99424C14.6029 12.0812 12.0891 14.595 9.00205 14.595Z" fill="#53B2E8"/>
</g>
<defs>
<clipPath id="clip0">
<rect width="18" height="18" fill="white"/>
</clipPath>
</defs>
</svg>
