<svg width="15" height="15" viewBox="0 0 15 15" fill="none" xmlns="http://www.w3.org/2000/svg">
<path d="M7.5002 3.54639C6.0395 3.54639 4.8457 4.53656 4.8457 5.75142C4.8457 6.96629 6.0395 7.95646 7.5002 7.95646V7.04351C6.53814 7.04351 5.75865 6.46067 5.75865 5.75136C5.75865 5.04211 6.53814 4.4592 7.5002 4.4592C8.46225 4.4592 9.24175 5.04204 9.24175 5.75136H10.1547C10.1547 4.53656 8.96089 3.54639 7.5002 3.54639Z" fill="#494949"/>
<path d="M7.5002 7.04346V7.9564C8.46225 7.9564 9.24175 8.53924 9.24175 9.24856C9.24175 9.95787 8.46225 10.5407 7.5002 10.5407C6.53814 10.5407 5.75865 9.95787 5.75865 9.24856H4.8457C4.8457 10.4634 6.0395 11.4536 7.5002 11.4536C8.96089 11.4536 10.1547 10.4634 10.1547 9.24856C10.1547 8.03363 8.96089 7.04346 7.5002 7.04346Z" fill="#494949"/>
<path d="M7.96177 2.65332H7.04883V4.00164H7.96177V2.65332Z" fill="#494949"/>
<path d="M7.96177 10.9961H7.04883V12.3444H7.96177V10.9961Z" fill="#494949"/>
<path d="M7.5 0C3.36374 0 0 3.36374 0 7.5C0 11.6363 3.36374 15 7.5 15C11.6363 15 15 11.6363 15 7.5C15 3.36374 11.6363 0 7.5 0ZM7.5 14.0871C3.86936 14.0871 0.912943 11.1306 0.912943 7.5C0.912943 3.86943 3.86936 0.912943 7.5 0.912943C11.1306 0.912943 14.0871 3.86943 14.0871 7.5C14.0871 11.1306 11.1306 14.0871 7.5 14.0871Z" fill="#494949"/>
</svg>
