<svg width="14" height="13" viewBox="0 0 14 13" fill="none" xmlns="http://www.w3.org/2000/svg">
<path fill-rule="evenodd" clip-rule="evenodd" d="M8.98357 8.48439C9.05903 8.40885 9.14864 8.34892 9.24727 8.30803C9.34591 8.26714 9.45163 8.24609 9.55841 8.24609C9.66518 8.24609 9.77091 8.26714 9.86954 8.30803C9.96818 8.34892 10.0578 8.40885 10.1332 8.48439L13.2613 11.6126C13.4138 11.7649 13.4995 11.9716 13.4995 12.1871C13.4996 12.4027 13.4141 12.6094 13.2617 12.7619C13.1094 12.9143 12.9027 13 12.6872 13.0001C12.4717 13.0002 12.2649 12.9146 12.1125 12.7623L8.98439 9.6341C8.90884 9.55864 8.84892 9.46903 8.80803 9.37039C8.76714 9.27175 8.74609 9.16602 8.74609 9.05925C8.74609 8.95247 8.76714 8.84674 8.80803 8.7481C8.84892 8.64946 8.90884 8.55985 8.98439 8.48439H8.98357Z" fill="#858585"/>
<path fill-rule="evenodd" clip-rule="evenodd" d="M5.78117 9.75018C6.36801 9.75018 6.9491 9.63459 7.49127 9.41001C8.03343 9.18543 8.52606 8.85626 8.94101 8.44129C9.35597 8.02632 9.68513 7.53368 9.9097 6.9915C10.1343 6.44931 10.2499 5.8682 10.2499 5.28135C10.2499 4.69449 10.1343 4.11338 9.9097 3.5712C9.68513 3.02902 9.35597 2.53637 8.94101 2.12141C8.52606 1.70644 8.03343 1.37726 7.49127 1.15268C6.9491 0.928105 6.36801 0.812515 5.78117 0.812515C4.59601 0.812515 3.45938 1.28334 2.62134 2.12141C1.7833 2.95947 1.31249 4.09614 1.31249 5.28135C1.31249 6.46655 1.7833 7.60322 2.62134 8.44129C3.45938 9.27936 4.59601 9.75018 5.78117 9.75018ZM11.0623 5.28135C11.0623 6.68205 10.5059 8.02538 9.51553 9.01582C8.52512 10.0063 7.18183 10.5627 5.78117 10.5627C4.38052 10.5627 3.03723 10.0063 2.04682 9.01582C1.05641 8.02538 0.5 6.68205 0.5 5.28135C0.5 3.88065 1.05641 2.53732 2.04682 1.54687C3.03723 0.556426 4.38052 0 5.78117 0C7.18183 0 8.52512 0.556426 9.51553 1.54687C10.5059 2.53732 11.0623 3.88065 11.0623 5.28135Z" fill="#858585"/>
</svg>
