<svg width="62" height="73" viewBox="0 0 62 73" fill="none" xmlns="http://www.w3.org/2000/svg">
<path d="M30.5496 0C13.6798 0 0 13.6798 0 30.5496C0 38.8311 3.25126 46.6219 9.20168 52.3882C9.20168 52.3882 9.20168 52.3882 9.26303 52.4496L29.6908 72.6319C29.9361 72.8773 30.2429 73 30.5496 73C30.8563 73 31.163 72.8773 31.4084 72.6319L51.8361 52.4496C57.7866 46.6218 61.0992 38.8924 61.0992 30.5496C61.0992 13.6798 47.4193 0 30.5496 0ZM50.1185 50.7319L30.5496 70.0555L11.042 50.7319L10.9807 50.6706C5.45966 45.3336 2.45378 38.2176 2.45378 30.5496C2.45378 15.0294 15.0294 2.45378 30.5496 2.45378C46.0697 2.45378 58.6454 15.0294 58.6454 30.5496C58.6454 38.2176 55.6395 45.3336 50.1185 50.7319Z" fill="#C4C4C4"/>
<path d="M39.4467 31.1631V26.3169H31.9627V31.5312H26.8711V38.9539H32.024V45.395H34.2324V36.6228H29.1408V33.8009H34.2938V28.5866H37.177V31.1631H39.4467Z" fill="#C4C4C4"/>
<path d="M23.9258 14.6616H15.2148V23.3725H23.9258V14.6616ZM21.5947 21.1028H17.4846V16.9927H21.5947V21.1028Z" fill="#C4C4C4"/>
<path d="M37.1758 23.3725H45.8867V14.6616H37.1758V23.3725ZM39.4455 16.9927H43.5556V21.1028H39.4455V16.9927Z" fill="#C4C4C4"/>
<path d="M15.2148 45.3332H23.9258V36.6836H15.2148V45.3332ZM17.5459 38.9533H21.656V43.0634H17.5459V38.9533Z" fill="#C4C4C4"/>
<path d="M17.4846 28.5864H29.0787V19.8755H26.809V26.3167H15.2148V33.7394H17.4846V28.5864Z" fill="#C4C4C4"/>
<path d="M43.6162 34.1076H37.2363V36.3161H45.8859V26.3169H43.6162V34.1076Z" fill="#C4C4C4"/>
<path d="M37.1758 45.3952H39.4455V41.5918H43.617V45.3952H45.8867V39.2607H37.1758V45.3952Z" fill="#C4C4C4"/>
<path d="M32.024 23.3722H34.2324V14.7227H26.8711V16.9924H32.024V23.3722Z" fill="#C4C4C4"/>
<path d="M23.9263 31.5312H20.4297V33.7397H23.9263V31.5312Z" fill="#C4C4C4"/>
<path d="M29.0795 41.8374H26.8711V45.334H29.0795V41.8374Z" fill="#C4C4C4"/>
</svg>
