<svg width="53" height="53" viewBox="0 0 53 53" fill="none" xmlns="http://www.w3.org/2000/svg">
<path d="M36.4375 1.65625H19.875C18.7772 1.65748 17.7247 2.09412 16.9485 2.87037C16.1722 3.64662 15.7356 4.69909 15.7344 5.79688V8.28125C13.5381 8.28125 11.4317 9.15374 9.87865 10.7068C8.32561 12.2598 7.45313 14.3662 7.45312 16.5625C7.45313 18.7588 8.32561 20.8652 9.87865 22.4182C11.4317 23.9713 13.5381 24.8438 15.7344 24.8438V40.5781C15.7356 41.6759 16.1722 42.7284 16.9485 43.5046C17.7247 44.2809 18.7772 44.7175 19.875 44.7188H31.4498L31.4688 44.7518V50.5156C31.4688 50.7353 31.556 50.9459 31.7113 51.1012C31.8666 51.2565 32.0772 51.3438 32.2969 51.3438H44.7188C44.9384 51.3438 45.149 51.2565 45.3043 51.1012C45.4596 50.9459 45.5469 50.7353 45.5469 50.5156V44.8947L47.1533 40.4773C47.1863 40.3865 47.2031 40.2907 47.2031 40.1942V29.8125C47.2032 29.415 47.1078 29.0234 46.9251 28.6704C46.7424 28.3174 46.4777 28.0134 46.1532 27.7839C45.8287 27.5544 45.4538 27.4061 45.0601 27.3515C44.6664 27.2969 44.2654 27.3376 43.8906 27.47V27.3281C43.8909 26.9306 43.7957 26.5388 43.6131 26.1857C43.4305 25.8326 43.1657 25.5285 42.8411 25.2991C42.5165 25.0696 42.1415 24.9215 41.7477 24.8671C41.3539 24.8127 40.9528 24.8537 40.5781 24.9866V5.79688C40.5769 4.69909 40.1403 3.64662 39.364 2.87037C38.5878 2.09412 37.5353 1.65748 36.4375 1.65625ZM19.875 3.3125H36.4375C36.9511 3.31316 37.4518 3.4727 37.8711 3.76923C38.2904 4.06576 38.6077 4.48476 38.7794 4.96875H17.5331C17.7048 4.48476 18.0221 4.06576 18.4414 3.76923C18.8607 3.4727 19.3614 3.31316 19.875 3.3125ZM17.3906 6.625H38.9219V24.1586C38.3862 23.9683 37.8015 23.968 37.2656 24.1575V12.4219C37.2656 12.2022 37.1784 11.9916 37.0231 11.8363C36.8678 11.681 36.6571 11.5938 36.4375 11.5938H22.3548C21.1394 9.97446 19.3738 8.85557 17.3906 8.44791V6.625ZM33.125 14.9062H29.8125C29.5929 14.9062 29.3822 14.9935 29.2269 15.1488C29.0716 15.3041 28.9844 15.5147 28.9844 15.7344V19.0469C28.9844 19.2665 29.0716 19.4771 29.2269 19.6324C29.3822 19.7878 29.5929 19.875 29.8125 19.875H32.4393C32.3449 20.1409 32.2968 20.421 32.2969 20.7031V21.5312H29.8125C29.5929 21.5312 29.3822 21.6185 29.2269 21.7738C29.0716 21.9291 28.9844 22.1397 28.9844 22.3594V25.6719C28.9844 25.8915 29.0716 26.1021 29.2269 26.2574C29.3822 26.4128 29.5929 26.5 29.8125 26.5H32.2969V30.3291C32.0124 30.3809 31.7347 30.4642 31.4688 30.5776V28.9844C31.4688 28.7647 31.3815 28.5541 31.2262 28.3988C31.0709 28.2435 30.8603 28.1562 30.6406 28.1562H25.6719C25.4522 28.1562 25.2416 28.2435 25.0863 28.3988C24.931 28.5541 24.8438 28.7647 24.8438 28.9844V33.125H20.7031V23.1829C21.8456 22.3234 22.7475 21.1842 23.3221 19.875H26.5C26.7196 19.875 26.9303 19.7878 27.0856 19.6324C27.2409 19.4771 27.3281 19.2665 27.3281 19.0469V15.7344C27.3281 15.5147 27.2409 15.3041 27.0856 15.1488C26.9303 14.9935 26.7196 14.9062 26.5 14.9062H23.849C23.7325 14.3371 23.5559 13.7819 23.3221 13.25H35.6094V18.3612C35.0736 18.1713 34.4889 18.1713 33.9531 18.3612V15.7344C33.9531 15.5147 33.8659 15.3041 33.7106 15.1488C33.5553 14.9935 33.3446 14.9062 33.125 14.9062ZM32.2969 16.5625V18.2188H30.6406V16.5625H32.2969ZM32.2969 23.1875V24.8438H30.6406V23.1875H32.2969ZM29.8125 29.8125V31.9999C29.5899 32.3506 29.414 32.7288 29.2892 33.125H26.5V29.8125H29.8125ZM24.0156 18.2188V16.5625H25.6719V18.2188H24.0156ZM15.7344 23.1875C14.4241 23.1875 13.1432 22.799 12.0537 22.071C10.9642 21.343 10.1151 20.3083 9.61367 19.0978C9.11224 17.8872 8.98105 16.5552 9.23667 15.27C9.4923 13.9849 10.1233 12.8044 11.0498 11.8779C11.9763 10.9514 13.1568 10.3204 14.4419 10.0648C15.727 9.80917 17.0591 9.94037 18.2697 10.4418C19.4802 10.9432 20.5149 11.7924 21.2429 12.8818C21.9708 13.9713 22.3594 15.2522 22.3594 16.5625C22.3574 18.319 21.6588 20.0029 20.4168 21.2449C19.1748 22.4869 17.4908 23.1855 15.7344 23.1875ZM17.3906 24.6771C17.9598 24.5606 18.515 24.384 19.0469 24.1502V33.9531C19.0469 34.1728 19.1341 34.3834 19.2894 34.5387C19.4447 34.694 19.6554 34.7812 19.875 34.7812H28.997C28.989 34.9269 28.9844 35.0745 28.9844 35.2249V39.75H17.3906V24.6771ZM19.875 43.0625C19.3614 43.0618 18.8607 42.9023 18.4414 42.6058C18.0221 42.3092 17.7048 41.8902 17.5331 41.4062H29.5527L30.5012 43.0625H19.875ZM41.4062 26.5C41.6258 26.5002 41.8363 26.5876 41.9916 26.7428C42.1468 26.8981 42.2341 27.1086 42.2344 27.3281V34.7812C42.2344 35.0009 42.3216 35.2115 42.4769 35.3668C42.6322 35.5221 42.8429 35.6094 43.0625 35.6094C43.2821 35.6094 43.4928 35.5221 43.6481 35.3668C43.8034 35.2115 43.8906 35.0009 43.8906 34.7812V29.8125C43.8906 29.5929 43.9779 29.3822 44.1332 29.2269C44.2885 29.0716 44.4991 28.9844 44.7188 28.9844C44.9384 28.9844 45.149 29.0716 45.3043 29.2269C45.4596 29.3822 45.5469 29.5929 45.5469 29.8125V40.0478L43.9404 44.4653C43.9075 44.5561 43.8906 44.6518 43.8906 44.7484V49.6875H33.125V44.5314C33.125 44.387 33.0873 44.2452 33.0155 44.1199L30.6406 39.9733V35.2249C30.6406 34.3685 30.8209 32.5368 32.2969 32.0402V34.7812C32.2969 35.0009 32.3841 35.2115 32.5394 35.3668C32.6947 35.5221 32.9054 35.6094 33.125 35.6094C33.3446 35.6094 33.5553 35.5221 33.7106 35.3668C33.8659 35.2115 33.9531 35.0009 33.9531 34.7812V31.4688C33.9529 31.404 33.9451 31.3395 33.9298 31.2765C33.9451 31.2136 33.9529 31.1491 33.9531 31.0843V20.7031C33.9531 20.4835 34.0404 20.2729 34.1957 20.1176C34.351 19.9622 34.5616 19.875 34.7812 19.875C35.0009 19.875 35.2115 19.9622 35.3668 20.1176C35.5221 20.2729 35.6094 20.4835 35.6094 20.7031V31.9913C35.6094 32.2109 35.6966 32.4216 35.8519 32.5769C36.0072 32.7322 36.2179 32.8194 36.4375 32.8194C36.6571 32.8194 36.8678 32.7322 37.0231 32.5769C37.1784 32.4216 37.2656 32.2109 37.2656 31.9913V26.5C37.2656 26.2804 37.3529 26.0697 37.5082 25.9144C37.6635 25.7591 37.8741 25.6719 38.0938 25.6719C38.3134 25.6719 38.524 25.7591 38.6793 25.9144C38.8346 26.0697 38.9219 26.2804 38.9219 26.5V33.125C38.9219 33.3446 39.0091 33.5553 39.1644 33.7106C39.3197 33.8659 39.5304 33.9531 39.75 33.9531C39.9696 33.9531 40.1803 33.8659 40.3356 33.7106C40.4909 33.5553 40.5781 33.3446 40.5781 33.125V27.3281C40.5784 27.1086 40.6657 26.8981 40.8209 26.7428C40.9762 26.5876 41.1867 26.5002 41.4062 26.5Z" fill="#53B2E8"/>
<path d="M26.5 21.5312H23.1875C22.9679 21.5312 22.7572 21.6185 22.6019 21.7738C22.4466 21.9291 22.3594 22.1397 22.3594 22.3594V25.6719C22.3594 25.8915 22.4466 26.1021 22.6019 26.2574C22.7572 26.4128 22.9679 26.5 23.1875 26.5H26.5C26.7196 26.5 26.9303 26.4128 27.0856 26.2574C27.2409 26.1021 27.3281 25.8915 27.3281 25.6719V22.3594C27.3281 22.1397 27.2409 21.9291 27.0856 21.7738C26.9303 21.6185 26.7196 21.5312 26.5 21.5312ZM25.6719 24.8438H24.0156V23.1875H25.6719V24.8438Z" fill="#53B2E8"/>
<path d="M18.4613 13.4926L14.0781 17.8758L13.0075 16.8051C12.8522 16.6498 12.6415 16.5625 12.4219 16.5625C12.2023 16.5625 11.9916 16.6498 11.8363 16.8051C11.681 16.9604 11.5938 17.171 11.5938 17.3906C11.5938 17.6103 11.681 17.8209 11.8363 17.9762L13.4926 19.6325C13.5695 19.7094 13.6608 19.7704 13.7612 19.812C13.8617 19.8536 13.9694 19.875 14.0781 19.875C14.1869 19.875 14.2946 19.8536 14.3951 19.812C14.4955 19.7704 14.5868 19.7094 14.6637 19.6325L19.6325 14.6637C19.7878 14.5084 19.875 14.2978 19.875 14.0781C19.875 13.8585 19.7878 13.6479 19.6325 13.4926C19.4772 13.3373 19.2665 13.25 19.0469 13.25C18.8273 13.25 18.6166 13.3373 18.4613 13.4926Z" fill="#53B2E8"/>
<path d="M26.5 9.9375H36.4375C36.6571 9.9375 36.8678 9.85025 37.0231 9.69495C37.1784 9.53964 37.2656 9.32901 37.2656 9.10938C37.2656 8.88974 37.1784 8.67911 37.0231 8.5238C36.8678 8.3685 36.6571 8.28125 36.4375 8.28125H26.5C26.2804 8.28125 26.0697 8.3685 25.9144 8.5238C25.7591 8.67911 25.6719 8.88974 25.6719 9.10938C25.6719 9.32901 25.7591 9.53964 25.9144 9.69495C26.0697 9.85025 26.2804 9.9375 26.5 9.9375Z" fill="#53B2E8"/>
<path d="M23.1875 36.4375H19.875C19.6554 36.4375 19.4447 36.5247 19.2894 36.6801C19.1341 36.8354 19.0469 37.046 19.0469 37.2656C19.0469 37.4853 19.1341 37.6959 19.2894 37.8512C19.4447 38.0065 19.6554 38.0938 19.875 38.0938H23.1875C23.4071 38.0938 23.6178 38.0065 23.7731 37.8512C23.9284 37.6959 24.0156 37.4853 24.0156 37.2656C24.0156 37.046 23.9284 36.8354 23.7731 36.6801C23.6178 36.5247 23.4071 36.4375 23.1875 36.4375Z" fill="#53B2E8"/>
</svg>
