<svg width="54" height="72" viewBox="0 0 54 72" fill="none" xmlns="http://www.w3.org/2000/svg">
<path d="M53.3062 56.0872C53.3062 53.788 51.4305 51.9124 49.1314 51.9124H48.8288C49.0709 51.3678 49.1919 50.8233 49.1919 50.1578C49.1919 47.8586 47.3162 45.983 45.0171 45.983H43.2625C43.5045 45.4384 43.6255 44.8939 43.6255 44.2283C43.6255 41.9292 41.7498 40.0536 39.4507 40.0536H35.0944C35.2759 39.4485 35.3969 38.8435 35.3969 38.1779C35.3969 36.9073 35.0339 35.6367 34.3078 34.6082L34.2473 34.5477L29.9515 29.1628C29.4675 28.6183 28.4994 28.6183 28.0759 29.1628L23.7801 34.5477L23.7196 34.6082C22.9935 35.6973 22.6305 36.9073 22.6305 38.1779C22.6305 38.8435 22.7515 39.4485 22.933 40.0536H19.5448C15.1885 40.0536 11.4978 43.3208 10.9532 47.5561H1.21204C0.546491 47.5561 0.00195312 48.1006 0.00195312 48.7662C0.00195312 49.4317 0.546491 49.9762 1.21204 49.9762H12.1028C12.7683 49.9762 13.3129 49.4317 13.3129 48.7662C13.3129 45.3174 16.1566 42.4737 19.6053 42.4737H24.3246C25.4742 43.8048 27.1683 44.5914 29.1045 44.5914C31.0406 44.5914 32.6742 43.7443 33.8843 42.4737H39.6322C40.6003 42.4737 41.3868 43.2603 41.3868 44.2283C41.3868 45.1964 40.6003 45.983 39.6322 45.983H31.4036C30.7381 45.983 30.1935 46.5275 30.1935 47.193C30.1935 47.8586 30.7381 48.4031 31.4036 48.4031H45.1381C46.1062 48.4031 46.8927 49.1897 46.8927 50.1578C46.8927 51.1258 46.1062 51.9124 45.1381 51.9124H31.4036C30.7381 51.9124 30.1935 52.4569 30.1935 53.1225C30.1935 53.788 30.7381 54.3325 31.4036 54.3325H49.1919C50.1599 54.3325 50.9465 55.1191 50.9465 56.0872C50.9465 57.0552 50.1599 57.8418 49.1919 57.8418H31.4036C30.7381 57.8418 30.1935 58.3863 30.1935 59.0519C30.1935 59.7174 30.7381 60.262 31.4036 60.262H45.1381C46.1062 60.262 46.8927 61.0485 46.8927 62.0166C46.8927 62.9846 46.1062 63.7712 45.1381 63.7712H27.5919C26.9868 60.2015 23.9011 57.4183 20.1499 57.4183C19.4843 57.4183 18.9398 57.9628 18.9398 58.6283C18.9398 59.2939 19.4843 59.8384 20.1499 59.8384C22.9935 59.8384 25.2927 62.1376 25.2927 64.9813C25.2927 65.6468 25.8372 66.1914 26.5028 66.1914H33.8843C34.8524 66.1914 35.6389 66.9779 35.6389 67.946C35.6389 68.9141 34.7919 69.5796 33.8843 69.5796H19.5448C16.0961 69.5796 13.2524 66.7359 13.2524 63.2872C13.2524 62.6216 12.7078 62.0771 12.0423 62.0771H1.21204C0.546491 62.0771 0.00195312 62.6216 0.00195312 63.2872C0.00195312 63.9527 0.546491 64.4972 1.21204 64.4972H10.9532C11.5583 68.7325 15.1885 71.9998 19.5448 71.9998H33.8843C36.1835 71.9998 38.0591 70.1241 38.0591 67.825C38.0591 67.2199 37.9381 66.6149 37.6961 66.0704H45.1381C47.4372 66.0704 49.3129 64.1947 49.3129 61.8956C49.3129 61.2905 49.1919 60.6855 48.9499 60.1409H49.2524C51.4305 60.2015 53.3062 58.3863 53.3062 56.0872ZM29.1045 42.2922C26.9263 42.2922 25.1112 40.4771 25.1112 38.2989C25.1112 37.5124 25.3532 36.7863 25.7767 36.1208L29.1045 31.946L32.4322 36.1208C32.8557 36.7863 33.0978 37.5124 33.0978 38.2989C33.0372 40.5376 31.2826 42.2922 29.1045 42.2922Z" fill="#C4C4C4"/>
<path d="M14.3409 11.7983H18.8183V20.4504C18.8183 21.116 19.3628 21.6605 20.0283 21.6605H23.1141L24.7477 26.1378C24.9292 26.6219 25.3527 26.9244 25.8972 26.9244H32.2502C32.7342 26.9244 33.2183 26.6219 33.3998 26.1378L35.0334 21.6605H38.1191C38.7846 21.6605 39.3292 21.116 39.3292 20.4504V11.7983H43.8065C44.472 11.7983 45.0166 11.2538 45.0166 10.5882V1.21008C45.0166 0.544538 44.472 0 43.8065 0H14.3409C13.6754 0 13.1309 0.544538 13.1309 1.21008V10.5882C13.1309 11.2538 13.6754 11.7983 14.3409 11.7983ZM31.4031 24.5042H26.7443L25.7157 21.6605H32.4317L31.4031 24.5042ZM36.909 19.2403H34.1863H23.9611H21.2384V12.2824H36.909V19.2403ZM15.551 2.42017H42.5964V9.37815H15.551V2.42017Z" fill="#C4C4C4"/>
</svg>
