<svg width="14" height="14" viewBox="0 0 14 14" fill="none" xmlns="http://www.w3.org/2000/svg">
<g clip-path="url(#clip0_6624:13479)">
<path d="M12.2742 0H1.73047C1.50395 0 1.32031 0.183641 1.32031 0.410156V13.5898C1.32031 13.732 1.39392 13.864 1.51484 13.9387C1.63578 14.0135 1.78677 14.0203 1.91392 13.9567L7.00234 11.4125L12.0908 13.9567C12.1487 13.9856 12.2115 14 12.2742 14C12.3492 14 12.424 13.9794 12.4899 13.9387C12.6108 13.864 12.6844 13.732 12.6844 13.5898V0.410156C12.6844 0.183641 12.5007 0 12.2742 0ZM9.9246 5.255L8.76109 6.38914L9.03196 7.96827C9.03869 7.99775 9.04224 8.0284 9.04224 8.05993C9.04224 8.28617 8.85904 8.46964 8.63285 8.47008C8.63239 8.47008 8.63195 8.47008 8.63148 8.47008C8.56619 8.47008 8.5007 8.45452 8.44068 8.42297L7.00234 7.66697L5.56406 8.42297C5.50407 8.4545 5.43853 8.47008 5.37326 8.47008C5.28822 8.47008 5.20359 8.44367 5.13211 8.39174C5.00584 8.29995 4.94257 8.14444 4.96898 7.99058L5.24373 6.38917L4.08009 5.25503C3.96828 5.14607 3.92803 4.98304 3.97629 4.83457C4.02455 4.68606 4.15291 4.57784 4.3074 4.55541L5.91546 4.32173L6.63449 2.86461C6.70359 2.72461 6.84616 2.63596 7.00229 2.63596C7.15842 2.63596 7.30102 2.72459 7.37009 2.86459L8.08926 4.32173L9.69723 4.55541C9.85173 4.57784 9.98011 4.68606 10.0283 4.83454C10.0766 4.98302 10.0364 5.14601 9.9246 5.255Z" fill="#53B2E8"/>
</g>
<defs>
<clipPath id="clip0_6624:13479">
<rect width="14" height="14" fill="white"/>
</clipPath>
</defs>
</svg>
