<svg width="21" height="24" viewBox="0 0 21 24" fill="none" xmlns="http://www.w3.org/2000/svg">
<path d="M6.5 9.83268L14.6667 5.16602" stroke="#53B2E8" stroke-miterlimit="10"/>
<path d="M6.5 13.334L14.6667 18.0007" stroke="#53B2E8" stroke-miterlimit="10"/>
<path d="M3.58268 14.4993C5.19351 14.4993 6.49935 13.1935 6.49935 11.5827C6.49935 9.97185 5.19351 8.66602 3.58268 8.66602C1.97185 8.66602 0.666016 9.97185 0.666016 11.5827C0.666016 13.1935 1.97185 14.4993 3.58268 14.4993Z" stroke="#53B2E8" stroke-miterlimit="10" stroke-linecap="square"/>
<path d="M17.5827 6.33333C19.1935 6.33333 20.4993 5.0275 20.4993 3.41667C20.4993 1.80584 19.1935 0.5 17.5827 0.5C15.9719 0.5 14.666 1.80584 14.666 3.41667C14.666 5.0275 15.9719 6.33333 17.5827 6.33333Z" stroke="#53B2E8" stroke-miterlimit="10" stroke-linecap="square"/>
<path d="M17.5827 22.6673C19.1935 22.6673 20.4993 21.3615 20.4993 19.7507C20.4993 18.1398 19.1935 16.834 17.5827 16.834C15.9719 16.834 14.666 18.1398 14.666 19.7507C14.666 21.3615 15.9719 22.6673 17.5827 22.6673Z" stroke="#53B2E8" stroke-miterlimit="10" stroke-linecap="square"/>
</svg>
