<svg width="21" height="21" viewBox="0 0 21 21" fill="none" xmlns="http://www.w3.org/2000/svg">
<path fill-rule="evenodd" clip-rule="evenodd" d="M13.7039 13.7053C13.8258 13.5832 13.9706 13.4864 14.1299 13.4204C14.2892 13.3543 14.46 13.3203 14.6325 13.3203C14.805 13.3203 14.9758 13.3543 15.1351 13.4204C15.2944 13.4864 15.4392 13.5832 15.5611 13.7053L20.6141 18.7585C20.8604 19.0046 20.9988 19.3384 20.999 19.6866C20.9991 20.0348 20.8609 20.3687 20.6148 20.615C20.3687 20.8613 20.0348 20.9997 19.6867 20.9999C19.3385 21 19.0046 20.8618 18.7583 20.6157L13.7052 15.5625C13.5832 15.4406 13.4864 15.2958 13.4204 15.1365C13.3543 14.9771 13.3203 14.8064 13.3203 14.6339C13.3203 14.4614 13.3543 14.2906 13.4204 14.1312C13.4864 13.9719 13.5832 13.8272 13.7052 13.7053H13.7039Z" fill="#FAFAFA"/>
<path fill-rule="evenodd" clip-rule="evenodd" d="M8.53113 15.7503C9.47909 15.7503 10.4178 15.5636 11.2936 15.2008C12.1694 14.838 12.9652 14.3063 13.6355 13.6359C14.3058 12.9656 14.8375 12.1698 15.2003 11.294C15.5631 10.4181 15.7498 9.4794 15.7498 8.53141C15.7498 7.58341 15.5631 6.6447 15.2003 5.76886C14.8375 4.89302 14.3058 4.09722 13.6355 3.42689C12.9652 2.75655 12.1694 2.22481 11.2936 1.86203C10.4178 1.49925 9.47909 1.31252 8.53113 1.31252C6.61662 1.31252 4.78053 2.07308 3.42677 3.42689C2.07302 4.78069 1.31248 6.61684 1.31248 8.53141C1.31248 10.446 2.07302 12.2821 3.42677 13.6359C4.78053 14.9897 6.61662 15.7503 8.53113 15.7503ZM17.0623 8.53141C17.0623 10.7941 16.1634 12.9641 14.5635 14.564C12.9636 16.164 10.7937 17.0628 8.53113 17.0628C6.26853 17.0628 4.09861 16.164 2.49871 14.564C0.898813 12.9641 0 10.7941 0 8.53141C0 6.26874 0.898813 4.09874 2.49871 2.49879C4.09861 0.898842 6.26853 0 8.53113 0C10.7937 0 12.9636 0.898842 14.5635 2.49879C16.1634 4.09874 17.0623 6.26874 17.0623 8.53141Z" fill="#FAFAFA"/>
</svg>
