<svg width="23" height="22" viewBox="0 0 23 22" fill="none" xmlns="http://www.w3.org/2000/svg">
<path d="M21.6852 9.07407L18.8333 8.64815L18.1852 7.11111L19.9074 4.7963C20.0185 4.64815 20 4.44444 19.8704 4.31481L17.6852 2.11111C17.5556 1.98148 17.3519 1.96296 17.2037 2.07407L14.8889 3.7963L13.3519 3.16667L12.9259 0.314815C12.9074 0.12963 12.7407 0 12.5556 0H9.44444C9.25926 0 9.11111 0.12963 9.07407 0.314815L8.64815 3.16667L7.11111 3.81481L4.81481 2.09259C4.66667 1.98148 4.46296 2 4.33333 2.12963L2.11111 4.31481C1.98148 4.44444 1.96296 4.64815 2.07407 4.7963L3.7963 7.11111L3.16667 8.64815L0.314815 9.07407C0.12963 9.09259 0 9.25926 0 9.44444V12.5556C0 12.7407 0.12963 12.8889 0.314815 12.9259L3.16667 13.3519L3.81481 14.8889L2.09259 17.2037C1.98148 17.3519 2 17.5556 2.12963 17.6852L4.33333 19.8889C4.46296 20.0185 4.66667 20.037 4.81481 19.9259L7.12963 18.2037L8.66667 18.8333L9.09259 21.6852C9.11111 21.8704 9.27778 22 9.46296 22H12.5741C12.7593 22 12.9074 21.8704 12.9444 21.6852L13.3704 18.8333L14.9074 18.1852L17.2222 19.9074C17.3704 20.0185 17.5741 20 17.7037 19.8704L19.9074 17.6667C20.037 17.537 20.0556 17.3333 19.9444 17.1852L18.2222 14.8704L18.8519 13.3333L21.7037 12.9074C21.8889 12.8889 22.0185 12.7222 22.0185 12.537V9.44444C22 9.25926 21.8704 9.11111 21.6852 9.07407ZM21.2593 12.2407L18.5185 12.6481C18.3889 12.6667 18.2778 12.7593 18.2222 12.8704L17.4259 14.7963C17.3704 14.9074 17.3889 15.0556 17.463 15.1667L19.1111 17.3889L17.3519 19.1481L15.1296 17.5C15.0185 17.4259 14.8889 17.4074 14.7593 17.463L12.8333 18.2593C12.7222 18.3148 12.6296 18.4259 12.6111 18.5556L12.2037 21.2963H9.75926L9.35185 18.5185C9.33333 18.3889 9.24074 18.2778 9.12963 18.2222L7.2037 17.4259C7.09259 17.3704 6.94444 17.3889 6.83333 17.463L4.61111 19.1111L2.85185 17.3519L4.5 15.1296C4.57407 15.0185 4.59259 14.8889 4.53704 14.7593L3.74074 12.8333C3.68519 12.7222 3.57407 12.6296 3.44444 12.6111L0.740741 12.2407V9.75926L3.48148 9.35185C3.61111 9.33333 3.72222 9.24074 3.77778 9.12963L4.57407 7.2037C4.62963 7.09259 4.61111 6.94444 4.53704 6.83333L2.88889 4.61111L4.64815 2.85185L6.87037 4.5C6.98148 4.57407 7.11111 4.59259 7.24074 4.53704L9.16667 3.74074C9.27778 3.68519 9.37037 3.57407 9.38889 3.44444L9.75926 0.740741H12.2407L12.6481 3.48148C12.6667 3.61111 12.7593 3.72222 12.8704 3.77778L14.7963 4.57407C14.9074 4.62963 15.0556 4.61111 15.1667 4.53704L17.3889 2.88889L19.1481 4.64815L17.5 6.87037C17.4259 6.98148 17.4074 7.11111 17.463 7.24074L18.2593 9.16667C18.3148 9.27778 18.4259 9.37037 18.5556 9.38889L21.2963 9.7963V12.2407H21.2593Z" fill="#494949"/>
<path d="M11.001 6.03699C8.26027 6.03699 6.01953 8.25921 6.01953 11.0185C6.01953 13.7777 8.24175 16 11.001 16C13.7603 16 15.9825 13.7777 15.9825 11.0185C15.9825 8.25921 13.7418 6.03699 11.001 6.03699ZM11.001 15.2407C8.66768 15.2407 6.76027 13.3333 6.76027 11C6.76027 8.66662 8.66768 6.75921 11.001 6.75921C13.3343 6.75921 15.2418 8.66662 15.2418 11C15.2418 13.3333 13.3343 15.2407 11.001 15.2407Z" fill="#494949"/>
</svg>
