<svg width="30" height="30" viewBox="0 0 30 30" fill="none" xmlns="http://www.w3.org/2000/svg">
<path d="M14.9996 0.00959205C13.0454 -0.0615849 11.097 0.263949 9.27207 0.966536C7.44717 1.66912 5.78361 2.73419 4.38185 4.09742C2.98009 5.46066 1.86921 7.09377 1.11629 8.89817C0.363371 10.7026 -0.0159714 12.6408 0.00116972 14.5958C-0.0246379 16.6105 0.376867 18.6078 1.17923 20.4561C1.98159 22.3043 3.16659 23.9616 4.65615 25.3188L4.72705 27.6226C4.74689 28.2598 5.01401 28.8643 5.47185 29.308C5.9297 29.7518 6.54231 30 7.17998 30C7.52067 29.9996 7.85764 29.9291 8.16988 29.7928L10.7892 28.6368C12.1627 29.0022 13.5783 29.1856 14.9996 29.1821C16.9539 29.2533 18.9024 28.9277 20.7274 28.2252C22.5524 27.5226 24.216 26.4575 25.6179 25.0943C27.0197 23.7311 28.1308 22.098 28.8838 20.2936C29.6369 18.4892 30.0164 16.5509 29.9995 14.5958C30.0164 12.6408 29.6369 10.7027 28.8839 8.8984C28.131 7.09409 27.0201 5.46105 25.6184 4.09786C24.2166 2.73467 22.5532 1.66959 20.7283 0.966934C18.9035 0.264277 16.9552 -0.0613903 15.001 0.00959205H14.9996ZM14.9996 26.4557C13.786 26.4595 12.5774 26.299 11.4068 25.9786C10.8649 25.8326 10.2893 25.8769 9.77608 26.104L7.43904 27.1346L7.37769 25.0993C7.36431 24.7695 7.28489 24.4458 7.14414 24.1472C7.00338 23.8487 6.80414 23.5814 6.55822 23.3612C5.33146 22.2577 4.35491 20.9047 3.69409 19.3929C3.03327 17.8811 2.70347 16.2455 2.7268 14.5958C2.7182 13.0012 3.03284 11.4213 3.65174 9.95155C4.27064 8.4818 5.18096 7.15266 6.32777 6.04431C7.47458 4.93597 8.8341 4.07142 10.3243 3.50282C11.8145 2.93422 13.4045 2.67336 14.9983 2.73599C16.5899 2.68204 18.1761 2.94886 19.6625 3.52058C21.1488 4.09231 22.5049 4.95723 23.6499 6.06385C24.7949 7.17046 25.7055 8.49614 26.3274 9.96192C26.9492 11.4277 27.2697 13.0036 27.2697 14.5958C27.2697 16.188 26.9492 17.764 26.3274 19.2297C25.7055 20.6955 24.7949 22.0212 23.6499 23.1278C22.5049 24.2344 21.1488 25.0994 19.6625 25.6711C18.1761 26.2428 16.5899 26.5096 14.9983 26.4557H14.9996ZM20.0923 10.3495L16.9385 14.1051L12.3749 11.3023C12.0964 11.131 11.7655 11.0656 11.4428 11.1182C11.12 11.1707 10.827 11.3377 10.6174 11.5886L6.45732 16.5452C6.33275 16.6808 6.23694 16.8402 6.17567 17.0138C6.1144 17.1875 6.08895 17.3717 6.10084 17.5554C6.11273 17.7391 6.16173 17.9186 6.24486 18.0828C6.328 18.2471 6.44357 18.3929 6.58458 18.5113C6.72559 18.6297 6.88914 18.7183 7.06534 18.7718C7.24155 18.8253 7.42677 18.8425 7.60983 18.8225C7.79289 18.8025 7.96999 18.7456 8.13045 18.6552C8.29092 18.5649 8.43141 18.443 8.54347 18.2969L11.9509 14.2414L16.5145 17.0441C16.793 17.2155 17.1238 17.2809 17.4466 17.2283C17.7693 17.1758 18.0624 17.0088 18.272 16.7579L22.1798 12.1025C22.3 11.9662 22.3917 11.8072 22.4495 11.6349C22.5073 11.4626 22.5301 11.2805 22.5165 11.0993C22.5029 10.918 22.4532 10.7414 22.3703 10.5796C22.2874 10.4179 22.173 10.2744 22.0338 10.1575C21.8946 10.0406 21.7334 9.95269 21.5598 9.89898C21.3861 9.84527 21.2035 9.82682 21.0226 9.84471C20.8417 9.8626 20.6662 9.91647 20.5065 10.0032C20.3467 10.0898 20.2059 10.2076 20.0923 10.3495Z" fill="#494949"/>
</svg>
