<svg width="31" height="31" viewBox="0 0 31 31" fill="none" xmlns="http://www.w3.org/2000/svg">
<path fill-rule="evenodd" clip-rule="evenodd" d="M26.4832 4.50562C25.0533 3.07315 23.352 1.93732 21.4779 1.16391C19.6038 0.390512 17.5941 -0.00508264 15.5653 4.92979e-05C7.05795 4.92979e-05 0.13239 6.89102 0.128952 15.3614C0.128952 18.0685 0.839044 20.7106 2.18874 23.0412L0 31L8.1824 28.8627C10.4457 30.089 12.9815 30.7319 15.5584 30.7331H15.5653C24.0709 30.7331 30.9965 23.8421 30.9999 15.3717C31.0058 13.3533 30.6096 11.3538 29.8344 9.48871C29.0591 7.62363 27.9201 5.92997 26.4832 4.50562ZM15.5653 28.1406H15.5601C13.2623 28.1408 11.0067 27.5255 9.03004 26.3592L8.56238 26.082L3.70693 27.35L5.0016 22.6391L4.69727 22.1566C3.41255 20.121 2.73245 17.7653 2.73549 15.3614C2.73893 8.32158 8.4936 2.59422 15.5705 2.59422C17.2559 2.59049 18.9253 2.91948 20.4821 3.56215C22.0388 4.20483 23.4521 5.14841 24.64 6.3383C25.8343 7.52252 26.781 8.93058 27.4252 10.4811C28.0694 12.0316 28.3985 13.6938 28.3934 15.3717C28.39 22.4115 22.6353 28.1406 15.5653 28.1406ZM22.6026 18.5767C22.2158 18.3834 20.321 17.4559 19.9668 17.3276C19.6144 17.1992 19.3582 17.1359 19.1003 17.5192C18.8424 17.9025 18.1031 18.7667 17.8778 19.0234C17.6526 19.28 17.4274 19.3109 17.0422 19.1192C16.6571 18.9275 15.414 18.522 13.9405 17.2146C12.7937 16.1965 12.02 14.9405 11.7948 14.5554C11.5695 14.1704 11.7707 13.9634 11.965 13.7717C12.1386 13.6006 12.3501 13.3234 12.5427 13.0992C12.7352 12.8751 12.7989 12.7159 12.9278 12.4592C13.0568 12.2026 12.9932 11.9784 12.8951 11.7867C12.7989 11.5934 12.0269 9.70422 11.7054 8.93589C11.3942 8.19152 11.0761 8.29077 10.8388 8.28051C10.5931 8.2705 10.3471 8.26594 10.1012 8.26682C9.90563 8.27178 9.7132 8.3169 9.53598 8.39935C9.35876 8.4818 9.20056 8.5998 9.07131 8.74595C8.71712 9.13097 7.72161 10.0584 7.72161 11.9476C7.72161 13.8367 9.10397 15.6626 9.29654 15.9193C9.48911 16.1759 12.0166 20.0518 15.8851 21.7151C16.8067 22.1104 17.5254 22.3465 18.0842 22.5245C19.0074 22.8171 19.8482 22.7743 20.5136 22.6768C21.2546 22.5672 22.7952 21.7493 23.1167 20.8526C23.4382 19.956 23.4382 19.1876 23.3419 19.0268C23.2457 18.8659 22.986 18.7684 22.6026 18.5767Z" fill="#494949"/>
</svg>
