<svg width="30" height="22" viewBox="0 0 30 22" fill="none" xmlns="http://www.w3.org/2000/svg">
<path d="M27.8571 0H2.14286C1.57454 0 1.02949 0.231785 0.627628 0.644365C0.225765 1.05694 0 1.61652 0 2.2V19.8C0 20.3835 0.225765 20.9431 0.627628 21.3556C1.02949 21.7682 1.57454 22 2.14286 22H27.8571C28.4255 22 28.9705 21.7682 29.3724 21.3556C29.7742 20.9431 30 20.3835 30 19.8V2.2C30 1.61652 29.7742 1.05694 29.3724 0.644365C28.9705 0.231785 28.4255 0 27.8571 0ZM25.5 2.2L15 9.658L4.5 2.2H25.5ZM2.14286 19.8V3.201L14.3893 11.902C14.5686 12.0297 14.7817 12.0982 15 12.0982C15.2183 12.0982 15.4314 12.0297 15.6107 11.902L27.8571 3.201V19.8H2.14286Z" fill="#494949"/>
</svg>
