<svg width="30" height="30" viewBox="0 0 30 30" fill="none" xmlns="http://www.w3.org/2000/svg">
<path d="M15 0C6.73 0 0 6.73 0 15C0 23.27 6.73 30 15 30C23.27 30 30 23.27 30 15C30 6.73 23.27 0 15 0ZM15 2.5C21.9188 2.5 27.5 8.08125 27.5 15C27.503 17.9925 26.43 20.8862 24.4767 23.1532C22.5234 25.4203 19.82 26.9093 16.86 27.3487V18.645H20.42L20.9788 15.0288H16.86V13.0538C16.86 11.5538 17.3538 10.22 18.7575 10.22H21.0138V7.065C20.6175 7.01125 19.7787 6.895 18.1938 6.895C14.8837 6.895 12.9437 8.6425 12.9437 12.625V15.0288H9.54125V18.645H12.9437V27.3175C10.0247 26.8371 7.37155 25.3344 5.45836 23.0779C3.54518 20.8215 2.49661 17.9583 2.5 15C2.5 8.08125 8.08125 2.5 15 2.5Z" fill="#494949"/>
</svg>
