<svg width="33" height="14" viewBox="0 0 33 14" fill="none" xmlns="http://www.w3.org/2000/svg">
<path d="M12.4927 0H7C5.14348 2.76642e-08 3.36301 0.737498 2.05025 2.05025C0.737498 3.36301 0 5.14348 0 7C0 8.85651 0.737498 10.637 2.05025 11.9497C3.36301 13.2625 5.14348 14 7 14H14C15.1202 14.0006 16.2241 13.7323 17.2191 13.2178C18.2141 12.7032 19.0711 11.9574 19.7181 11.0429C20.3651 10.1285 20.7831 9.07214 20.9372 7.96261C21.0912 6.85307 20.9767 5.72278 20.6033 4.66667H18.6667C18.466 4.66667 18.27 4.69 18.0833 4.739C18.4768 5.44951 18.6781 6.25043 18.6672 7.06257C18.6563 7.8747 18.4337 8.66993 18.0212 9.36964C17.6088 10.0693 17.0209 10.6493 16.3157 11.0522C15.6104 11.455 14.8122 11.6668 14 11.6667H7C5.76232 11.6667 4.57534 11.175 3.70017 10.2998C2.825 9.42466 2.33333 8.23768 2.33333 7C2.33333 5.76232 2.825 4.57534 3.70017 3.70017C4.57534 2.825 5.76232 2.33333 7 2.33333H10.5817C11.0903 1.456 11.7367 0.667333 12.495 0H12.4927Z" fill="#494949"/>
<path d="M18.6658 9.62457e-07C17.5456 -0.00058639 16.4416 0.267664 15.4466 0.782218C14.4516 1.29677 13.5947 2.0426 12.9477 2.95705C12.3007 3.8715 11.8827 4.92786 11.7286 6.03739C11.5746 7.14692 11.6891 8.27722 12.0624 9.33333H14.6244C14.2149 8.62392 13.9992 7.81919 13.9992 7.00003C13.9992 6.18087 14.2148 5.37614 14.6244 4.66672C15.034 3.9573 15.6231 3.36819 16.3325 2.95859C17.0419 2.549 17.8466 2.33335 18.6658 2.33333H25.6658C26.9035 2.33333 28.0904 2.825 28.9656 3.70017C29.8408 4.57534 30.3324 5.76232 30.3324 7C30.3324 8.23768 29.8408 9.42466 28.9656 10.2998C28.0904 11.175 26.9035 11.6667 25.6658 11.6667H22.0841C21.5764 12.5426 20.9303 13.3306 20.1708 14H25.6658C26.585 14 27.4953 13.8189 28.3446 13.4672C29.1938 13.1154 29.9655 12.5998 30.6155 11.9497C31.2655 11.2997 31.7812 10.5281 32.1329 9.67878C32.4847 8.8295 32.6658 7.91925 32.6658 7C32.6658 6.08075 32.4847 5.1705 32.1329 4.32122C31.7812 3.47194 31.2655 2.70026 30.6155 2.05025C29.9655 1.40024 29.1938 0.884628 28.3446 0.532845C27.4953 0.181062 26.585 9.48759e-07 25.6658 9.62457e-07H18.6658Z" fill="#494949"/>
</svg>
