<svg width="33" height="29" viewBox="0 0 33 29" fill="none" xmlns="http://www.w3.org/2000/svg">
<path d="M2.71863 11.7041C2.63775 11.4171 2.43993 11.1661 2.1625 10.9983C1.88507 10.8305 1.54722 10.7576 1.21271 10.7934C0.878205 10.8291 0.570176 10.971 0.346762 11.1923C0.123347 11.4135 0 11.6989 0 11.9945C0 12.2901 0.123347 12.5754 0.346762 12.7967C0.570176 13.018 0.878205 13.1598 1.21271 13.1956C1.54722 13.2313 1.88507 13.1584 2.1625 12.9906C2.43993 12.8229 2.63775 12.5718 2.71863 12.2849H5.26348C5.30034 13.1513 5.51104 14.0052 5.8859 14.8074L3.56839 15.7299C3.35945 15.499 3.06139 15.3431 2.73044 15.2917C2.3995 15.2403 2.05854 15.2969 1.7719 15.4509C1.48526 15.6048 1.27275 15.8454 1.17446 16.1273C1.07617 16.4092 1.0989 16.7129 1.23836 16.9812C1.37782 17.2494 1.62436 17.4636 1.93148 17.5833C2.2386 17.7031 2.58506 17.7201 2.90551 17.6312C3.22596 17.5423 3.49823 17.3536 3.67097 17.1007C3.8437 16.8478 3.90496 16.5482 3.84318 16.2584L6.16069 15.335C6.52809 15.9743 6.99823 16.564 7.55672 17.0861L5.76782 18.6765C5.55244 18.5628 5.30515 18.5041 5.0538 18.5071C4.68794 18.5082 4.33759 18.6368 4.07982 18.8645C3.82205 19.0923 3.67798 19.4005 3.67929 19.7214C3.68061 20.0423 3.82721 20.3496 4.08684 20.5757C4.34648 20.8018 4.69788 20.9282 5.06374 20.927H5.07367C5.31771 20.9256 5.55696 20.8674 5.7669 20.7582C5.97685 20.6491 6.14997 20.493 6.26853 20.3059C6.38709 20.1188 6.44684 19.9074 6.44166 19.6934C6.43648 19.4793 6.36655 19.2704 6.23905 19.0879L8.02243 17.4946C8.62665 17.9776 9.30676 18.3822 10.042 18.6958L9.02338 20.7392C8.71961 20.693 8.40694 20.7375 8.13542 20.8656C7.8639 20.9937 7.64925 21.1981 7.52582 21.4459C7.42128 21.654 7.38563 21.8837 7.42294 22.1088C7.46025 22.3339 7.56902 22.5452 7.73681 22.7186C7.9046 22.8921 8.12463 23.0205 8.37176 23.0894C8.61888 23.1583 8.88312 23.1648 9.13426 23.1082C9.3854 23.0516 9.6133 22.9341 9.79191 22.7692C9.97052 22.6043 10.0926 22.3987 10.1443 22.1758C10.1959 21.9529 10.175 21.7217 10.0839 21.5088C9.99282 21.2958 9.83527 21.1097 9.62924 20.9715L10.6489 18.9272C11.4089 19.1885 12.2082 19.3515 13.0216 19.4112L12.9047 21.6375C12.6021 21.6894 12.3282 21.829 12.1271 22.0339C11.9259 22.2388 11.8092 22.497 11.7956 22.7672C11.7788 23.0875 11.9077 23.4006 12.1539 23.6376C12.4002 23.8747 12.7436 24.0163 13.1088 24.0313H13.175C13.5034 24.0278 13.8195 23.9215 14.0664 23.7317C14.3134 23.5418 14.475 23.2809 14.5221 22.9959C14.5692 22.7108 14.4987 22.4204 14.3234 22.1769C14.1481 21.9334 13.8794 21.7527 13.5657 21.6675L13.6838 19.4412H13.7456C13.8703 19.4412 13.9939 19.4412 14.1164 19.4334C14.8403 22.0731 16.0841 24.0139 17.1888 25.3217C19.3341 27.8636 21.7543 29 23.2 29C24.6456 29 27.0625 27.8626 29.21 25.3217C30.8919 23.3315 32.8949 19.8758 32.8949 14.7193C32.8949 13.2945 32.821 11.6537 32.2703 10.2763C32.2497 10.2242 32.2126 10.1783 32.1633 10.144C32.1141 10.1098 32.0547 10.0885 31.9922 10.0827C30.1373 9.91811 28.3315 9.46099 26.6619 8.73334C26.6343 8.71592 26.6067 8.69752 26.5769 8.68107C26.4742 8.62246 26.3628 8.57653 26.2458 8.54458C25.4796 8.17948 24.755 7.75097 24.0817 7.26491H24.0983C24.3912 7.26509 24.6765 7.18355 24.9131 7.03208C25.1497 6.88062 25.3253 6.66708 25.4144 6.42234C25.5035 6.1776 25.5015 5.91435 25.4088 5.67064C25.3161 5.42694 25.1374 5.21542 24.8986 5.06666C24.6598 4.9179 24.3732 4.83962 24.0803 4.84313C23.7875 4.84664 23.5035 4.93177 23.2694 5.0862C23.0353 5.24063 22.8633 5.45635 22.7782 5.70219C22.6931 5.94803 22.6993 6.21123 22.796 6.45374L20.6606 7.68017C20.1873 7.09603 19.6209 6.57446 18.9788 6.1314L20.4697 4.32127C20.7827 4.43287 21.1314 4.44012 21.45 4.34165C21.7686 4.24318 22.0351 4.04581 22.1992 3.78679C22.3633 3.52777 22.4136 3.22502 22.3406 2.9357C22.2676 2.64638 22.0764 2.39049 21.8031 2.21636C21.5298 2.04222 21.1932 1.96187 20.857 1.99048C20.5207 2.01909 20.208 2.15468 19.978 2.37165C19.7479 2.58862 19.6163 2.87197 19.6081 3.1682C19.5999 3.46443 19.7156 3.75305 19.9334 3.97958L18.4435 5.79261C17.7643 5.39507 17.0231 5.08567 16.243 4.87399L16.8941 2.72023H16.9195C17.257 2.72122 17.5832 2.61409 17.837 2.41897C18.0908 2.22385 18.2547 1.95417 18.2978 1.66058C18.3409 1.36699 18.2603 1.06969 18.0711 0.824542C17.882 0.579392 17.5973 0.403253 17.2705 0.329213C16.9438 0.255174 16.5974 0.288328 16.2966 0.422448C15.9957 0.556568 15.7611 0.782425 15.6367 1.05759C15.5122 1.33276 15.5067 1.6383 15.621 1.91682C15.7352 2.19535 15.9615 2.42768 16.2573 2.57019L15.6018 4.72783C14.9927 4.6071 14.3701 4.54607 13.7456 4.54585C13.5525 4.54585 13.3615 4.55359 13.1717 4.56521L12.9014 2.34659C13.2177 2.24528 13.4809 2.04594 13.6413 1.78615C13.8017 1.52637 13.8482 1.22409 13.772 0.936314C13.6958 0.648541 13.5023 0.395155 13.2278 0.223936C12.9533 0.0527161 12.6169 -0.0245068 12.282 0.0068279C11.9471 0.0381626 11.6368 0.17589 11.4097 0.39404C11.1825 0.61219 11.0542 0.89569 11.049 1.19108C11.0437 1.48648 11.1619 1.77335 11.3811 1.99762C11.6004 2.22188 11.9056 2.36805 12.2392 2.40854L12.5096 4.62522C11.7015 4.72866 10.9148 4.93474 10.1744 5.23699L9.01565 3.25068C9.25037 3.07489 9.41071 2.83484 9.47078 2.56929C9.53085 2.30374 9.48715 2.02818 9.34673 1.78709C9.22923 1.58403 9.04893 1.41409 8.82646 1.29671C8.60399 1.17933 8.34834 1.11925 8.08877 1.12335C7.82919 1.12745 7.57618 1.19557 7.35868 1.3199C7.14117 1.44423 6.96797 1.61976 6.85888 1.8264C6.74979 2.03304 6.70923 2.26244 6.74184 2.48836C6.77444 2.71427 6.87889 2.92757 7.04324 3.10385C7.20759 3.28013 7.4252 3.41227 7.67116 3.48514C7.91713 3.55801 8.18151 3.56868 8.43407 3.51591L9.58951 5.50221C8.87867 5.85402 8.22904 6.29344 7.66046 6.80705L5.76561 5.31346C5.90679 5.08009 5.95687 4.81257 5.90817 4.55186C5.85947 4.29116 5.71468 4.05164 5.49598 3.87C5.27728 3.68835 4.99672 3.5746 4.69728 3.54616C4.39784 3.51773 4.09602 3.57617 3.83807 3.71255C3.58011 3.84892 3.38023 4.05571 3.26904 4.30123C3.15785 4.54676 3.14149 4.81748 3.22246 5.07194C3.30343 5.3264 3.47726 5.55056 3.71733 5.7101C3.95741 5.86963 4.25048 5.95574 4.55167 5.95523H4.62672C4.87765 5.94356 5.12009 5.87156 5.32749 5.74711L7.22123 7.23974C6.69878 7.79012 6.26949 8.40368 5.9466 9.06149L3.56839 8.26096C3.60015 8.03583 3.55913 7.8074 3.44999 7.60174C3.34085 7.39607 3.168 7.22146 2.95115 7.09783C2.7343 6.9742 2.4822 6.90653 2.22361 6.90254C1.96502 6.89855 1.71037 6.95841 1.4887 7.07527C1.26703 7.19214 1.08728 7.36131 0.969967 7.56348C0.852652 7.76565 0.802495 7.99268 0.825221 8.21865C0.847946 8.44463 0.942638 8.66044 1.09849 8.84148C1.25434 9.02251 1.46508 9.16147 1.70665 9.2425C1.86451 9.29541 2.03205 9.32264 2.20105 9.32284C2.42308 9.32237 2.64171 9.27496 2.83843 9.18465C3.03514 9.09433 3.20414 8.96376 3.33112 8.804L5.70491 9.60162C5.44218 10.2799 5.29348 10.9882 5.26348 11.7041H2.71863ZM1.38109 12.6237C1.23922 12.6237 1.10053 12.5868 0.982567 12.5176C0.864603 12.4485 0.772661 12.3502 0.718368 12.2353C0.664076 12.1203 0.64987 11.9938 0.677549 11.8717C0.705227 11.7497 0.773545 11.6376 0.873865 11.5496C0.974185 11.4616 1.102 11.4017 1.24115 11.3774C1.3803 11.3531 1.52453 11.3656 1.6556 11.4132C1.78667 11.4608 1.89871 11.5414 1.97753 11.6449C2.05635 11.7484 2.09842 11.87 2.09842 11.9945C2.09813 12.1613 2.02246 12.3212 1.888 12.4391C1.75353 12.557 1.57125 12.6234 1.38109 12.6237ZM3.15896 16.6998C3.10952 16.8166 3.02162 16.9179 2.90642 16.9907C2.79122 17.0636 2.65392 17.1048 2.51198 17.109C2.37003 17.1133 2.22985 17.0804 2.10925 17.0146C1.98865 16.9488 1.89307 16.8531 1.83466 16.7395C1.78573 16.6453 1.76405 16.542 1.77154 16.4387C1.77903 16.3354 1.81546 16.2353 1.8776 16.1473C1.93973 16.0593 2.02566 15.9862 2.12776 15.9343C2.22987 15.8824 2.34499 15.8534 2.46293 15.8498C2.58086 15.8463 2.69798 15.8683 2.80388 15.914C2.90978 15.9597 3.0012 16.0275 3.07004 16.1116C3.13889 16.1957 3.18302 16.2933 3.19852 16.3959C3.21403 16.4986 3.20044 16.6029 3.15896 16.6998ZM5.57469 20.1584C5.50864 20.2173 5.42998 20.2641 5.34324 20.2961C5.2565 20.3282 5.16338 20.3449 5.06925 20.3453C4.97592 20.3456 4.88343 20.3298 4.79708 20.2987C4.71073 20.2677 4.63221 20.222 4.56602 20.1643C4.49899 20.1063 4.44564 20.0373 4.409 19.9613C4.37237 19.8852 4.35317 19.8036 4.3525 19.721C4.35184 19.6384 4.36972 19.5566 4.40512 19.4801C4.44053 19.4036 4.49276 19.334 4.55885 19.2752C4.62493 19.2164 4.70357 19.1696 4.79028 19.1374C4.87698 19.1053 4.97006 19.0885 5.06418 19.0879C5.15831 19.0873 5.25164 19.103 5.33886 19.134C5.42607 19.1651 5.50546 19.2109 5.57249 19.2689C5.6397 19.3268 5.69322 19.3957 5.72999 19.4718C5.76677 19.5479 5.78606 19.6296 5.78678 19.7122C5.7875 19.7949 5.76962 19.8768 5.73418 19.9534C5.69873 20.03 5.64641 20.0996 5.58021 20.1584H5.57469ZM9.44715 22.1825C9.39022 22.2963 9.29615 22.3927 9.17681 22.4597C9.05746 22.5267 8.91819 22.5611 8.77654 22.5587C8.63489 22.5564 8.49722 22.5172 8.38089 22.4463C8.26456 22.3754 8.17477 22.2759 8.12286 22.1602C8.08329 22.0825 8.06211 21.9986 8.06058 21.9136C8.05905 21.8285 8.0772 21.744 8.11395 21.6653C8.1507 21.5865 8.20528 21.5151 8.27438 21.4554C8.34348 21.3957 8.42567 21.3489 8.51598 21.3178C8.60629 21.2868 8.70285 21.2721 8.79981 21.2747C8.89677 21.2773 8.99212 21.2972 9.08009 21.333C9.16806 21.3689 9.24683 21.42 9.31163 21.4833C9.37642 21.5466 9.42591 21.6208 9.45708 21.7014C9.49185 21.7782 9.50887 21.8602 9.50717 21.9428C9.50546 22.0254 9.48506 22.1069 9.44715 22.1825ZM20.4035 2.83445C20.4865 2.73352 20.6019 2.65647 20.7348 2.61304C20.8678 2.5696 21.0125 2.56175 21.1506 2.59047C21.2887 2.61918 21.414 2.68318 21.5106 2.77435C21.6072 2.86553 21.6708 2.9798 21.6933 3.10269C21.7159 3.22558 21.6964 3.35158 21.6373 3.46475C21.5782 3.57791 21.4821 3.67315 21.3613 3.73843C21.2405 3.8037 21.1003 3.83607 20.9584 3.83144C20.8166 3.82681 20.6796 3.78538 20.5646 3.71241C20.4881 3.66418 20.4232 3.60316 20.3737 3.53287C20.3242 3.46257 20.291 3.38439 20.276 3.3028C20.261 3.22122 20.2646 3.13785 20.2865 3.05747C20.3083 2.9771 20.3481 2.90131 20.4035 2.83445ZM16.2242 1.35053C16.2656 1.20938 16.3615 1.08518 16.4956 0.999159C16.6297 0.913133 16.7937 0.870612 16.9596 0.878857C17.1255 0.887101 17.283 0.9456 17.4051 1.04436C17.5273 1.14313 17.6066 1.27603 17.6295 1.42038C17.6524 1.56472 17.6174 1.71156 17.5306 1.83582C17.4438 1.96008 17.3105 2.05404 17.1535 2.10167C16.9964 2.1493 16.8254 2.14765 16.6696 2.09698C16.5138 2.04632 16.3829 1.94979 16.2993 1.82388C16.2038 1.68103 16.1768 1.51081 16.2242 1.35053ZM8.79494 2.53147C8.76604 2.61022 8.71966 2.68318 8.65849 2.74614C8.59731 2.8091 8.52254 2.86083 8.43848 2.89834C8.29068 2.9645 8.12131 2.98367 7.9592 2.95259C7.7971 2.92151 7.65229 2.84209 7.54945 2.72787C7.44661 2.61365 7.3921 2.47169 7.39519 2.32617C7.39829 2.18065 7.45881 2.04058 7.56644 1.9298C7.67407 1.81903 7.82216 1.74441 7.98547 1.71866C8.14878 1.6929 8.31723 1.71761 8.46211 1.78857C8.60698 1.85952 8.71933 1.97234 8.78002 2.1078C8.84071 2.24326 8.84598 2.39299 8.79494 2.53147ZM5.0825 5.16535C5.00371 5.24244 4.90445 5.30128 4.79353 5.33666C4.6826 5.37204 4.56344 5.38287 4.4466 5.36818C4.32977 5.35349 4.21887 5.31374 4.12374 5.25245C4.02861 5.19117 3.9522 5.11024 3.90127 5.01684C3.85034 4.92345 3.82647 4.82047 3.83178 4.71705C3.83709 4.61363 3.87142 4.51295 3.93171 4.42395C3.992 4.33495 4.0764 4.26037 4.17743 4.20683C4.27845 4.15329 4.39297 4.12245 4.51084 4.11703H4.54947C4.68815 4.11677 4.82394 4.15184 4.94034 4.21797C5.05674 4.2841 5.14875 4.37845 5.20519 4.48956C5.26163 4.60068 5.28009 4.72377 5.25831 4.84391C5.23653 4.96404 5.17545 5.07605 5.0825 5.16632V5.16535ZM13.8902 22.8572C13.8839 22.9805 13.8365 23.0995 13.7538 23.1994C13.6711 23.2993 13.5567 23.3757 13.425 23.4191C13.2932 23.4625 13.1498 23.4709 13.0126 23.4435C12.8754 23.416 12.7504 23.3538 12.6531 23.2645C12.5559 23.1753 12.4906 23.063 12.4655 22.9415C12.4404 22.82 12.4566 22.6948 12.5119 22.5813C12.5673 22.4678 12.6594 22.371 12.7769 22.303C12.8944 22.2351 13.0321 22.1989 13.1728 22.199H13.2059C13.396 22.2072 13.5745 22.2811 13.7027 22.4044C13.8309 22.5277 13.8983 22.6905 13.8902 22.8572ZM23.701 5.53028C23.8198 5.46231 23.9589 5.42676 24.1007 5.42812C24.2426 5.42949 24.3808 5.46771 24.4979 5.53795C24.6149 5.60819 24.7056 5.7073 24.7585 5.82276C24.8114 5.93821 24.824 6.06482 24.7949 6.18658C24.7657 6.30835 24.6961 6.41979 24.5947 6.50684C24.4934 6.59389 24.3649 6.65262 24.2255 6.67562C24.0861 6.69862 23.942 6.68485 23.8115 6.63605C23.6811 6.58725 23.57 6.50562 23.4924 6.40147C23.3889 6.26171 23.3528 6.09168 23.3918 5.92859C23.4309 5.7655 23.5421 5.62263 23.701 5.53125V5.53028ZM23.2 7.36945C25.4535 9.15151 28.4563 10.3063 31.7108 10.6383C32.1687 11.8967 32.2327 13.4019 32.2327 14.7174C32.2327 19.7151 30.3004 23.0537 28.6781 24.978C26.6806 27.3448 24.4382 28.4221 23.2 28.4221C21.9617 28.4221 19.7204 27.3438 17.7207 24.9771C16.0984 23.0566 14.1661 19.718 14.1661 14.7164C14.1661 13.401 14.2301 11.8986 14.688 10.6374C17.9425 10.3092 20.9453 9.15441 23.2 7.37236V7.36945ZM16.8676 9.68487C16.9449 9.62012 17.0377 9.57119 17.1391 9.54161C17.2105 9.5216 17.2849 9.51116 17.3598 9.51063C17.4058 9.51121 17.4517 9.51575 17.4967 9.52418C17.287 9.58291 17.0773 9.63744 16.8676 9.68777V9.68487ZM12.5063 1.83646C12.317 1.85418 12.1276 1.80523 11.9795 1.7004C11.8314 1.59556 11.7369 1.44342 11.7167 1.27745C11.6965 1.11148 11.7523 0.945267 11.8718 0.815381C11.9913 0.685495 12.1648 0.602574 12.354 0.58486C12.3794 0.58486 12.4047 0.58486 12.4301 0.58486C12.6204 0.576003 12.8068 0.633798 12.9485 0.745531C13.0902 0.857264 13.1754 1.01378 13.1855 1.18065C13.1956 1.34752 13.1297 1.51108 13.0023 1.63534C12.875 1.7596 12.6965 1.83438 12.5063 1.84324V1.83646ZM6.91885 11.7041H5.92563C5.95596 11.0592 6.09046 10.4214 6.32513 9.80974L7.25213 10.1214C7.28974 10.1344 7.32981 10.141 7.37021 10.1408C7.44756 10.1409 7.5225 10.1172 7.58201 10.0738C7.64153 10.0305 7.68186 9.97025 7.69602 9.90355C7.71018 9.83685 7.69727 9.76791 7.65953 9.70869C7.62178 9.64947 7.56159 9.60371 7.4894 9.57936L6.5624 9.26767C6.85472 8.67448 7.24111 8.12048 7.71012 7.6221L8.4462 8.20289C8.5068 8.25072 8.58539 8.27726 8.66692 8.27742C8.73382 8.27729 8.79911 8.25938 8.85418 8.22606C8.90925 8.19274 8.95151 8.14556 8.97541 8.09075C8.99931 8.03594 9.00371 7.97607 8.98804 7.91902C8.97237 7.86197 8.93737 7.81042 8.88764 7.77117L8.15265 7.19038C8.66642 6.72919 9.25152 6.33361 9.89079 6.01524L10.3422 6.78963C10.3698 6.83734 10.412 6.87742 10.464 6.90543C10.516 6.93344 10.5758 6.94831 10.6368 6.94838C10.6893 6.94816 10.7411 6.93722 10.788 6.91644C10.865 6.88129 10.9232 6.82101 10.95 6.74858C10.9769 6.67616 10.9702 6.59739 10.9315 6.52924L10.4801 5.75486C11.1478 5.48429 11.8561 5.29851 12.5835 5.20311L12.6939 6.07429C12.7026 6.14582 12.7413 6.21196 12.8025 6.25989C12.8637 6.30781 12.9429 6.33412 13.025 6.33371H13.0614C13.1486 6.32542 13.2284 6.28714 13.2835 6.22725C13.3385 6.16736 13.3642 6.09077 13.3549 6.01428L13.2446 5.14309C13.4112 5.13438 13.5756 5.1276 13.7478 5.1276C14.315 5.12778 14.8804 5.18231 15.4341 5.29023L15.1791 6.13237C15.168 6.16923 15.1652 6.20767 15.171 6.24547C15.1767 6.28328 15.1909 6.31972 15.2128 6.35271C15.2346 6.3857 15.2636 6.41459 15.2982 6.43774C15.3327 6.46089 15.3722 6.47784 15.4142 6.48762C15.4424 6.4937 15.4713 6.49694 15.5003 6.4973C15.5735 6.49639 15.6442 6.47424 15.7015 6.43431C15.7588 6.39438 15.7995 6.33892 15.817 6.2766L16.0786 5.43639C16.782 5.62889 17.4508 5.90786 18.065 6.26498L17.4856 6.96871C17.4601 6.9996 17.4418 7.03459 17.4317 7.07169C17.4216 7.10879 17.4199 7.14727 17.4268 7.18493C17.4337 7.2226 17.4489 7.25871 17.4717 7.2912C17.4945 7.32369 17.5243 7.35192 17.5596 7.37429C17.6158 7.40998 17.6833 7.42928 17.7527 7.42947C17.8052 7.42963 17.857 7.41883 17.9038 7.39796C17.9507 7.37709 17.9911 7.34674 18.022 7.30944L18.6002 6.60571C19.1771 7.00547 19.6875 7.47399 20.1166 7.99767L19.2889 8.47295C19.2456 8.49794 19.2096 8.53149 19.1838 8.57091C19.158 8.61032 19.1431 8.6545 19.1403 8.69989C19.1375 8.74527 19.1469 8.7906 19.1677 8.83222C19.1885 8.87384 19.2202 8.91059 19.2602 8.93952C18.9571 9.06084 18.6481 9.17313 18.3332 9.27638C18.1528 9.1229 17.9281 9.01541 17.6833 8.96544C17.4386 8.91547 17.1829 8.92492 16.9438 8.99276C16.7715 9.04167 16.6119 9.12007 16.4744 9.22342C16.3369 9.32676 16.2241 9.45301 16.1426 9.59484C16.0937 9.67968 16.0566 9.76938 16.0322 9.86201C15.4986 9.95996 14.9598 10.0343 14.4177 10.0846C14.3551 10.0904 14.2958 10.1117 14.2465 10.146C14.1973 10.1803 14.1602 10.2261 14.1396 10.2782C14.0711 10.4476 14.0116 10.6219 13.9564 10.799C13.7751 10.7717 13.5895 10.7766 13.4104 10.8132C13.2313 10.8498 13.0624 10.9175 12.9136 11.0122C12.7648 11.107 12.6391 11.2269 12.5439 11.3649C12.4488 11.5029 12.386 11.6562 12.3594 11.8158C12.3329 11.9754 12.343 12.1381 12.3891 12.2942C12.4353 12.4504 12.5166 12.5968 12.6283 12.7249C12.74 12.8531 12.8798 12.9603 13.0395 13.0403C13.1991 13.1204 13.3754 13.1716 13.558 13.1909C13.5293 13.6284 13.5183 14.0621 13.516 14.4793C13.203 14.5317 12.9203 14.6777 12.716 14.8923C12.5117 15.1068 12.3984 15.3769 12.3954 15.6564C12.3924 15.936 12.4999 16.2078 12.6996 16.4258C12.8992 16.6437 13.1788 16.7942 13.4907 16.8518C13.5388 16.8606 13.5874 16.8671 13.6363 16.8712C13.7089 17.5388 13.8205 18.2028 13.9707 18.8604C13.8957 18.8604 13.8206 18.8604 13.75 18.8604H13.718L13.7644 17.9892C13.7683 17.9122 13.7372 17.8369 13.6779 17.78C13.6186 17.7231 13.536 17.6892 13.4482 17.6857C13.3604 17.6823 13.2746 17.7095 13.2097 17.7615C13.1448 17.8136 13.1062 17.886 13.1022 17.9631L13.0559 18.8342C12.3234 18.7776 11.6037 18.6303 10.9182 18.3967L11.3155 17.5991C11.3508 17.5285 11.3526 17.4485 11.3207 17.3767C11.2887 17.3049 11.2255 17.2472 11.145 17.2163C11.0645 17.1853 10.9733 17.1837 10.8915 17.2117C10.8096 17.2398 10.7438 17.2952 10.7085 17.3658L10.3113 18.1634C9.65114 17.8792 9.03969 17.5153 8.49476 17.0822L9.19002 16.4637C9.24813 16.4083 9.27944 16.3352 9.27735 16.26C9.27526 16.1847 9.23993 16.1131 9.17881 16.0603C9.1177 16.0074 9.03557 15.9774 8.94975 15.9767C8.86393 15.9759 8.78112 16.0044 8.71879 16.0561L8.02243 16.6727C7.52055 16.2013 7.09701 15.6701 6.76435 15.0949L7.66597 14.7358C7.74602 14.704 7.80838 14.6455 7.83932 14.5734C7.87026 14.5012 7.86725 14.4212 7.83096 14.351C7.79467 14.2808 7.72806 14.2261 7.64579 14.199C7.56353 14.1718 7.47234 14.1745 7.39229 14.2063L6.48956 14.5664C6.15328 13.84 5.9625 13.0682 5.92563 12.2849H6.91885C7.00666 12.2849 7.09087 12.2543 7.15296 12.1998C7.21504 12.1454 7.24993 12.0715 7.24993 11.9945C7.24993 11.9175 7.21504 11.8436 7.15296 11.7891C7.09087 11.7347 7.00666 11.7041 6.91885 11.7041ZM13.7975 11.3692C13.7066 11.7792 13.6403 12.1931 13.5988 12.6091C13.4243 12.5781 13.2692 12.491 13.1638 12.3651C13.0585 12.2391 13.0104 12.0832 13.029 11.9278C13.0476 11.7725 13.1316 11.6287 13.2645 11.5247C13.3974 11.4207 13.5697 11.3639 13.7478 11.3653C13.761 11.3653 13.7787 11.3682 13.7953 11.3692H13.7975ZM13.569 16.271C13.3948 16.227 13.2461 16.1268 13.1527 15.9905C13.0594 15.8542 13.0283 15.6919 13.0658 15.5363C13.0849 15.4555 13.1222 15.3787 13.1754 15.3106C13.2287 15.2425 13.2968 15.1843 13.3759 15.1395C13.4184 15.1161 13.4635 15.0966 13.5105 15.0814C13.5149 15.4889 13.5403 15.8848 13.5668 16.271H13.569ZM2.87203 8.33356C2.82503 8.4402 2.74574 8.53357 2.64272 8.60361C2.53969 8.67365 2.41682 8.71769 2.28736 8.731C2.1579 8.74431 2.02676 8.72638 1.90806 8.67914C1.78936 8.63191 1.6876 8.55715 1.61376 8.46293C1.53992 8.36872 1.4968 8.25861 1.48903 8.14448C1.48126 8.03036 1.50915 7.91653 1.56969 7.81528C1.63023 7.71403 1.72112 7.62919 1.83257 7.5699C1.94402 7.51061 2.07181 7.47913 2.20215 7.47883C2.29011 7.47919 2.37725 7.49363 2.45929 7.52143C2.54723 7.55092 2.62768 7.59534 2.69604 7.65214C2.76439 7.70894 2.81931 7.777 2.85764 7.85243C2.89598 7.92786 2.91698 8.00918 2.91945 8.09174C2.92192 8.1743 2.9058 8.25647 2.87203 8.33356Z" fill="#FA627D"/>
</svg>
