<svg width="100" height="100" viewBox="0 0 100 100" fill="none" xmlns="http://www.w3.org/2000/svg">
<path d="M49.9619 99.9237C40.0803 99.9237 30.4207 96.9935 22.2045 91.5036C13.9884 86.0137 7.58463 78.2107 3.80314 69.0814C0.0216468 59.9521 -0.967763 49.9064 0.960025 40.2148C2.88781 30.5231 7.64622 21.6208 14.6335 14.6335C21.6208 7.64622 30.5231 2.88781 40.2148 0.960025C49.9064 -0.967763 59.9521 0.0216468 69.0814 3.80314C78.2107 7.58463 86.0137 13.9884 91.5036 22.2045C96.9935 30.4207 99.9237 40.0803 99.9237 49.9619C99.9086 63.2079 94.64 75.9072 85.2736 85.2736C75.9072 94.64 63.2079 99.9086 49.9619 99.9237ZM49.9619 5.87788C41.2429 5.87788 32.7197 8.46337 25.4701 13.3074C18.2205 18.1514 12.5702 25.0364 9.23358 33.0917C5.89697 41.1469 5.02396 50.0108 6.72495 58.5622C8.42594 67.1137 12.6245 74.9687 18.7898 81.1339C24.955 87.2992 32.81 91.4978 41.3615 93.1988C49.913 94.8997 58.7768 94.0267 66.8321 90.6901C74.8874 87.3535 81.7723 81.7032 86.6163 74.4536C91.4603 67.204 94.0458 58.6808 94.0458 49.9619C94.0326 38.2741 89.3838 27.0689 81.1193 18.8044C72.8548 10.5399 61.6496 5.89111 49.9619 5.87788ZM71.7996 76.0169C72.4743 75.6266 72.9663 74.9843 73.1673 74.2312C73.3684 73.4782 73.2621 72.6761 72.8718 72.0014C70.548 67.9824 67.2078 64.6454 63.1866 62.3254C59.1654 60.0055 54.6046 58.7842 49.9621 58.7842C45.3196 58.7842 40.7589 60.0055 36.7376 62.3254C32.7164 64.6454 29.3762 67.9824 27.0524 72.0014C26.8546 72.3356 26.725 72.7058 26.6712 73.0905C26.6173 73.4751 26.6402 73.8666 26.7386 74.2423C26.8369 74.6181 27.0088 74.9706 27.2442 75.2795C27.4797 75.5884 27.774 75.8476 28.1102 76.0421C28.4464 76.2365 28.8178 76.3624 29.203 76.4125C29.5881 76.4625 29.9794 76.4357 30.3541 76.3336C30.7289 76.2316 31.0797 76.0562 31.3862 75.8177C31.6928 75.5792 31.9491 75.2824 32.1402 74.9442C34.3851 71.0658 37.8299 68.0222 41.9552 66.2719C45.7262 64.6768 49.8877 64.2443 53.9061 65.03C57.9245 65.8157 61.6166 67.7838 64.5091 70.6818C65.7817 71.9541 66.8826 73.3872 67.784 74.9447C67.9771 75.2789 68.2342 75.5718 68.5406 75.8066C68.847 76.0414 69.1967 76.2135 69.5696 76.3131C69.9425 76.4127 70.3314 76.4377 70.7141 76.3869C71.0967 76.3361 71.4656 76.2104 71.7996 76.0169ZM32.3283 45.0636C31.3595 45.0636 30.4125 44.7764 29.607 44.2381C28.8015 43.6999 28.1736 42.9349 27.8029 42.0399C27.4322 41.1449 27.3352 40.16 27.5242 39.2098C27.7132 38.2597 28.1797 37.3869 28.8647 36.7019C29.5497 36.0168 30.4225 35.5503 31.3727 35.3613C32.3228 35.1723 33.3077 35.2693 34.2027 35.6401C35.0978 36.0108 35.8628 36.6386 36.401 37.4441C36.9392 38.2496 37.2265 39.1966 37.2265 40.1654C37.2251 41.4641 36.7085 42.7091 35.7903 43.6274C34.872 44.5457 33.6269 45.0622 32.3283 45.0636ZM67.5954 45.0636C66.6267 45.0636 65.6796 44.7764 64.8741 44.2381C64.0686 43.6999 63.4408 42.9349 63.0701 42.0399C62.6993 41.1449 62.6023 40.16 62.7913 39.2098C62.9803 38.2597 63.4468 37.3869 64.1319 36.7019C64.8169 36.0168 65.6897 35.5503 66.6398 35.3613C67.59 35.1723 68.5749 35.2693 69.4699 35.6401C70.3649 36.0108 71.1299 36.6386 71.6682 37.4441C72.2064 38.2496 72.4937 39.1966 72.4937 40.1654C72.4922 41.4641 71.9757 42.7091 71.0574 43.6274C70.1391 44.5457 68.8941 45.0622 67.5954 45.0636Z" fill="#FFC658"/>
</svg>
