<svg width="100" height="100" viewBox="0 0 100 100" fill="none" xmlns="http://www.w3.org/2000/svg">
<path d="M50.038 0C40.1565 0 30.4969 2.93021 22.2807 8.42009C14.0645 13.91 7.6608 21.7129 3.87931 30.8423C0.0978187 39.9716 -0.891591 50.0173 1.0362 59.7089C2.96399 69.4006 7.72239 78.3029 14.7097 85.2902C21.697 92.2775 30.5993 97.0359 40.291 98.9637C49.9826 100.891 60.0283 99.902 69.1576 96.1206C78.2869 92.3391 86.0899 85.9353 91.5798 77.7191C97.0696 69.503 99.9999 59.8433 99.9999 49.9618C99.9849 36.7157 94.7163 24.0164 85.3499 14.6499C75.9835 5.28352 63.2842 0.0149092 50.038 0ZM50.038 94.0458C41.319 94.0458 32.7959 91.4603 25.5463 86.6163C18.2967 81.7723 12.6464 74.8873 9.30975 66.832C5.97314 58.7767 5.10013 49.9129 6.80112 41.3615C8.50211 32.81 12.7007 24.955 18.866 18.7898C25.0312 12.6245 32.8862 8.42591 41.4377 6.72492C49.9891 5.02393 58.8529 5.89694 66.9082 9.23355C74.9635 12.5702 81.8485 18.2205 86.6925 25.4701C91.5365 32.7197 94.122 41.2428 94.122 49.9618C94.1088 61.6496 89.46 72.8548 81.1955 81.1193C72.931 89.3838 61.7258 94.0326 50.038 94.0458ZM72.9475 63.187C70.6237 67.2061 67.2836 70.5431 63.2624 72.8631C59.2412 75.1831 54.6804 76.4044 50.0379 76.4044C45.3955 76.4045 40.8347 75.1833 36.8134 72.8634C32.7921 70.5434 29.4519 67.2065 27.1281 63.1875C26.9303 62.8533 26.8007 62.4831 26.7468 62.0984C26.693 61.7138 26.7159 61.3223 26.8142 60.9466C26.9126 60.5708 27.0845 60.2183 27.3199 59.9094C27.5553 59.6005 27.8497 59.3413 28.1859 59.1468C28.5221 58.9524 28.8935 58.8265 29.2787 58.7764C29.6638 58.7264 30.0551 58.7532 30.4298 58.8553C30.8046 58.9573 31.1554 59.1327 31.4619 59.3712C31.7685 59.6097 32.0247 59.9065 32.2159 60.2447C34.4611 64.1228 37.9057 67.1664 42.0309 68.917C45.8019 70.5121 49.9635 70.9446 53.9819 70.1588C58.0003 69.373 61.6924 67.4048 64.5848 64.5066C65.8575 63.2345 66.9586 61.8016 67.8602 60.2442C68.0492 59.9021 68.3045 59.6012 68.6113 59.359C68.918 59.1168 69.2699 58.9382 69.6465 58.8337C70.0231 58.7292 70.4167 58.7008 70.8044 58.7502C71.1921 58.7997 71.566 58.926 71.9043 59.1217C72.2425 59.3174 72.5384 59.5786 72.7745 59.89C73.0106 60.2014 73.1822 60.5568 73.2793 60.9354C73.3764 61.3139 73.397 61.7081 73.34 62.0947C73.2829 62.4813 73.1493 62.8527 72.947 63.187H72.9475ZM27.5062 40.1654C27.5062 39.1966 27.7935 38.2496 28.3317 37.4441C28.8699 36.6386 29.6349 36.0108 30.53 35.64C31.425 35.2693 32.4099 35.1723 33.36 35.3613C34.3102 35.5503 35.183 36.0168 35.868 36.7018C36.553 37.3869 37.0195 38.2596 37.2085 39.2098C37.3975 40.16 37.3005 41.1448 36.9298 42.0399C36.5591 42.9349 35.9313 43.6999 35.1257 44.2381C34.3202 44.7763 33.3732 45.0636 32.4044 45.0636C31.1058 45.0622 29.8607 44.5457 28.9424 43.6274C28.0242 42.7091 27.5076 41.464 27.5062 40.1654ZM62.7734 40.1654C62.7734 39.1966 63.0607 38.2496 63.5989 37.4441C64.1371 36.6386 64.9021 36.0108 65.7971 35.64C66.6922 35.2693 67.677 35.1723 68.6272 35.3613C69.5774 35.5503 70.4501 36.0168 71.1352 36.7018C71.8202 37.3869 72.2867 38.2596 72.4757 39.2098C72.6647 40.16 72.5677 41.1448 72.197 42.0399C71.8262 42.9349 71.1984 43.6999 70.3929 44.2381C69.5874 44.7763 68.6404 45.0636 67.6716 45.0636C66.373 45.0622 65.1279 44.5457 64.2096 43.6274C63.2913 42.7091 62.7748 41.464 62.7734 40.1654Z" fill="#FFC658"/>
</svg>
