<svg width="101" height="100" viewBox="0 0 101 100" fill="none" xmlns="http://www.w3.org/2000/svg">
<path d="M50.4999 0C40.6184 0 30.9588 2.93021 22.7426 8.42009C14.5265 13.91 8.12272 21.7129 4.34123 30.8423C0.559733 39.9716 -0.429677 50.0173 1.49811 59.7089C3.4259 69.4006 8.1843 78.3029 15.1716 85.2902C22.1589 92.2775 31.0612 97.0359 40.7529 98.9637C50.4445 100.891 60.4902 99.902 69.6195 96.1206C78.7488 92.3391 86.5518 85.9353 92.0417 77.7191C97.5316 69.503 100.462 59.8433 100.462 49.9618C100.447 36.7157 95.1783 24.0164 85.8118 14.6499C76.4454 5.28352 63.7461 0.0149092 50.4999 0ZM50.4999 94.0458C41.781 94.0458 33.2578 91.4603 26.0082 86.6163C18.7586 81.7723 13.1083 74.8873 9.77166 66.832C6.43505 58.7767 5.56204 49.9129 7.26303 41.3615C8.96402 32.81 13.1626 24.955 19.3279 18.7898C25.4931 12.6245 33.3481 8.42591 41.8996 6.72492C50.451 5.02393 59.3149 5.89694 67.3701 9.23355C75.4254 12.5702 82.3104 18.2205 87.1544 25.4701C91.9984 32.7197 94.5839 41.2428 94.5839 49.9618C94.5707 61.6496 89.9219 72.8548 81.6574 81.1193C73.3929 89.3838 62.1877 94.0326 50.4999 94.0458ZM73.0317 65.6361C73.0317 66.4156 72.7221 67.1631 72.171 67.7143C71.6198 68.2654 70.8723 68.5751 70.0928 68.5751H30.9071C30.1276 68.5751 29.3801 68.2654 28.8289 67.7143C28.2778 67.1631 27.9681 66.4156 27.9681 65.6361C27.9681 64.8567 28.2778 64.1091 28.8289 63.558C29.3801 63.0068 30.1276 62.6972 30.9071 62.6972H70.0928C70.8723 62.6972 71.6198 63.0068 72.171 63.558C72.7221 64.1091 73.0317 64.8567 73.0317 65.6361ZM27.9681 40.1654C27.9681 39.1966 28.2554 38.2496 28.7936 37.4441C29.3319 36.6386 30.0969 36.0108 30.9919 35.64C31.8869 35.2693 32.8718 35.1723 33.8219 35.3613C34.7721 35.5503 35.6449 36.0168 36.3299 36.7018C37.0149 37.3869 37.4815 38.2596 37.6705 39.2098C37.8595 40.16 37.7625 41.1448 37.3917 42.0399C37.021 42.9349 36.3932 43.6999 35.5877 44.2381C34.7822 44.7763 33.8351 45.0636 32.8664 45.0636C31.5677 45.0622 30.3226 44.5457 29.4044 43.6274C28.4861 42.7091 27.9696 41.464 27.9681 40.1654ZM73.0317 40.1654C73.0317 41.1342 72.7445 42.0812 72.2062 42.8867C71.668 43.6922 70.903 44.32 70.008 44.6908C69.113 45.0615 68.1281 45.1585 67.1779 44.9695C66.2278 44.7805 65.355 44.314 64.67 43.629C63.9849 42.9439 63.5184 42.0712 63.3294 41.121C63.1404 40.1708 63.2374 39.186 63.6082 38.2909C63.9789 37.3959 64.6067 36.6309 65.4122 36.0927C66.2177 35.5545 67.1647 35.2672 68.1335 35.2672C69.4322 35.2686 70.6772 35.7851 71.5955 36.7034C72.5138 37.6217 73.0303 38.8667 73.0317 40.1654Z" fill="#FFC658"/>
</svg>
