<svg width="53" height="53" viewBox="0 0 53 53" fill="none" xmlns="http://www.w3.org/2000/svg">
<path d="M26.7543 51.554C23.1465 51.5749 19.5577 51.0304 16.1185 49.9404C15.975 49.8935 15.8501 49.8024 15.7614 49.6802C15.6728 49.558 15.6251 49.4109 15.625 49.26V24.8807C15.6251 24.7027 15.6915 24.5311 15.8112 24.3994L20.4057 19.3365C20.4728 19.2625 20.5546 19.2035 20.6459 19.163C20.7372 19.1225 20.8359 19.1016 20.9357 19.1016H32.5721C32.6721 19.1015 32.7709 19.1224 32.8623 19.1629C32.9537 19.2033 33.0357 19.2625 33.1028 19.3365L37.6973 24.4008C37.8171 24.5326 37.8835 24.7041 37.8836 24.8821V49.26C37.8835 49.4109 37.8358 49.558 37.7471 49.6802C37.6585 49.8024 37.5336 49.8935 37.3901 49.9404C33.9508 51.0304 30.3621 51.5749 26.7543 51.554ZM17.0574 48.7357C23.3892 50.5889 30.1194 50.5889 36.4511 48.7357V25.1572L32.2548 20.5326H21.2537L17.0574 25.1572V48.7357Z" fill="#53B2E8"/>
<path d="M33.287 20.5328H20.1258C19.7802 20.5324 19.4488 20.395 19.2045 20.1506C18.9601 19.9062 18.8226 19.5749 18.8223 19.2293V15.8309C18.8228 15.4853 18.9603 15.1541 19.2047 14.9098C19.449 14.6654 19.7802 14.5279 20.1258 14.5273H33.287C33.6324 14.5279 33.9636 14.6655 34.2078 14.9098C34.452 15.1542 34.5894 15.4854 34.5898 15.8309V19.2293C34.5896 19.5748 34.4523 19.9062 34.208 20.1506C33.9638 20.395 33.6325 20.5324 33.287 20.5328ZM20.2518 19.1004H33.1609V15.9598H20.2511L20.2518 19.1004Z" fill="#53B2E8"/>
<path d="M30.7266 15.957H22.685C22.495 15.957 22.3128 15.8816 22.1785 15.7472C22.0442 15.6129 21.9688 15.4308 21.9688 15.2408V12.2692C21.969 12.1304 22.0093 11.9947 22.0848 11.8782L23.3818 9.88566V4.10364C23.3818 3.76173 23.5177 3.43382 23.7594 3.19205C24.0012 2.95028 24.3291 2.81445 24.671 2.81445H28.7327C29.0743 2.81559 29.4015 2.95177 29.643 3.1933C29.8846 3.43482 30.0207 3.76208 30.0219 4.10364V9.88207L31.3247 11.8739C31.401 11.9906 31.4415 12.127 31.4414 12.2664V15.2379C31.4418 15.3321 31.4236 15.4254 31.3879 15.5126C31.3521 15.5997 31.2996 15.6789 31.2332 15.7457C31.1668 15.8125 31.0879 15.8656 31.0009 15.9018C30.914 15.9381 30.8208 15.9568 30.7266 15.957ZM23.3983 14.5246H30.0104V12.4827L28.7076 10.4901C28.6315 10.3737 28.5909 10.2375 28.5909 10.0984V4.24474H24.8143V10.0969C24.814 10.2356 24.7734 10.3712 24.6975 10.4873L23.4012 12.4805L23.3983 14.5246Z" fill="#53B2E8"/>
<path d="M20.4912 7.03106H15.8315C15.6415 7.03106 15.4593 6.95561 15.325 6.82129C15.1907 6.68697 15.1152 6.5048 15.1152 6.31485C15.1152 6.1249 15.1907 5.94272 15.325 5.80841C15.4593 5.67409 15.6415 5.59863 15.8315 5.59863H20.4912C20.6811 5.59863 20.8633 5.67409 20.9976 5.80841C21.1319 5.94272 21.2074 6.1249 21.2074 6.31485C21.2074 6.5048 21.1319 6.68697 20.9976 6.82129C20.8633 6.95561 20.6811 7.03106 20.4912 7.03106Z" fill="#53B2E8"/>
<path d="M15.9127 11.1939C15.741 11.1938 15.5751 11.1319 15.4452 11.0197C15.3153 10.9074 15.23 10.7522 15.205 10.5824C15.1799 10.4125 15.2166 10.2393 15.3085 10.0943C15.4005 9.94929 15.5414 9.84212 15.7057 9.79231L20.2179 8.4315C20.3086 8.40159 20.4045 8.39014 20.4997 8.39783C20.595 8.40553 20.6878 8.43221 20.7725 8.4763C20.8573 8.5204 20.9324 8.58101 20.9934 8.65458C21.0544 8.72815 21.1001 8.81318 21.1277 8.90467C21.1553 8.99616 21.1644 9.09225 21.1543 9.18729C21.1442 9.28232 21.1152 9.37438 21.069 9.45803C21.0228 9.54168 20.9603 9.61524 20.8852 9.67437C20.8102 9.73351 20.724 9.77702 20.6319 9.80234L16.1197 11.1632C16.0526 11.1835 15.9828 11.1939 15.9127 11.1939Z" fill="#53B2E8"/>
<path d="M20.4253 4.22884C20.3551 4.2289 20.2853 4.21827 20.2183 4.19733L15.7061 2.83652C15.614 2.8112 15.5278 2.76769 15.4527 2.70855C15.3777 2.64942 15.3152 2.57586 15.269 2.49221C15.2228 2.40856 15.1938 2.3165 15.1837 2.22146C15.1736 2.12643 15.1826 2.03034 15.2103 1.93885C15.2379 1.84736 15.2836 1.76233 15.3446 1.68876C15.4056 1.61519 15.4807 1.55458 15.5654 1.51048C15.6502 1.46639 15.743 1.43971 15.8382 1.43201C15.9335 1.42432 16.0293 1.43577 16.1201 1.46568L20.6323 2.82649C20.7971 2.87585 20.9387 2.98292 21.0311 3.12812C21.1235 3.27333 21.1605 3.44695 21.1354 3.61721C21.1103 3.78747 21.0247 3.94299 20.8943 4.05531C20.7639 4.16763 20.5974 4.22923 20.4253 4.22884Z" fill="#53B2E8"/>
<path d="M37.1655 43.9266H16.3451C16.1552 43.9266 15.973 43.8511 15.8387 43.7168C15.7044 43.5825 15.6289 43.4003 15.6289 43.2104C15.6289 43.0204 15.7044 42.8382 15.8387 42.7039C15.973 42.5696 16.1552 42.4941 16.3451 42.4941H37.1655C37.3555 42.4941 37.5377 42.5696 37.672 42.7039C37.8063 42.8382 37.8817 43.0204 37.8817 43.2104C37.8817 43.4003 37.8063 43.5825 37.672 43.7168C37.5377 43.8511 37.3555 43.9266 37.1655 43.9266Z" fill="#53B2E8"/>
<path d="M37.1655 30.3182H16.3451C16.1552 30.3182 15.973 30.2427 15.8387 30.1084C15.7044 29.9741 15.6289 29.7919 15.6289 29.602C15.6289 29.412 15.7044 29.2298 15.8387 29.0955C15.973 28.9612 16.1552 28.8857 16.3451 28.8857H37.1655C37.3555 28.8857 37.5377 28.9612 37.672 29.0955C37.8063 29.2298 37.8817 29.412 37.8817 29.602C37.8817 29.7919 37.8063 29.9741 37.672 30.1084C37.5377 30.2427 37.3555 30.3182 37.1655 30.3182Z" fill="#53B2E8"/>
<path d="M26.7533 39.6146C26.5634 39.6146 26.3812 39.5392 26.2469 39.4049C26.1126 39.2705 26.0371 39.0884 26.0371 38.8984V33.9164C26.0371 33.7265 26.1126 33.5443 26.2469 33.41C26.3812 33.2757 26.5634 33.2002 26.7533 33.2002C26.9433 33.2002 27.1254 33.2757 27.2598 33.41C27.3941 33.5443 27.4695 33.7265 27.4695 33.9164V38.8984C27.4695 39.0884 27.3941 39.2705 27.2598 39.4049C27.1254 39.5392 26.9433 39.6146 26.7533 39.6146Z" fill="#53B2E8"/>
<path d="M29.2451 37.1209H24.2631C24.0731 37.1209 23.891 37.0454 23.7566 36.9111C23.6223 36.7768 23.5469 36.5946 23.5469 36.4047C23.5469 36.2147 23.6223 36.0326 23.7566 35.8983C23.891 35.7639 24.0731 35.6885 24.2631 35.6885H29.2451C29.435 35.6885 29.6172 35.7639 29.7515 35.8983C29.8858 36.0326 29.9613 36.2147 29.9613 36.4047C29.9613 36.5946 29.8858 36.7768 29.7515 36.9111C29.6172 37.0454 29.435 37.1209 29.2451 37.1209Z" fill="#53B2E8"/>
</svg>
