<svg width="50" height="50" viewBox="0 0 50 50" fill="none" xmlns="http://www.w3.org/2000/svg">
<g clip-path="url(#clip0)">
<path d="M36.4583 25.0013C36.1771 25.0013 35.9 24.8867 35.7021 24.6742L30.95 19.643C28.9646 17.5388 25.6875 17.2117 23.325 18.8805C20.5896 20.8117 16.9125 20.8117 14.1771 18.8805C11.8167 17.2138 8.5375 17.5409 6.55208 19.643L1.8 24.6742C1.50833 24.9867 1.05208 25.0826 0.658333 24.9284C0.260417 24.7701 0 24.3867 0 23.9597C0 20.4555 0.379167 16.9617 1.12708 13.5742C2.07708 9.26382 5.84167 6.25132 10.2792 6.25132H13.9625C18.7083 6.25132 23.3042 4.28049 26.5771 0.840908C26.6 0.817991 26.6208 0.797158 26.6437 0.776324C27.3312 0.174241 28.2458 -0.0945089 29.1312 0.0346578C30.0292 0.163824 30.825 0.684658 31.3146 1.45966C33.6271 5.13257 37.5 11.2784 37.5 23.9597C37.5 24.3867 37.2396 24.7701 36.8437 24.9284C36.7187 24.9763 36.5896 25.0013 36.4583 25.0013ZM26.6833 15.7388C28.8104 15.7388 30.9229 16.5826 32.4625 18.2138L35.3563 21.2763C34.8792 11.0263 31.7062 5.99299 29.5521 2.57216C29.3854 2.30966 29.1292 2.13882 28.8312 2.09507C28.5417 2.05549 28.2708 2.13466 28.0458 2.31799C24.3854 6.14299 19.2563 8.33466 13.9604 8.33466H10.2792C6.825 8.33466 3.9 10.6742 3.1625 14.0222C2.63958 16.3909 2.30417 18.8138 2.16458 21.2555L5.03958 18.2117C7.73125 15.3576 12.175 14.9138 15.3792 17.1763C17.3979 18.6013 20.1083 18.6013 22.125 17.1763C23.4937 16.2117 25.0917 15.7388 26.6833 15.7388Z" fill="#53B2E8"/>
<path d="M10.4173 29.1667C11.5679 29.1667 12.5007 28.2339 12.5007 27.0833C12.5007 25.9327 11.5679 25 10.4173 25C9.26672 25 8.33398 25.9327 8.33398 27.0833C8.33398 28.2339 9.26672 29.1667 10.4173 29.1667Z" fill="#53B2E8"/>
<path d="M27.0833 29.1667C28.2339 29.1667 29.1667 28.2339 29.1667 27.0833C29.1667 25.9327 28.2339 25 27.0833 25C25.9327 25 25 25.9327 25 27.0833C25 28.2339 25.9327 29.1667 27.0833 29.1667Z" fill="#53B2E8"/>
<path d="M20.4583 43.7503H17.0417C12.4917 43.7503 8.21459 41.9774 4.99375 38.7587C1.775 35.5399 0 31.2607 0 26.7087V23.9587C0 23.3837 0.466667 22.917 1.04167 22.917C1.61667 22.917 2.08333 23.3837 2.08333 23.9587V26.7087C2.08333 30.7024 3.63958 34.4607 6.46667 37.2857C9.29375 40.1107 13.05 41.667 17.0417 41.667H20.4583C24.45 41.667 28.2063 40.1107 31.0333 37.2837C31.9979 36.3191 32.8146 35.2337 33.4604 34.0587C33.7396 33.5524 34.3708 33.3753 34.8771 33.6482C35.3813 33.9253 35.5646 34.5587 35.2875 35.0628C34.5479 36.4087 33.6104 37.6503 32.5063 38.7545C29.2875 41.9774 25.0083 43.7503 20.4583 43.7503Z" fill="#53B2E8"/>
<path d="M43.75 50C40.3042 50 37.5 47.1958 37.5 43.75C37.5 42.3479 37.9542 41.0208 38.8125 39.9187C39.1646 39.4667 39.5833 38.7458 39.5833 37.8792V29.1667C39.5833 26.8687 41.4521 25 43.75 25C46.0479 25 47.9167 26.8687 47.9167 29.1667V37.8771C47.9167 38.7458 48.3354 39.4646 48.6875 39.9167C49.5458 41.0208 50 42.3479 50 43.75C50 47.1958 47.1958 50 43.75 50ZM43.75 27.0833C42.6 27.0833 41.6667 28.0187 41.6667 29.1667V37.8771C41.6667 39.0333 41.2479 40.1812 40.4563 41.1979C39.8854 41.9312 39.5833 42.8146 39.5833 43.75C39.5833 46.0479 41.4521 47.9167 43.75 47.9167C46.0479 47.9167 47.9167 46.0479 47.9167 43.75C47.9167 42.8146 47.6146 41.9312 47.0437 41.1958C46.2521 40.1812 45.8333 39.0333 45.8333 37.8771V29.1667C45.8333 28.0187 44.9 27.0833 43.75 27.0833Z" fill="#53B2E8"/>
</g>
<defs>
<clipPath id="clip0">
<rect width="50" height="50" fill="white"/>
</clipPath>
</defs>
</svg>
