<svg width="18" height="15" viewBox="0 0 18 15" fill="none" xmlns="http://www.w3.org/2000/svg">
<path d="M18 1.72877C17.4988 2.47297 16.8838 3.10736 16.1551 3.63195C16.1623 3.77264 16.1659 3.93166 16.1659 4.109C16.1659 5.09436 16.022 6.08091 15.7342 7.06865C15.4463 8.0564 15.0066 9.00185 14.4151 9.90501C13.8235 10.8082 13.1189 11.6083 12.3012 12.3053C11.4834 13.0024 10.5005 13.5582 9.35231 13.9728C8.20414 14.3873 6.97361 14.5946 5.66072 14.5946C3.61175 14.5946 1.72484 14.0425 0 12.9382C0.306138 12.9722 0.59975 12.9892 0.880837 12.9892C2.59259 12.9892 4.12147 12.463 5.46746 11.4104C4.66934 11.3958 3.95456 11.1506 3.32313 10.6747C2.6917 10.1989 2.25717 9.59082 2.01953 8.85058C2.25442 8.89524 2.48625 8.91757 2.71502 8.91757C3.04432 8.91757 3.36834 8.8747 3.6871 8.78896C2.83536 8.61869 2.12876 8.19525 1.56732 7.51865C1.0059 6.84205 0.72519 6.06113 0.72519 5.17588V5.13026C1.24799 5.41919 1.80564 5.57288 2.39814 5.59133C1.89358 5.25558 1.49353 4.81774 1.19801 4.27783C0.902467 3.73792 0.754696 3.15364 0.754696 2.52499C0.754696 1.86198 0.921144 1.24459 1.25404 0.672825C2.18029 1.80738 3.30264 2.71415 4.62108 3.39314C5.93954 4.07214 7.354 4.44923 8.86446 4.52442C8.80003 4.25644 8.76776 3.97678 8.76765 3.68545C8.76765 2.66825 9.12828 1.79971 9.84956 1.07982C10.5708 0.359941 11.441 0 12.4601 0C13.5271 0 14.4258 0.387783 15.1562 1.16335C15.9908 0.998342 16.7723 0.699888 17.5006 0.267986C17.22 1.1494 16.6793 1.82935 15.8785 2.30784C16.6145 2.22055 17.3217 2.02752 18 1.72877H18Z" fill="#494949"/>
</svg>
