<svg width="220" height="265" viewBox="0 0 220 265" fill="none" xmlns="http://www.w3.org/2000/svg">
<path d="M63.7962 188.111C63.4568 188.063 63.0804 188.091 62.7452 188.203C61.4118 188.603 60.6594 189.988 61.0589 191.322C62.6458 196.734 60.4651 202.631 55.7252 205.696C51.8931 208.169 47.0173 208.393 42.9432 206.308C41.6997 205.682 40.1951 206.164 39.5727 207.381C38.9466 208.624 39.4286 210.129 40.646 210.751C46.2848 213.641 53.0914 213.314 58.4154 209.878C65.0231 205.637 68.0613 197.41 65.8375 189.886C65.5771 188.892 64.7362 188.242 63.7962 188.111Z" fill="#FA627D"/>
<path d="M102.518 61.0651C101.839 60.9703 101.15 61.1403 100.577 61.6194L88.2156 71.7936C87.1335 72.6807 86.9931 74.2584 87.8839 75.3145C88.7711 76.3967 90.3487 76.537 91.4048 75.6462L103.766 65.4721C104.848 64.5849 104.989 63.0073 104.098 61.9512C103.686 61.4678 103.119 61.1489 102.518 61.0651Z" fill="#FA627D"/>
<path d="M217.256 1.84511C216.577 1.75034 215.888 1.92035 215.315 2.39946L202.954 12.5736C201.872 13.4607 201.731 15.0384 202.622 16.0945C203.509 17.1767 205.087 17.3171 206.143 16.4263L218.505 6.25212C219.587 5.36496 219.727 3.78728 218.836 2.7312C218.425 2.24779 217.857 1.92895 217.256 1.84511Z" fill="#FA627D"/>
<path d="M186.738 223.341C186.686 223.333 186.633 223.326 186.581 223.319C185.213 223.208 184.004 224.237 183.889 225.632L182.621 241.585C182.509 242.954 183.539 244.162 184.933 244.277C186.302 244.388 187.51 243.359 187.625 241.965L188.894 226.011C188.972 224.691 188.043 223.523 186.738 223.341Z" fill="#777CEA"/>
<path d="M210.152 169.858C209.318 170.105 208.382 169.914 207.728 169.283C206.734 168.34 206.672 166.737 207.64 165.735C210.788 162.439 211.934 157.673 210.64 153.3C209.039 147.891 203.995 144.133 198.364 144.15C196.988 144.145 195.866 143.047 195.838 141.653C195.835 140.527 196.593 139.56 197.63 139.254C197.857 139.186 198.092 139.144 198.342 139.153C206.193 139.111 213.221 144.371 215.45 151.904C217.246 157.971 215.661 164.598 211.301 169.188C210.957 169.51 210.557 169.738 210.152 169.858Z" fill="#FCB0BE"/>
<path d="M157.236 38.4625C156.678 39.1305 155.794 39.4912 154.9 39.3288C153.55 39.0951 152.608 37.7951 152.859 36.4249C153.651 31.9361 151.963 27.3347 148.461 24.4132C144.129 20.7993 137.847 20.4686 133.171 23.6052C132.023 24.364 130.48 24.0729 129.684 22.9283C129.057 21.993 129.152 20.7678 129.845 19.9379C129.997 19.7557 130.169 19.5903 130.382 19.4588C136.891 15.071 145.657 15.5515 151.689 20.5839C156.548 24.6369 158.904 31.031 157.82 37.268C157.712 37.727 157.506 38.1386 157.236 38.4625Z" fill="#53B2E8"/>
<path d="M191.248 85.9442C193.133 85.3862 195.114 86.4621 195.672 88.3473C196.23 90.2325 195.154 92.2131 193.269 92.7711C191.384 93.3291 189.403 92.2532 188.845 90.368C188.287 88.4828 189.363 86.5022 191.248 85.9442Z" fill="#FA627D"/>
<path d="M3.41225 187.729C5.29746 187.171 7.27808 188.247 7.8361 190.132C8.39412 192.017 7.31821 193.998 5.433 194.556C3.5478 195.114 1.56717 194.038 1.00915 192.153C0.451137 190.267 1.52704 188.287 3.41225 187.729Z" fill="#FA627D"/>
<path d="M36.1007 263.056C34.8368 263.431 33.4832 262.759 33.0333 261.517L27.5889 246.468C27.1239 245.176 27.7984 243.739 29.0829 243.249C29.1335 243.234 29.1841 243.219 29.2346 243.204C30.4986 242.83 31.8521 243.501 32.302 244.743L37.7465 259.792C38.2114 261.085 37.5369 262.521 36.2524 263.012C36.2018 263.027 36.1513 263.041 36.1007 263.056Z" fill="#53B2E8"/>
<path d="M121.156 107.764C112.511 110.323 107.564 119.431 110.123 128.076C112.682 136.721 121.789 141.668 130.434 139.109C139.079 136.55 144.026 127.443 141.467 118.798C138.909 110.153 129.801 105.206 121.156 107.764ZM129.012 134.306C123.022 136.08 116.699 132.645 114.926 126.654C113.152 120.663 116.587 114.341 122.578 112.567C128.569 110.794 134.891 114.229 136.665 120.219C138.438 126.21 135.003 132.533 129.012 134.306Z" fill="#F99964"/>
<path d="M116.527 216.951C107.882 219.51 102.935 228.618 105.494 237.263C108.053 245.908 117.16 250.855 125.805 248.296C134.45 245.737 139.397 236.63 136.839 227.985C134.28 219.34 125.172 214.393 116.527 216.951ZM124.384 243.493C118.393 245.267 112.07 241.832 110.297 235.841C108.523 229.85 111.958 223.528 117.949 221.754C123.94 219.981 130.262 223.416 132.036 229.406C133.809 235.397 130.374 241.72 124.384 243.493Z" fill="#53B2E8"/>
<path d="M112.51 165.313C111.752 165.538 111.123 166.109 110.838 166.908C110.401 168.22 111.095 169.636 112.407 170.073L135.887 177.969C137.198 178.406 138.615 177.712 139.051 176.4C139.488 175.089 138.794 173.672 137.482 173.236L114.002 165.339C113.516 165.181 112.99 165.171 112.51 165.313Z" fill="#FFC658"/>
</svg>
