<svg width="338" height="245" viewBox="0 0 338 245" fill="none" xmlns="http://www.w3.org/2000/svg">
<path d="M143.13 72.8149C143.438 72.8565 143.78 72.8301 144.084 72.7261C145.293 72.3576 145.971 71.0959 145.602 69.8865C144.138 64.9777 146.094 59.6118 150.386 56.8079C153.856 54.5455 158.283 54.3209 161.993 56.1981C163.125 56.7614 164.489 56.3172 165.049 55.2088C165.613 54.0767 165.168 52.7121 164.06 52.152C158.926 49.5512 152.745 49.8777 147.924 53.0211C141.941 56.9017 139.216 64.3867 141.268 71.2109C141.509 72.1132 142.276 72.6997 143.13 72.8149Z" fill="#FA627D"/>
<path d="M4.53312 242.65C5.15017 242.733 5.77549 242.575 6.29359 242.138L17.4778 232.844C18.457 232.034 18.5778 230.6 17.7642 229.645C16.9537 228.666 15.5202 228.545 14.5648 229.358L3.38052 238.652C2.40137 239.462 2.2806 240.896 3.0942 241.851C3.4702 242.289 3.98727 242.576 4.53312 242.65Z" fill="#FA627D"/>
<path d="M31.3082 41.3398C31.3557 41.3462 31.4031 41.3526 31.4506 41.359C32.6942 41.4541 33.7874 40.5142 33.8857 39.2469L34.97 24.7511C35.0651 23.5075 34.1252 22.4143 32.8579 22.316C31.6143 22.2208 30.5212 23.1607 30.4228 24.428L29.3385 38.9239C29.2735 40.1232 30.1217 41.1798 31.3082 41.3398Z" fill="#777CEA"/>
<path d="M317.575 72.3111C325.69 73.4051 333.177 67.6976 334.271 59.582C335.365 51.4665 329.657 43.9803 321.542 42.8863C313.426 41.7923 305.94 47.4998 304.846 55.6154C303.752 63.7309 309.459 71.2171 317.575 72.3111ZM320.934 47.395C326.558 48.1531 330.52 53.3503 329.762 58.9742C329.004 64.5982 323.807 68.5606 318.183 67.8025C312.559 67.0443 308.596 61.8471 309.354 56.2232C310.113 50.5993 315.31 46.6368 320.934 47.395Z" fill="#FA627D"/>
<path d="M10.2682 90.0173C11.0248 89.7895 11.8759 89.9583 12.4728 90.5288C13.3796 91.381 13.443 92.8373 12.5678 93.751C9.72238 96.7583 8.7016 101.092 9.89593 105.058C11.3733 109.965 15.9706 113.357 21.0849 113.317C22.3348 113.316 23.3587 114.308 23.3898 115.574C23.3977 116.596 22.7129 117.478 21.7729 117.761C21.5665 117.823 21.3533 117.862 21.1262 117.856C13.9959 117.927 7.5901 113.179 5.53281 106.347C3.87593 100.844 5.28717 94.8179 9.22765 90.6307C9.53926 90.3368 9.90139 90.1277 10.2682 90.0173Z" fill="#FCB0BE"/>
<path d="M235.237 4.88439C235.752 4.28528 236.56 3.96971 237.37 4.12944C238.593 4.35994 239.43 5.55336 239.184 6.7944C238.404 10.8602 239.875 15.0622 243.016 17.763C246.901 21.104 252.601 21.4897 256.89 18.7046C257.943 18.031 259.34 18.3164 260.048 19.3667C260.605 20.2247 260.501 21.3361 259.861 22.0804C259.721 22.2438 259.562 22.3916 259.367 22.5082C253.395 26.4047 245.441 25.8492 240.031 21.1968C235.674 17.45 233.621 11.611 234.69 5.96131C234.794 5.54594 234.987 5.17487 235.237 4.88439Z" fill="#53B2E8"/>
<path d="M58.8905 209.135C59.3938 208.526 60.1957 208.194 61.0087 208.338C62.2359 208.545 63.0962 209.721 62.8745 210.967C62.1741 215.047 63.7274 219.22 66.9207 221.858C70.8708 225.122 76.5773 225.396 80.8115 222.527C81.851 221.833 83.2531 222.091 83.9809 223.127C84.5547 223.974 84.4735 225.087 83.8482 225.844C83.7109 226.01 83.5552 226.161 83.3625 226.281C77.4684 230.294 69.5049 229.895 64.0043 225.35C59.5744 221.689 57.4073 215.892 58.3647 210.222C58.4611 209.805 58.6465 209.43 58.8905 209.135Z" fill="#53B2E8"/>
<path d="M27.7997 166.153C26.0898 166.668 24.2862 165.7 23.7714 163.99C23.2565 162.28 24.2253 160.476 25.9352 159.961C27.6451 159.446 29.4486 160.415 29.9635 162.125C30.4784 163.835 29.5096 165.639 27.7997 166.153Z" fill="#FA627D"/>
<path d="M298.585 21.1644C296.875 21.6793 295.071 20.7105 294.557 19.0006C294.042 17.2907 295.01 15.4872 296.72 14.9723C298.43 14.4574 300.234 15.4262 300.749 17.1361C301.264 18.846 300.295 20.6496 298.585 21.1644Z" fill="#FFC658"/>
<path d="M197.972 72.9042C196.262 73.419 194.458 72.4503 193.943 70.7404C193.428 69.0304 194.397 67.2269 196.107 66.712C197.817 66.1972 199.621 67.1659 200.135 68.8759C200.65 70.5858 199.681 72.3893 197.972 72.9042Z" fill="#FA627D"/>
<path d="M167.958 4.62475C169.104 4.27955 170.336 4.8838 170.75 6.0095L175.759 19.6555C176.187 20.827 175.581 22.135 174.416 22.5857C174.37 22.5995 174.324 22.6133 174.279 22.6271C173.132 22.9723 171.9 22.3681 171.486 21.2424L166.477 7.59637C166.049 6.42481 166.655 5.11688 167.82 4.66617C167.866 4.65236 167.912 4.63856 167.958 4.62475Z" fill="#53B2E8"/>
<path d="M244.655 73.0559C243.942 72.0939 244.094 70.7299 245.013 69.9594L256.159 60.6278C257.116 59.8288 258.552 59.9568 259.37 60.9002C259.399 60.9387 259.428 60.9772 259.456 61.0157C260.169 61.9776 260.017 63.3416 259.098 64.1121L247.952 73.4437C246.995 74.2428 245.559 74.1147 244.74 73.1713C244.712 73.1328 244.683 73.0943 244.655 73.0559Z" fill="#FCB0BE"/>
<path d="M91.365 146.036C99.2062 143.675 103.661 135.382 101.3 127.541C98.9387 119.7 90.6457 115.245 82.8045 117.606C74.9633 119.967 70.5087 128.26 72.8697 136.101C75.2308 143.942 83.5238 148.397 91.365 146.036ZM84.1162 121.962C89.55 120.326 95.3074 123.419 96.9436 128.852C98.5797 134.286 95.4871 140.044 90.0533 141.68C84.6195 143.316 78.8621 140.223 77.2259 134.79C75.5898 129.356 78.6824 123.598 84.1162 121.962Z" fill="#F99964"/>
<path d="M95.1033 46.8446C102.945 44.4836 107.399 36.1905 105.038 28.3493C102.677 20.5081 94.384 16.0535 86.5428 18.4145C78.7016 20.7756 74.2469 29.0686 76.608 36.9098C78.969 44.751 87.2621 49.2057 95.1033 46.8446ZM87.8545 22.7708C93.2883 21.1346 99.0457 24.2272 100.682 29.661C102.318 35.0948 99.2254 40.8522 93.7916 42.4884C88.3578 44.1246 82.6004 41.032 80.9642 35.5982C79.3281 30.1643 82.4207 24.4069 87.8545 22.7708Z" fill="#53B2E8"/>
<path d="M98.9716 93.7285C99.6595 93.5214 100.228 93.0002 100.484 92.2729C100.875 91.0799 100.238 89.7961 99.0452 89.4052L77.6853 82.333C76.4922 81.942 75.2085 82.5786 74.8175 83.7716C74.4266 84.9647 75.0632 86.2484 76.2562 86.6394L97.6161 93.7116C98.0589 93.8533 98.536 93.8597 98.9716 93.7285Z" fill="#FFC658"/>
</svg>
